STARTFONT 2.1
FONT -FontForge-BmPlus HP 100LX 6x8-Book-R-Normal--8-80-75-75-C-60-ISO10646-1
SIZE 8 75 75
FONTBOUNDINGBOX 6 8 0 -1
COMMENT "Generated by fontforge, http://fontforge.sourceforge.net"
COMMENT "Outline (vector) version by VileR, 2020"
STARTPROPERTIES 41
FOUNDRY "FontForge"
FAMILY_NAME "BmPlus HP 100LX 6x8"
WEIGHT_NAME "Book"
SLANT "R"
SETWIDTH_NAME "Normal"
ADD_STYLE_NAME ""
PIXEL_SIZE 8
POINT_SIZE 80
RESOLUTION_X 75
RESOLUTION_Y 75
SPACING "C"
AVERAGE_WIDTH 60
CHARSET_REGISTRY "ISO10646"
CHARSET_ENCODING "1"
FONTNAME_REGISTRY ""
CHARSET_COLLECTIONS "ASCII ISOLatin1Encoding ISO8859-2 ISO8859-5 ISO8859-7 ISO8859-9 ISO8859-8 ISO8859-4 ISO10646-1"
FONT_NAME "BmPlus_HP_100LX_6x8"
FACE_NAME "BmPlus HP 100LX 6x8"
COPYRIGHT "Outline (vector) version by VileR, 2020"
FONT_VERSION "v2.2-2020-11"
FONT_ASCENT 7
FONT_DESCENT 1
UNDERLINE_POSITION 0
UNDERLINE_THICKNESS 1
X_HEIGHT 4
CAP_HEIGHT 6
DEFAULT_CHAR 1
RAW_ASCENT 875
RAW_DESCENT 125
NORM_SPACE 6
RELATIVE_WEIGHT 40
RELATIVE_SETWIDTH 50
SUPERSCRIPT_X 0
SUPERSCRIPT_Y 4
SUPERSCRIPT_SIZE 8
SUBSCRIPT_X 0
SUBSCRIPT_Y 4
SUBSCRIPT_SIZE 8
FIGURE_WIDTH 6
AVG_LOWERCASE_WIDTH 60
AVG_UPPERCASE_WIDTH 60
ENDPROPERTIES
CHARS 788
STARTCHAR uni0000
ENCODING 0
SWIDTH 750 0
DWIDTH 6 0
BBX 1 1 5 -1
BITMAP
00
ENDCHAR
STARTCHAR uni0001
ENCODING 1
SWIDTH 750 0
DWIDTH 6 0
BBX 5 7 1 0
BITMAP
70
88
D8
88
A8
88
70
ENDCHAR
STARTCHAR uni0002
ENCODING 2
SWIDTH 750 0
DWIDTH 6 0
BBX 5 7 1 0
BITMAP
70
F8
A8
F8
D8
F8
70
ENDCHAR
STARTCHAR uni0003
ENCODING 3
SWIDTH 750 0
DWIDTH 6 0
BBX 5 6 1 0
BITMAP
50
F8
F8
F8
70
20
ENDCHAR
STARTCHAR uni0004
ENCODING 4
SWIDTH 750 0
DWIDTH 6 0
BBX 5 6 1 0
BITMAP
20
70
F8
F8
70
20
ENDCHAR
STARTCHAR uni0005
ENCODING 5
SWIDTH 750 0
DWIDTH 6 0
BBX 5 6 1 0
BITMAP
70
70
F8
D8
20
70
ENDCHAR
STARTCHAR uni0006
ENCODING 6
SWIDTH 750 0
DWIDTH 6 0
BBX 5 6 1 0
BITMAP
20
70
F8
D8
20
70
ENDCHAR
STARTCHAR uni0007
ENCODING 7
SWIDTH 750 0
DWIDTH 6 0
BBX 2 2 2 2
BITMAP
C0
C0
ENDCHAR
STARTCHAR uni0008
ENCODING 8
SWIDTH 750 0
DWIDTH 6 0
BBX 6 8 0 -1
BITMAP
FC
FC
FC
CC
CC
FC
FC
FC
ENDCHAR
STARTCHAR uni0009
ENCODING 9
SWIDTH 750 0
DWIDTH 6 0
BBX 4 4 1 1
BITMAP
60
90
90
60
ENDCHAR
STARTCHAR uni000A
ENCODING 10
SWIDTH 750 0
DWIDTH 6 0
BBX 6 8 0 -1
BITMAP
FC
FC
CC
B4
B4
CC
FC
FC
ENDCHAR
STARTCHAR uni000B
ENCODING 11
SWIDTH 750 0
DWIDTH 6 0
BBX 6 8 0 -1
BITMAP
1C
0C
14
70
88
88
88
70
ENDCHAR
STARTCHAR uni000C
ENCODING 12
SWIDTH 750 0
DWIDTH 6 0
BBX 5 8 1 -1
BITMAP
70
88
88
88
70
20
70
20
ENDCHAR
STARTCHAR uni000D
ENCODING 13
SWIDTH 750 0
DWIDTH 6 0
BBX 5 7 1 0
BITMAP
20
30
28
20
20
E0
C0
ENDCHAR
STARTCHAR uni000E
ENCODING 14
SWIDTH 750 0
DWIDTH 6 0
BBX 6 8 0 -1
BITMAP
30
28
34
2C
24
E4
DC
18
ENDCHAR
STARTCHAR uni000F
ENCODING 15
SWIDTH 750 0
DWIDTH 6 0
BBX 5 5 1 1
BITMAP
A8
70
D8
70
A8
ENDCHAR
STARTCHAR uni0010
ENCODING 16
SWIDTH 750 0
DWIDTH 6 0
BBX 5 5 1 1
BITMAP
C0
F0
F8
F0
C0
ENDCHAR
STARTCHAR uni0011
ENCODING 17
SWIDTH 750 0
DWIDTH 6 0
BBX 5 5 1 1
BITMAP
18
78
F8
78
18
ENDCHAR
STARTCHAR uni0012
ENCODING 18
SWIDTH 750 0
DWIDTH 6 0
BBX 5 7 1 0
BITMAP
20
70
F8
20
F8
70
20
ENDCHAR
STARTCHAR uni0013
ENCODING 19
SWIDTH 750 0
DWIDTH 6 0
BBX 3 7 2 0
BITMAP
A0
A0
A0
A0
A0
00
A0
ENDCHAR
STARTCHAR uni0014
ENCODING 20
SWIDTH 750 0
DWIDTH 6 0
BBX 5 7 1 0
BITMAP
78
A8
A8
68
28
28
28
ENDCHAR
STARTCHAR uni0015
ENCODING 21
SWIDTH 750 0
DWIDTH 6 0
BBX 6 8 0 -1
BITMAP
38
44
30
48
48
30
88
70
ENDCHAR
STARTCHAR uni0016
ENCODING 22
SWIDTH 750 0
DWIDTH 6 0
BBX 5 3 1 -1
BITMAP
F8
F8
F8
ENDCHAR
STARTCHAR uni0017
ENCODING 23
SWIDTH 750 0
DWIDTH 6 0
BBX 5 8 1 -1
BITMAP
20
70
F8
20
F8
70
20
F8
ENDCHAR
STARTCHAR uni0018
ENCODING 24
SWIDTH 750 0
DWIDTH 6 0
BBX 5 7 1 -1
BITMAP
20
70
F8
20
20
20
20
ENDCHAR
STARTCHAR uni0019
ENCODING 25
SWIDTH 750 0
DWIDTH 6 0
BBX 5 7 1 0
BITMAP
20
20
20
20
F8
70
20
ENDCHAR
STARTCHAR uni001A
ENCODING 26
SWIDTH 750 0
DWIDTH 6 0
BBX 6 5 0 1
BITMAP
10
18
FC
18
10
ENDCHAR
STARTCHAR uni001B
ENCODING 27
SWIDTH 750 0
DWIDTH 6 0
BBX 6 5 0 1
BITMAP
20
60
FC
60
20
ENDCHAR
STARTCHAR uni001C
ENCODING 28
SWIDTH 750 0
DWIDTH 6 0
BBX 5 4 1 3
BITMAP
80
80
80
F8
ENDCHAR
STARTCHAR uni001D
ENCODING 29
SWIDTH 750 0
DWIDTH 6 0
BBX 6 3 0 2
BITMAP
48
FC
48
ENDCHAR
STARTCHAR uni001E
ENCODING 30
SWIDTH 750 0
DWIDTH 6 0
BBX 5 6 1 0
BITMAP
20
20
70
70
F8
F8
ENDCHAR
STARTCHAR uni001F
ENCODING 31
SWIDTH 750 0
DWIDTH 6 0
BBX 5 6 1 0
BITMAP
F8
F8
70
70
20
20
ENDCHAR
STARTCHAR space
ENCODING 32
SWIDTH 750 0
DWIDTH 6 0
BBX 1 1 5 -1
BITMAP
00
ENDCHAR
STARTCHAR exclam
ENCODING 33
SWIDTH 750 0
DWIDTH 6 0
BBX 1 7 3 0
BITMAP
80
80
80
80
80
00
80
ENDCHAR
STARTCHAR quotedbl
ENCODING 34
SWIDTH 750 0
DWIDTH 6 0
BBX 3 3 2 4
BITMAP
A0
A0
A0
ENDCHAR
STARTCHAR numbersign
ENCODING 35
SWIDTH 750 0
DWIDTH 6 0
BBX 5 7 1 0
BITMAP
50
50
F8
50
F8
50
50
ENDCHAR
STARTCHAR dollar
ENCODING 36
SWIDTH 750 0
DWIDTH 6 0
BBX 5 7 1 0
BITMAP
20
78
80
70
08
F0
20
ENDCHAR
STARTCHAR percent
ENCODING 37
SWIDTH 750 0
DWIDTH 6 0
BBX 5 7 1 0
BITMAP
40
A8
50
20
50
A8
10
ENDCHAR
STARTCHAR ampersand
ENCODING 38
SWIDTH 750 0
DWIDTH 6 0
BBX 5 7 1 0
BITMAP
40
A0
A0
40
A8
90
68
ENDCHAR
STARTCHAR quotesingle
ENCODING 39
SWIDTH 750 0
DWIDTH 6 0
BBX 2 4 2 3
BITMAP
C0
C0
40
80
ENDCHAR
STARTCHAR parenleft
ENCODING 40
SWIDTH 750 0
DWIDTH 6 0
BBX 2 7 2 0
BITMAP
40
80
80
80
80
80
40
ENDCHAR
STARTCHAR parenright
ENCODING 41
SWIDTH 750 0
DWIDTH 6 0
BBX 2 7 3 0
BITMAP
80
40
40
40
40
40
80
ENDCHAR
STARTCHAR asterisk
ENCODING 42
SWIDTH 750 0
DWIDTH 6 0
BBX 5 5 1 1
BITMAP
50
20
F8
20
50
ENDCHAR
STARTCHAR plus
ENCODING 43
SWIDTH 750 0
DWIDTH 6 0
BBX 5 5 1 1
BITMAP
20
20
F8
20
20
ENDCHAR
STARTCHAR comma
ENCODING 44
SWIDTH 750 0
DWIDTH 6 0
BBX 2 3 2 -1
BITMAP
C0
40
80
ENDCHAR
STARTCHAR hyphen
ENCODING 45
SWIDTH 750 0
DWIDTH 6 0
BBX 5 1 1 3
BITMAP
F8
ENDCHAR
STARTCHAR period
ENCODING 46
SWIDTH 750 0
DWIDTH 6 0
BBX 2 2 2 0
BITMAP
C0
C0
ENDCHAR
STARTCHAR slash
ENCODING 47
SWIDTH 750 0
DWIDTH 6 0
BBX 5 6 1 0
BITMAP
08
18
30
60
C0
80
ENDCHAR
STARTCHAR zero
ENCODING 48
SWIDTH 750 0
DWIDTH 6 0
BBX 5 7 1 0
BITMAP
70
88
98
A8
C8
88
70
ENDCHAR
STARTCHAR one
ENCODING 49
SWIDTH 750 0
DWIDTH 6 0
BBX 3 7 2 0
BITMAP
40
C0
40
40
40
40
E0
ENDCHAR
STARTCHAR two
ENCODING 50
SWIDTH 750 0
DWIDTH 6 0
BBX 5 7 1 0
BITMAP
70
88
08
30
40
80
F8
ENDCHAR
STARTCHAR three
ENCODING 51
SWIDTH 750 0
DWIDTH 6 0
BBX 5 7 1 0
BITMAP
70
88
08
70
08
88
70
ENDCHAR
STARTCHAR four
ENCODING 52
SWIDTH 750 0
DWIDTH 6 0
BBX 5 7 1 0
BITMAP
10
30
50
90
F8
10
38
ENDCHAR
STARTCHAR five
ENCODING 53
SWIDTH 750 0
DWIDTH 6 0
BBX 5 7 1 0
BITMAP
F8
80
F0
08
08
88
70
ENDCHAR
STARTCHAR six
ENCODING 54
SWIDTH 750 0
DWIDTH 6 0
BBX 5 7 1 0
BITMAP
30
40
80
F0
88
88
70
ENDCHAR
STARTCHAR seven
ENCODING 55
SWIDTH 750 0
DWIDTH 6 0
BBX 5 7 1 0
BITMAP
F8
08
10
20
20
20
20
ENDCHAR
STARTCHAR eight
ENCODING 56
SWIDTH 750 0
DWIDTH 6 0
BBX 5 7 1 0
BITMAP
70
88
88
70
88
88
70
ENDCHAR
STARTCHAR nine
ENCODING 57
SWIDTH 750 0
DWIDTH 6 0
BBX 5 7 1 0
BITMAP
70
88
88
78
08
10
60
ENDCHAR
STARTCHAR colon
ENCODING 58
SWIDTH 750 0
DWIDTH 6 0
BBX 2 5 2 0
BITMAP
C0
C0
00
C0
C0
ENDCHAR
STARTCHAR semicolon
ENCODING 59
SWIDTH 750 0
DWIDTH 6 0
BBX 2 6 2 -1
BITMAP
C0
C0
00
C0
40
80
ENDCHAR
STARTCHAR less
ENCODING 60
SWIDTH 750 0
DWIDTH 6 0
BBX 4 7 1 0
BITMAP
10
20
40
80
40
20
10
ENDCHAR
STARTCHAR equal
ENCODING 61
SWIDTH 750 0
DWIDTH 6 0
BBX 5 3 1 2
BITMAP
F8
00
F8
ENDCHAR
STARTCHAR greater
ENCODING 62
SWIDTH 750 0
DWIDTH 6 0
BBX 4 7 2 0
BITMAP
80
40
20
10
20
40
80
ENDCHAR
STARTCHAR question
ENCODING 63
SWIDTH 750 0
DWIDTH 6 0
BBX 5 7 1 0
BITMAP
70
88
88
10
20
00
20
ENDCHAR
STARTCHAR at
ENCODING 64
SWIDTH 750 0
DWIDTH 6 0
BBX 5 7 1 0
BITMAP
70
88
B8
A8
B8
80
78
ENDCHAR
STARTCHAR A
ENCODING 65
SWIDTH 750 0
DWIDTH 6 0
BBX 5 7 1 0
BITMAP
70
88
88
88
F8
88
88
ENDCHAR
STARTCHAR B
ENCODING 66
SWIDTH 750 0
DWIDTH 6 0
BBX 5 7 1 0
BITMAP
F0
88
88
F0
88
88
F0
ENDCHAR
STARTCHAR C
ENCODING 67
SWIDTH 750 0
DWIDTH 6 0
BBX 5 7 1 0
BITMAP
70
88
80
80
80
88
70
ENDCHAR
STARTCHAR D
ENCODING 68
SWIDTH 750 0
DWIDTH 6 0
BBX 5 7 1 0
BITMAP
E0
90
88
88
88
90
E0
ENDCHAR
STARTCHAR E
ENCODING 69
SWIDTH 750 0
DWIDTH 6 0
BBX 5 7 1 0
BITMAP
F8
80
80
F0
80
80
F8
ENDCHAR
STARTCHAR F
ENCODING 70
SWIDTH 750 0
DWIDTH 6 0
BBX 5 7 1 0
BITMAP
F8
80
80
F0
80
80
80
ENDCHAR
STARTCHAR G
ENCODING 71
SWIDTH 750 0
DWIDTH 6 0
BBX 5 7 1 0
BITMAP
70
88
80
80
98
88
78
ENDCHAR
STARTCHAR H
ENCODING 72
SWIDTH 750 0
DWIDTH 6 0
BBX 5 7 1 0
BITMAP
88
88
88
F8
88
88
88
ENDCHAR
STARTCHAR I
ENCODING 73
SWIDTH 750 0
DWIDTH 6 0
BBX 3 7 2 0
BITMAP
E0
40
40
40
40
40
E0
ENDCHAR
STARTCHAR J
ENCODING 74
SWIDTH 750 0
DWIDTH 6 0
BBX 5 7 1 0
BITMAP
08
08
08
08
88
88
70
ENDCHAR
STARTCHAR K
ENCODING 75
SWIDTH 750 0
DWIDTH 6 0
BBX 5 7 1 0
BITMAP
88
90
A0
C0
A0
90
88
ENDCHAR
STARTCHAR L
ENCODING 76
SWIDTH 750 0
DWIDTH 6 0
BBX 5 7 1 0
BITMAP
80
80
80
80
80
80
F8
ENDCHAR
STARTCHAR M
ENCODING 77
SWIDTH 750 0
DWIDTH 6 0
BBX 5 7 1 0
BITMAP
88
D8
D8
A8
A8
88
88
ENDCHAR
STARTCHAR N
ENCODING 78
SWIDTH 750 0
DWIDTH 6 0
BBX 5 7 1 0
BITMAP
88
C8
C8
A8
98
98
88
ENDCHAR
STARTCHAR O
ENCODING 79
SWIDTH 750 0
DWIDTH 6 0
BBX 5 7 1 0
BITMAP
70
88
88
88
88
88
70
ENDCHAR
STARTCHAR P
ENCODING 80
SWIDTH 750 0
DWIDTH 6 0
BBX 5 7 1 0
BITMAP
F0
88
88
F0
80
80
80
ENDCHAR
STARTCHAR Q
ENCODING 81
SWIDTH 750 0
DWIDTH 6 0
BBX 5 7 1 0
BITMAP
70
88
88
88
A8
90
68
ENDCHAR
STARTCHAR R
ENCODING 82
SWIDTH 750 0
DWIDTH 6 0
BBX 5 7 1 0
BITMAP
F0
88
88
F0
90
88
88
ENDCHAR
STARTCHAR S
ENCODING 83
SWIDTH 750 0
DWIDTH 6 0
BBX 5 7 1 0
BITMAP
70
88
80
70
08
88
70
ENDCHAR
STARTCHAR T
ENCODING 84
SWIDTH 750 0
DWIDTH 6 0
BBX 5 7 1 0
BITMAP
F8
20
20
20
20
20
20
ENDCHAR
STARTCHAR U
ENCODING 85
SWIDTH 750 0
DWIDTH 6 0
BBX 5 7 1 0
BITMAP
88
88
88
88
88
88
70
ENDCHAR
STARTCHAR V
ENCODING 86
SWIDTH 750 0
DWIDTH 6 0
BBX 5 7 1 0
BITMAP
88
88
88
50
50
20
20
ENDCHAR
STARTCHAR W
ENCODING 87
SWIDTH 750 0
DWIDTH 6 0
BBX 5 7 1 0
BITMAP
88
88
88
A8
A8
D8
88
ENDCHAR
STARTCHAR X
ENCODING 88
SWIDTH 750 0
DWIDTH 6 0
BBX 5 7 1 0
BITMAP
88
88
50
20
50
88
88
ENDCHAR
STARTCHAR Y
ENCODING 89
SWIDTH 750 0
DWIDTH 6 0
BBX 5 7 1 0
BITMAP
88
88
50
70
20
20
20
ENDCHAR
STARTCHAR Z
ENCODING 90
SWIDTH 750 0
DWIDTH 6 0
BBX 5 7 1 0
BITMAP
F8
08
10
20
40
80
F8
ENDCHAR
STARTCHAR bracketleft
ENCODING 91
SWIDTH 750 0
DWIDTH 6 0
BBX 3 7 2 0
BITMAP
E0
80
80
80
80
80
E0
ENDCHAR
STARTCHAR backslash
ENCODING 92
SWIDTH 750 0
DWIDTH 6 0
BBX 5 6 1 0
BITMAP
80
C0
60
30
18
08
ENDCHAR
STARTCHAR bracketright
ENCODING 93
SWIDTH 750 0
DWIDTH 6 0
BBX 3 7 2 0
BITMAP
E0
20
20
20
20
20
E0
ENDCHAR
STARTCHAR asciicircum
ENCODING 94
SWIDTH 750 0
DWIDTH 6 0
BBX 5 3 1 4
BITMAP
20
50
88
ENDCHAR
STARTCHAR underscore
ENCODING 95
SWIDTH 750 0
DWIDTH 6 0
BBX 6 1 0 -1
BITMAP
FC
ENDCHAR
STARTCHAR grave
ENCODING 96
SWIDTH 750 0
DWIDTH 6 0
BBX 2 2 3 5
BITMAP
80
40
ENDCHAR
STARTCHAR a
ENCODING 97
SWIDTH 750 0
DWIDTH 6 0
BBX 5 5 1 0
BITMAP
70
08
78
88
78
ENDCHAR
STARTCHAR b
ENCODING 98
SWIDTH 750 0
DWIDTH 6 0
BBX 5 7 1 0
BITMAP
80
80
B0
C8
88
C8
B0
ENDCHAR
STARTCHAR c
ENCODING 99
SWIDTH 750 0
DWIDTH 6 0
BBX 5 5 1 0
BITMAP
70
88
80
88
70
ENDCHAR
STARTCHAR d
ENCODING 100
SWIDTH 750 0
DWIDTH 6 0
BBX 5 7 1 0
BITMAP
08
08
68
98
88
98
68
ENDCHAR
STARTCHAR e
ENCODING 101
SWIDTH 750 0
DWIDTH 6 0
BBX 5 5 1 0
BITMAP
70
88
F8
80
70
ENDCHAR
STARTCHAR f
ENCODING 102
SWIDTH 750 0
DWIDTH 6 0
BBX 5 7 1 0
BITMAP
30
48
40
E0
40
40
40
ENDCHAR
STARTCHAR g
ENCODING 103
SWIDTH 750 0
DWIDTH 6 0
BBX 5 6 1 -1
BITMAP
68
98
88
78
08
70
ENDCHAR
STARTCHAR h
ENCODING 104
SWIDTH 750 0
DWIDTH 6 0
BBX 5 7 1 0
BITMAP
80
80
B0
C8
88
88
88
ENDCHAR
STARTCHAR i
ENCODING 105
SWIDTH 750 0
DWIDTH 6 0
BBX 3 7 2 0
BITMAP
40
00
C0
40
40
40
E0
ENDCHAR
STARTCHAR j
ENCODING 106
SWIDTH 750 0
DWIDTH 6 0
BBX 4 8 1 -1
BITMAP
10
00
30
10
10
10
90
60
ENDCHAR
STARTCHAR k
ENCODING 107
SWIDTH 750 0
DWIDTH 6 0
BBX 4 7 1 0
BITMAP
80
80
90
A0
C0
A0
90
ENDCHAR
STARTCHAR l
ENCODING 108
SWIDTH 750 0
DWIDTH 6 0
BBX 3 7 2 0
BITMAP
C0
40
40
40
40
40
E0
ENDCHAR
STARTCHAR m
ENCODING 109
SWIDTH 750 0
DWIDTH 6 0
BBX 5 5 1 0
BITMAP
D0
A8
A8
A8
A8
ENDCHAR
STARTCHAR n
ENCODING 110
SWIDTH 750 0
DWIDTH 6 0
BBX 5 5 1 0
BITMAP
B0
C8
88
88
88
ENDCHAR
STARTCHAR o
ENCODING 111
SWIDTH 750 0
DWIDTH 6 0
BBX 5 5 1 0
BITMAP
70
88
88
88
70
ENDCHAR
STARTCHAR p
ENCODING 112
SWIDTH 750 0
DWIDTH 6 0
BBX 5 6 1 -1
BITMAP
B0
C8
88
C8
B0
80
ENDCHAR
STARTCHAR q
ENCODING 113
SWIDTH 750 0
DWIDTH 6 0
BBX 5 6 1 -1
BITMAP
68
98
88
98
68
08
ENDCHAR
STARTCHAR r
ENCODING 114
SWIDTH 750 0
DWIDTH 6 0
BBX 5 5 1 0
BITMAP
B0
48
40
40
E0
ENDCHAR
STARTCHAR s
ENCODING 115
SWIDTH 750 0
DWIDTH 6 0
BBX 5 5 1 0
BITMAP
78
80
70
08
F0
ENDCHAR
STARTCHAR t
ENCODING 116
SWIDTH 750 0
DWIDTH 6 0
BBX 5 7 1 0
BITMAP
40
40
E0
40
40
48
30
ENDCHAR
STARTCHAR u
ENCODING 117
SWIDTH 750 0
DWIDTH 6 0
BBX 5 5 1 0
BITMAP
88
88
88
98
68
ENDCHAR
STARTCHAR v
ENCODING 118
SWIDTH 750 0
DWIDTH 6 0
BBX 5 5 1 0
BITMAP
88
88
88
50
20
ENDCHAR
STARTCHAR w
ENCODING 119
SWIDTH 750 0
DWIDTH 6 0
BBX 5 5 1 0
BITMAP
88
88
A8
A8
50
ENDCHAR
STARTCHAR x
ENCODING 120
SWIDTH 750 0
DWIDTH 6 0
BBX 5 5 1 0
BITMAP
88
50
20
50
88
ENDCHAR
STARTCHAR y
ENCODING 121
SWIDTH 750 0
DWIDTH 6 0
BBX 5 6 1 -1
BITMAP
88
88
88
78
08
70
ENDCHAR
STARTCHAR z
ENCODING 122
SWIDTH 750 0
DWIDTH 6 0
BBX 5 5 1 0
BITMAP
F8
10
20
40
F8
ENDCHAR
STARTCHAR braceleft
ENCODING 123
SWIDTH 750 0
DWIDTH 6 0
BBX 4 7 1 0
BITMAP
30
40
40
80
40
40
30
ENDCHAR
STARTCHAR bar
ENCODING 124
SWIDTH 750 0
DWIDTH 6 0
BBX 1 7 3 0
BITMAP
80
80
80
80
80
80
80
ENDCHAR
STARTCHAR braceright
ENCODING 125
SWIDTH 750 0
DWIDTH 6 0
BBX 4 7 2 0
BITMAP
C0
20
20
10
20
20
C0
ENDCHAR
STARTCHAR asciitilde
ENCODING 126
SWIDTH 750 0
DWIDTH 6 0
BBX 5 3 1 4
BITMAP
40
A8
10
ENDCHAR
STARTCHAR uni007F
ENCODING 127
SWIDTH 750 0
DWIDTH 6 0
BBX 5 6 1 0
BITMAP
20
50
88
88
88
F8
ENDCHAR
STARTCHAR uni00A0
ENCODING 160
SWIDTH 750 0
DWIDTH 6 0
BBX 1 1 5 -1
BITMAP
00
ENDCHAR
STARTCHAR exclamdown
ENCODING 161
SWIDTH 750 0
DWIDTH 6 0
BBX 1 7 3 0
BITMAP
80
00
80
80
80
80
80
ENDCHAR
STARTCHAR cent
ENCODING 162
SWIDTH 750 0
DWIDTH 6 0
BBX 5 7 1 -1
BITMAP
20
70
88
80
88
70
20
ENDCHAR
STARTCHAR sterling
ENCODING 163
SWIDTH 750 0
DWIDTH 6 0
BBX 5 7 1 0
BITMAP
30
48
40
F0
40
40
F8
ENDCHAR
STARTCHAR currency
ENCODING 164
SWIDTH 750 0
DWIDTH 6 0
BBX 6 6 0 0
BITMAP
84
78
48
48
78
84
ENDCHAR
STARTCHAR yen
ENCODING 165
SWIDTH 750 0
DWIDTH 6 0
BBX 5 8 1 -1
BITMAP
88
50
20
F8
20
F8
20
20
ENDCHAR
STARTCHAR brokenbar
ENCODING 166
SWIDTH 750 0
DWIDTH 6 0
BBX 1 7 3 0
BITMAP
80
80
80
00
80
80
80
ENDCHAR
STARTCHAR section
ENCODING 167
SWIDTH 750 0
DWIDTH 6 0
BBX 6 8 0 -1
BITMAP
38
44
30
48
48
30
88
70
ENDCHAR
STARTCHAR dieresis
ENCODING 168
SWIDTH 750 0
DWIDTH 6 0
BBX 3 1 2 6
BITMAP
A0
ENDCHAR
STARTCHAR copyright
ENCODING 169
SWIDTH 750 0
DWIDTH 6 0
BBX 6 8 0 -1
BITMAP
78
84
B4
A4
A4
B4
84
78
ENDCHAR
STARTCHAR ordfeminine
ENCODING 170
SWIDTH 750 0
DWIDTH 6 0
BBX 5 6 1 1
BITMAP
70
90
90
68
00
F8
ENDCHAR
STARTCHAR guillemotleft
ENCODING 171
SWIDTH 750 0
DWIDTH 6 0
BBX 6 5 0 1
BITMAP
24
48
90
48
24
ENDCHAR
STARTCHAR logicalnot
ENCODING 172
SWIDTH 750 0
DWIDTH 6 0
BBX 5 4 0 0
BITMAP
F8
08
08
08
ENDCHAR
STARTCHAR uni00AD
ENCODING 173
SWIDTH 750 0
DWIDTH 6 0
BBX 5 1 1 3
BITMAP
F8
ENDCHAR
STARTCHAR registered
ENCODING 174
SWIDTH 750 0
DWIDTH 6 0
BBX 6 8 0 -1
BITMAP
78
84
B4
AC
B4
AC
84
78
ENDCHAR
STARTCHAR macron
ENCODING 175
SWIDTH 750 0
DWIDTH 6 0
BBX 6 1 0 6
BITMAP
FC
ENDCHAR
STARTCHAR degree
ENCODING 176
SWIDTH 750 0
DWIDTH 6 0
BBX 4 4 1 3
BITMAP
60
90
90
60
ENDCHAR
STARTCHAR plusminus
ENCODING 177
SWIDTH 750 0
DWIDTH 6 0
BBX 5 6 1 0
BITMAP
20
20
F8
20
20
F8
ENDCHAR
STARTCHAR uni00B2
ENCODING 178
SWIDTH 750 0
DWIDTH 6 0
BBX 3 4 2 3
BITMAP
C0
20
40
E0
ENDCHAR
STARTCHAR uni00B3
ENCODING 179
SWIDTH 750 0
DWIDTH 6 0
BBX 3 4 2 3
BITMAP
E0
60
20
E0
ENDCHAR
STARTCHAR acute
ENCODING 180
SWIDTH 750 0
DWIDTH 6 0
BBX 2 2 3 5
BITMAP
40
80
ENDCHAR
STARTCHAR mu
ENCODING 181
SWIDTH 750 0
DWIDTH 6 0
BBX 5 6 1 -1
BITMAP
88
88
88
88
F8
80
ENDCHAR
STARTCHAR paragraph
ENCODING 182
SWIDTH 750 0
DWIDTH 6 0
BBX 5 7 1 0
BITMAP
78
A8
A8
68
28
28
28
ENDCHAR
STARTCHAR periodcentered
ENCODING 183
SWIDTH 750 0
DWIDTH 6 0
BBX 1 1 2 3
BITMAP
80
ENDCHAR
STARTCHAR cedilla
ENCODING 184
SWIDTH 750 0
DWIDTH 6 0
BBX 3 1 1 -1
BITMAP
E0
ENDCHAR
STARTCHAR uni00B9
ENCODING 185
SWIDTH 750 0
DWIDTH 6 0
BBX 3 4 2 3
BITMAP
40
C0
40
E0
ENDCHAR
STARTCHAR ordmasculine
ENCODING 186
SWIDTH 750 0
DWIDTH 6 0
BBX 4 6 1 1
BITMAP
60
90
90
60
00
F0
ENDCHAR
STARTCHAR guillemotright
ENCODING 187
SWIDTH 750 0
DWIDTH 6 0
BBX 6 5 0 1
BITMAP
90
48
24
48
90
ENDCHAR
STARTCHAR onequarter
ENCODING 188
SWIDTH 750 0
DWIDTH 6 0
BBX 5 7 1 0
BITMAP
80
90
A0
40
A8
38
08
ENDCHAR
STARTCHAR onehalf
ENCODING 189
SWIDTH 750 0
DWIDTH 6 0
BBX 5 7 1 0
BITMAP
80
90
A0
58
88
10
18
ENDCHAR
STARTCHAR threequarters
ENCODING 190
SWIDTH 750 0
DWIDTH 6 0
BBX 6 7 0 0
BITMAP
C0
68
D0
20
54
1C
04
ENDCHAR
STARTCHAR questiondown
ENCODING 191
SWIDTH 750 0
DWIDTH 6 0
BBX 5 7 1 0
BITMAP
20
00
20
40
88
88
70
ENDCHAR
STARTCHAR Agrave
ENCODING 192
SWIDTH 750 0
DWIDTH 6 0
BBX 5 7 1 0
BITMAP
C0
70
88
88
F8
88
88
ENDCHAR
STARTCHAR Aacute
ENCODING 193
SWIDTH 750 0
DWIDTH 6 0
BBX 5 7 1 0
BITMAP
18
70
88
88
F8
88
88
ENDCHAR
STARTCHAR Acircumflex
ENCODING 194
SWIDTH 750 0
DWIDTH 6 0
BBX 5 7 1 0
BITMAP
70
70
88
88
F8
88
88
ENDCHAR
STARTCHAR Atilde
ENCODING 195
SWIDTH 750 0
DWIDTH 6 0
BBX 6 7 0 0
BITMAP
64
BC
44
44
7C
44
44
ENDCHAR
STARTCHAR Adieresis
ENCODING 196
SWIDTH 750 0
DWIDTH 6 0
BBX 5 7 1 0
BITMAP
50
70
88
88
F8
88
88
ENDCHAR
STARTCHAR Aring
ENCODING 197
SWIDTH 750 0
DWIDTH 6 0
BBX 5 7 1 0
BITMAP
20
70
88
88
F8
88
88
ENDCHAR
STARTCHAR AE
ENCODING 198
SWIDTH 750 0
DWIDTH 6 0
BBX 5 7 1 0
BITMAP
58
A0
A0
F8
A0
A0
B8
ENDCHAR
STARTCHAR Ccedilla
ENCODING 199
SWIDTH 750 0
DWIDTH 6 0
BBX 5 8 1 -1
BITMAP
70
88
80
80
80
88
70
E0
ENDCHAR
STARTCHAR Egrave
ENCODING 200
SWIDTH 750 0
DWIDTH 6 0
BBX 5 7 1 0
BITMAP
E0
F8
80
F0
80
80
F8
ENDCHAR
STARTCHAR Eacute
ENCODING 201
SWIDTH 750 0
DWIDTH 6 0
BBX 5 7 1 0
BITMAP
38
F8
80
F0
80
80
F8
ENDCHAR
STARTCHAR Ecircumflex
ENCODING 202
SWIDTH 750 0
DWIDTH 6 0
BBX 5 7 1 0
BITMAP
70
F8
80
F0
80
80
F8
ENDCHAR
STARTCHAR Edieresis
ENCODING 203
SWIDTH 750 0
DWIDTH 6 0
BBX 5 7 1 0
BITMAP
50
F8
80
F0
80
80
F8
ENDCHAR
STARTCHAR Igrave
ENCODING 204
SWIDTH 750 0
DWIDTH 6 0
BBX 3 7 2 0
BITMAP
C0
E0
40
40
40
40
E0
ENDCHAR
STARTCHAR Iacute
ENCODING 205
SWIDTH 750 0
DWIDTH 6 0
BBX 3 7 2 0
BITMAP
60
E0
40
40
40
40
E0
ENDCHAR
STARTCHAR Icircumflex
ENCODING 206
SWIDTH 750 0
DWIDTH 6 0
BBX 3 7 2 0
BITMAP
E0
E0
40
40
40
40
E0
ENDCHAR
STARTCHAR Idieresis
ENCODING 207
SWIDTH 750 0
DWIDTH 6 0
BBX 3 7 2 0
BITMAP
A0
E0
40
40
40
40
E0
ENDCHAR
STARTCHAR Eth
ENCODING 208
SWIDTH 750 0
DWIDTH 6 0
BBX 6 7 0 0
BITMAP
70
48
44
E4
44
48
70
ENDCHAR
STARTCHAR Ntilde
ENCODING 209
SWIDTH 750 0
DWIDTH 6 0
BBX 5 7 1 0
BITMAP
70
88
C8
E8
B8
98
88
ENDCHAR
STARTCHAR Ograve
ENCODING 210
SWIDTH 750 0
DWIDTH 6 0
BBX 5 7 1 0
BITMAP
C0
70
88
88
88
88
70
ENDCHAR
STARTCHAR Oacute
ENCODING 211
SWIDTH 750 0
DWIDTH 6 0
BBX 5 7 1 0
BITMAP
18
70
88
88
88
88
70
ENDCHAR
STARTCHAR Ocircumflex
ENCODING 212
SWIDTH 750 0
DWIDTH 6 0
BBX 5 7 1 0
BITMAP
F8
70
88
88
88
88
70
ENDCHAR
STARTCHAR Otilde
ENCODING 213
SWIDTH 750 0
DWIDTH 6 0
BBX 6 7 0 0
BITMAP
64
B8
44
44
44
44
38
ENDCHAR
STARTCHAR Odieresis
ENCODING 214
SWIDTH 750 0
DWIDTH 6 0
BBX 5 7 1 0
BITMAP
50
70
88
88
88
88
70
ENDCHAR
STARTCHAR multiply
ENCODING 215
SWIDTH 750 0
DWIDTH 6 0
BBX 5 5 1 1
BITMAP
88
50
20
50
88
ENDCHAR
STARTCHAR Oslash
ENCODING 216
SWIDTH 750 0
DWIDTH 6 0
BBX 6 7 0 0
BITMAP
38
44
4C
54
64
44
B8
ENDCHAR
STARTCHAR Ugrave
ENCODING 217
SWIDTH 750 0
DWIDTH 6 0
BBX 5 7 1 0
BITMAP
40
A8
88
88
88
88
70
ENDCHAR
STARTCHAR Uacute
ENCODING 218
SWIDTH 750 0
DWIDTH 6 0
BBX 5 7 1 0
BITMAP
10
A8
88
88
88
88
70
ENDCHAR
STARTCHAR Ucircumflex
ENCODING 219
SWIDTH 750 0
DWIDTH 6 0
BBX 5 7 1 0
BITMAP
20
D8
88
88
88
88
70
ENDCHAR
STARTCHAR Udieresis
ENCODING 220
SWIDTH 750 0
DWIDTH 6 0
BBX 5 7 1 0
BITMAP
50
88
88
88
88
88
70
ENDCHAR
STARTCHAR Yacute
ENCODING 221
SWIDTH 750 0
DWIDTH 6 0
BBX 5 7 1 0
BITMAP
30
88
50
70
20
20
20
ENDCHAR
STARTCHAR Thorn
ENCODING 222
SWIDTH 750 0
DWIDTH 6 0
BBX 5 7 1 0
BITMAP
80
F0
88
88
F0
80
80
ENDCHAR
STARTCHAR germandbls
ENCODING 223
SWIDTH 750 0
DWIDTH 6 0
BBX 6 6 0 0
BITMAP
38
44
58
44
44
D8
ENDCHAR
STARTCHAR agrave
ENCODING 224
SWIDTH 750 0
DWIDTH 6 0
BBX 5 7 1 0
BITMAP
40
20
70
08
78
88
78
ENDCHAR
STARTCHAR aacute
ENCODING 225
SWIDTH 750 0
DWIDTH 6 0
BBX 5 7 1 0
BITMAP
10
20
70
08
78
88
78
ENDCHAR
STARTCHAR acircumflex
ENCODING 226
SWIDTH 750 0
DWIDTH 6 0
BBX 5 7 1 0
BITMAP
20
50
70
08
78
88
78
ENDCHAR
STARTCHAR atilde
ENCODING 227
SWIDTH 750 0
DWIDTH 6 0
BBX 5 7 1 0
BITMAP
70
00
70
08
78
88
78
ENDCHAR
STARTCHAR adieresis
ENCODING 228
SWIDTH 750 0
DWIDTH 6 0
BBX 5 7 1 0
BITMAP
50
00
70
08
78
88
78
ENDCHAR
STARTCHAR aring
ENCODING 229
SWIDTH 750 0
DWIDTH 6 0
BBX 5 7 1 0
BITMAP
20
00
70
08
78
88
78
ENDCHAR
STARTCHAR ae
ENCODING 230
SWIDTH 750 0
DWIDTH 6 0
BBX 5 5 1 0
BITMAP
D8
28
F8
A0
F8
ENDCHAR
STARTCHAR ccedilla
ENCODING 231
SWIDTH 750 0
DWIDTH 6 0
BBX 5 6 1 -1
BITMAP
70
88
80
88
70
E0
ENDCHAR
STARTCHAR egrave
ENCODING 232
SWIDTH 750 0
DWIDTH 6 0
BBX 5 7 1 0
BITMAP
40
20
70
88
F8
80
70
ENDCHAR
STARTCHAR eacute
ENCODING 233
SWIDTH 750 0
DWIDTH 6 0
BBX 5 7 1 0
BITMAP
10
20
70
88
F8
80
70
ENDCHAR
STARTCHAR ecircumflex
ENCODING 234
SWIDTH 750 0
DWIDTH 6 0
BBX 5 7 1 0
BITMAP
20
50
70
88
F8
80
70
ENDCHAR
STARTCHAR edieresis
ENCODING 235
SWIDTH 750 0
DWIDTH 6 0
BBX 5 7 1 0
BITMAP
50
00
70
88
F8
80
70
ENDCHAR
STARTCHAR igrave
ENCODING 236
SWIDTH 750 0
DWIDTH 6 0
BBX 3 7 2 0
BITMAP
80
40
C0
40
40
40
E0
ENDCHAR
STARTCHAR iacute
ENCODING 237
SWIDTH 750 0
DWIDTH 6 0
BBX 3 7 2 0
BITMAP
20
40
C0
40
40
40
E0
ENDCHAR
STARTCHAR icircumflex
ENCODING 238
SWIDTH 750 0
DWIDTH 6 0
BBX 3 7 2 0
BITMAP
40
A0
C0
40
40
40
E0
ENDCHAR
STARTCHAR idieresis
ENCODING 239
SWIDTH 750 0
DWIDTH 6 0
BBX 3 7 2 0
BITMAP
A0
00
C0
40
40
40
E0
ENDCHAR
STARTCHAR eth
ENCODING 240
SWIDTH 750 0
DWIDTH 6 0
BBX 5 7 1 0
BITMAP
A0
60
90
78
88
88
70
ENDCHAR
STARTCHAR ntilde
ENCODING 241
SWIDTH 750 0
DWIDTH 6 0
BBX 5 7 1 0
BITMAP
70
00
B0
C8
88
88
88
ENDCHAR
STARTCHAR ograve
ENCODING 242
SWIDTH 750 0
DWIDTH 6 0
BBX 5 7 1 0
BITMAP
40
20
70
88
88
88
70
ENDCHAR
STARTCHAR oacute
ENCODING 243
SWIDTH 750 0
DWIDTH 6 0
BBX 5 7 1 0
BITMAP
10
20
70
88
88
88
70
ENDCHAR
STARTCHAR ocircumflex
ENCODING 244
SWIDTH 750 0
DWIDTH 6 0
BBX 5 7 1 0
BITMAP
20
50
70
88
88
88
70
ENDCHAR
STARTCHAR otilde
ENCODING 245
SWIDTH 750 0
DWIDTH 6 0
BBX 5 7 1 0
BITMAP
70
00
70
88
88
88
70
ENDCHAR
STARTCHAR odieresis
ENCODING 246
SWIDTH 750 0
DWIDTH 6 0
BBX 5 7 1 0
BITMAP
50
00
70
88
88
88
70
ENDCHAR
STARTCHAR divide
ENCODING 247
SWIDTH 750 0
DWIDTH 6 0
BBX 5 5 1 1
BITMAP
20
00
F8
00
20
ENDCHAR
STARTCHAR oslash
ENCODING 248
SWIDTH 750 0
DWIDTH 6 0
BBX 5 5 1 0
BITMAP
78
98
A8
C8
F0
ENDCHAR
STARTCHAR ugrave
ENCODING 249
SWIDTH 750 0
DWIDTH 6 0
BBX 5 7 1 0
BITMAP
40
20
88
88
88
98
68
ENDCHAR
STARTCHAR uacute
ENCODING 250
SWIDTH 750 0
DWIDTH 6 0
BBX 5 7 1 0
BITMAP
10
20
88
88
88
98
68
ENDCHAR
STARTCHAR ucircumflex
ENCODING 251
SWIDTH 750 0
DWIDTH 6 0
BBX 5 7 1 0
BITMAP
20
50
88
88
88
98
68
ENDCHAR
STARTCHAR udieresis
ENCODING 252
SWIDTH 750 0
DWIDTH 6 0
BBX 5 7 1 0
BITMAP
50
00
88
88
88
98
68
ENDCHAR
STARTCHAR yacute
ENCODING 253
SWIDTH 750 0
DWIDTH 6 0
BBX 5 8 1 -1
BITMAP
10
20
88
88
88
78
08
70
ENDCHAR
STARTCHAR thorn
ENCODING 254
SWIDTH 750 0
DWIDTH 6 0
BBX 5 8 1 -1
BITMAP
80
80
B0
C8
88
C8
B0
80
ENDCHAR
STARTCHAR ydieresis
ENCODING 255
SWIDTH 750 0
DWIDTH 6 0
BBX 5 8 1 -1
BITMAP
50
00
88
88
88
78
08
70
ENDCHAR
STARTCHAR Amacron
ENCODING 256
SWIDTH 750 0
DWIDTH 6 0
BBX 5 7 1 0
BITMAP
F8
70
88
88
F8
88
88
ENDCHAR
STARTCHAR amacron
ENCODING 257
SWIDTH 750 0
DWIDTH 6 0
BBX 5 7 1 0
BITMAP
70
00
70
08
78
88
78
ENDCHAR
STARTCHAR Abreve
ENCODING 258
SWIDTH 750 0
DWIDTH 6 0
BBX 5 7 1 0
BITMAP
50
70
88
88
F8
88
88
ENDCHAR
STARTCHAR abreve
ENCODING 259
SWIDTH 750 0
DWIDTH 6 0
BBX 5 7 1 0
BITMAP
50
20
70
08
78
88
78
ENDCHAR
STARTCHAR Aogonek
ENCODING 260
SWIDTH 750 0
DWIDTH 6 0
BBX 5 8 1 -1
BITMAP
70
88
88
88
F8
88
90
08
ENDCHAR
STARTCHAR aogonek
ENCODING 261
SWIDTH 750 0
DWIDTH 6 0
BBX 5 6 1 -1
BITMAP
70
08
78
88
70
18
ENDCHAR
STARTCHAR Cacute
ENCODING 262
SWIDTH 750 0
DWIDTH 6 0
BBX 5 7 1 0
BITMAP
18
70
88
80
80
88
70
ENDCHAR
STARTCHAR cacute
ENCODING 263
SWIDTH 750 0
DWIDTH 6 0
BBX 5 7 1 0
BITMAP
10
20
70
88
80
88
70
ENDCHAR
STARTCHAR Ccircumflex
ENCODING 264
SWIDTH 750 0
DWIDTH 6 0
BBX 5 7 1 0
BITMAP
70
70
88
80
80
88
70
ENDCHAR
STARTCHAR ccircumflex
ENCODING 265
SWIDTH 750 0
DWIDTH 6 0
BBX 5 7 1 0
BITMAP
20
50
70
88
80
88
70
ENDCHAR
STARTCHAR Cdotaccent
ENCODING 266
SWIDTH 750 0
DWIDTH 6 0
BBX 5 7 1 0
BITMAP
20
70
88
80
80
88
70
ENDCHAR
STARTCHAR cdotaccent
ENCODING 267
SWIDTH 750 0
DWIDTH 6 0
BBX 5 7 1 0
BITMAP
20
00
70
88
80
88
70
ENDCHAR
STARTCHAR Ccaron
ENCODING 268
SWIDTH 750 0
DWIDTH 6 0
BBX 5 7 1 0
BITMAP
F8
70
88
80
80
88
70
ENDCHAR
STARTCHAR ccaron
ENCODING 269
SWIDTH 750 0
DWIDTH 6 0
BBX 5 7 1 0
BITMAP
50
20
70
88
80
88
70
ENDCHAR
STARTCHAR Dcaron
ENCODING 270
SWIDTH 750 0
DWIDTH 6 0
BBX 5 7 1 0
BITMAP
F0
E0
90
88
88
90
E0
ENDCHAR
STARTCHAR dcaron
ENCODING 271
SWIDTH 750 0
DWIDTH 6 0
BBX 5 7 1 0
BITMAP
18
18
70
90
90
90
70
ENDCHAR
STARTCHAR Dcroat
ENCODING 272
SWIDTH 750 0
DWIDTH 6 0
BBX 6 7 0 0
BITMAP
70
48
44
E4
44
48
70
ENDCHAR
STARTCHAR dcroat
ENCODING 273
SWIDTH 750 0
DWIDTH 6 0
BBX 5 7 1 0
BITMAP
08
18
68
98
88
98
68
ENDCHAR
STARTCHAR Emacron
ENCODING 274
SWIDTH 750 0
DWIDTH 6 0
BBX 5 7 1 0
BITMAP
F8
F8
80
F0
80
80
F8
ENDCHAR
STARTCHAR emacron
ENCODING 275
SWIDTH 750 0
DWIDTH 6 0
BBX 5 7 1 0
BITMAP
70
00
70
88
F8
80
70
ENDCHAR
STARTCHAR Ebreve
ENCODING 276
SWIDTH 750 0
DWIDTH 6 0
BBX 5 7 1 0
BITMAP
D8
F8
80
F0
80
80
F8
ENDCHAR
STARTCHAR ebreve
ENCODING 277
SWIDTH 750 0
DWIDTH 6 0
BBX 5 7 1 0
BITMAP
50
20
70
88
F8
80
70
ENDCHAR
STARTCHAR Edotaccent
ENCODING 278
SWIDTH 750 0
DWIDTH 6 0
BBX 5 7 1 0
BITMAP
20
F8
80
F0
80
80
F8
ENDCHAR
STARTCHAR edotaccent
ENCODING 279
SWIDTH 750 0
DWIDTH 6 0
BBX 5 7 1 0
BITMAP
20
00
70
88
F8
80
70
ENDCHAR
STARTCHAR Eogonek
ENCODING 280
SWIDTH 750 0
DWIDTH 6 0
BBX 5 8 1 -1
BITMAP
F8
80
80
F0
80
80
F8
18
ENDCHAR
STARTCHAR eogonek
ENCODING 281
SWIDTH 750 0
DWIDTH 6 0
BBX 5 6 1 -1
BITMAP
70
88
F8
80
70
18
ENDCHAR
STARTCHAR Ecaron
ENCODING 282
SWIDTH 750 0
DWIDTH 6 0
BBX 5 7 1 0
BITMAP
70
F8
80
F0
80
80
F8
ENDCHAR
STARTCHAR ecaron
ENCODING 283
SWIDTH 750 0
DWIDTH 6 0
BBX 5 7 1 0
BITMAP
50
20
70
88
F8
80
70
ENDCHAR
STARTCHAR Gcircumflex
ENCODING 284
SWIDTH 750 0
DWIDTH 6 0
BBX 5 7 1 0
BITMAP
70
70
88
80
98
88
78
ENDCHAR
STARTCHAR gcircumflex
ENCODING 285
SWIDTH 750 0
DWIDTH 6 0
BBX 5 8 1 -1
BITMAP
20
50
78
88
88
78
08
70
ENDCHAR
STARTCHAR Gbreve
ENCODING 286
SWIDTH 750 0
DWIDTH 6 0
BBX 5 7 1 0
BITMAP
50
70
88
80
98
88
78
ENDCHAR
STARTCHAR gbreve
ENCODING 287
SWIDTH 750 0
DWIDTH 6 0
BBX 5 8 1 -1
BITMAP
70
00
78
88
88
78
08
70
ENDCHAR
STARTCHAR Gdotaccent
ENCODING 288
SWIDTH 750 0
DWIDTH 6 0
BBX 5 7 1 0
BITMAP
20
70
88
80
98
88
78
ENDCHAR
STARTCHAR gdotaccent
ENCODING 289
SWIDTH 750 0
DWIDTH 6 0
BBX 5 8 1 -1
BITMAP
20
00
78
88
88
78
08
70
ENDCHAR
STARTCHAR uni0122
ENCODING 290
SWIDTH 750 0
DWIDTH 6 0
BBX 5 8 1 -1
BITMAP
70
88
80
80
98
88
78
E0
ENDCHAR
STARTCHAR uni0123
ENCODING 291
SWIDTH 750 0
DWIDTH 6 0
BBX 5 8 1 -1
BITMAP
60
20
78
88
88
78
08
70
ENDCHAR
STARTCHAR Hcircumflex
ENCODING 292
SWIDTH 750 0
DWIDTH 6 0
BBX 5 7 1 0
BITMAP
70
00
88
88
F8
88
88
ENDCHAR
STARTCHAR hcircumflex
ENCODING 293
SWIDTH 750 0
DWIDTH 6 0
BBX 5 7 1 0
BITMAP
90
A8
80
B0
C8
88
88
ENDCHAR
STARTCHAR Hbar
ENCODING 294
SWIDTH 750 0
DWIDTH 6 0
BBX 5 7 1 0
BITMAP
88
F8
88
F8
88
88
88
ENDCHAR
STARTCHAR hbar
ENCODING 295
SWIDTH 750 0
DWIDTH 6 0
BBX 6 7 0 0
BITMAP
40
F0
58
64
44
44
44
ENDCHAR
STARTCHAR Itilde
ENCODING 296
SWIDTH 750 0
DWIDTH 6 0
BBX 6 7 0 0
BITMAP
74
B8
10
10
10
10
38
ENDCHAR
STARTCHAR itilde
ENCODING 297
SWIDTH 750 0
DWIDTH 6 0
BBX 5 7 1 0
BITMAP
68
B0
60
20
20
20
70
ENDCHAR
STARTCHAR Imacron
ENCODING 298
SWIDTH 750 0
DWIDTH 6 0
BBX 5 7 1 0
BITMAP
F8
70
20
20
20
20
70
ENDCHAR
STARTCHAR imacron
ENCODING 299
SWIDTH 750 0
DWIDTH 6 0
BBX 3 7 2 0
BITMAP
E0
00
C0
40
40
40
E0
ENDCHAR
STARTCHAR Ibreve
ENCODING 300
SWIDTH 750 0
DWIDTH 6 0
BBX 5 7 1 0
BITMAP
D8
70
20
20
20
20
70
ENDCHAR
STARTCHAR ibreve
ENCODING 301
SWIDTH 750 0
DWIDTH 6 0
BBX 3 7 2 0
BITMAP
A0
40
C0
40
40
40
E0
ENDCHAR
STARTCHAR Iogonek
ENCODING 302
SWIDTH 750 0
DWIDTH 6 0
BBX 4 7 2 -1
BITMAP
E0
40
40
40
40
E0
30
ENDCHAR
STARTCHAR iogonek
ENCODING 303
SWIDTH 750 0
DWIDTH 6 0
BBX 4 8 2 -1
BITMAP
40
00
C0
40
40
40
E0
30
ENDCHAR
STARTCHAR Idotaccent
ENCODING 304
SWIDTH 750 0
DWIDTH 6 0
BBX 3 7 2 0
BITMAP
40
E0
40
40
40
40
E0
ENDCHAR
STARTCHAR dotlessi
ENCODING 305
SWIDTH 750 0
DWIDTH 6 0
BBX 3 5 2 0
BITMAP
C0
40
40
40
E0
ENDCHAR
STARTCHAR IJ
ENCODING 306
SWIDTH 750 0
DWIDTH 6 0
BBX 5 7 1 0
BITMAP
88
88
88
88
A8
A8
B0
ENDCHAR
STARTCHAR ij
ENCODING 307
SWIDTH 750 0
DWIDTH 6 0
BBX 5 8 1 -1
BITMAP
88
00
98
88
88
88
A8
30
ENDCHAR
STARTCHAR Jcircumflex
ENCODING 308
SWIDTH 750 0
DWIDTH 6 0
BBX 5 7 1 0
BITMAP
48
A8
08
08
88
88
70
ENDCHAR
STARTCHAR jcircumflex
ENCODING 309
SWIDTH 750 0
DWIDTH 6 0
BBX 5 8 1 -1
BITMAP
10
28
30
10
10
10
90
60
ENDCHAR
STARTCHAR uni0136
ENCODING 310
SWIDTH 750 0
DWIDTH 6 0
BBX 5 8 1 -1
BITMAP
88
90
A0
C0
A0
90
A8
60
ENDCHAR
STARTCHAR uni0137
ENCODING 311
SWIDTH 750 0
DWIDTH 6 0
BBX 5 8 1 -1
BITMAP
40
40
48
50
60
50
48
C0
ENDCHAR
STARTCHAR kgreenlandic
ENCODING 312
SWIDTH 750 0
DWIDTH 6 0
BBX 5 5 1 0
BITMAP
C8
50
60
50
C8
ENDCHAR
STARTCHAR Lacute
ENCODING 313
SWIDTH 750 0
DWIDTH 6 0
BBX 5 7 1 0
BITMAP
40
80
80
80
80
80
F8
ENDCHAR
STARTCHAR lacute
ENCODING 314
SWIDTH 750 0
DWIDTH 6 0
BBX 3 7 2 0
BITMAP
20
C0
40
40
40
40
E0
ENDCHAR
STARTCHAR uni013B
ENCODING 315
SWIDTH 750 0
DWIDTH 6 0
BBX 5 8 1 -1
BITMAP
80
80
80
80
80
80
F8
60
ENDCHAR
STARTCHAR uni013C
ENCODING 316
SWIDTH 750 0
DWIDTH 6 0
BBX 4 8 1 -1
BITMAP
60
20
20
20
20
20
70
C0
ENDCHAR
STARTCHAR Lcaron
ENCODING 317
SWIDTH 750 0
DWIDTH 6 0
BBX 5 7 1 0
BITMAP
A0
A0
80
80
80
80
F8
ENDCHAR
STARTCHAR lcaron
ENCODING 318
SWIDTH 750 0
DWIDTH 6 0
BBX 4 7 2 0
BITMAP
D0
50
40
40
40
40
E0
ENDCHAR
STARTCHAR Ldot
ENCODING 319
SWIDTH 750 0
DWIDTH 6 0
BBX 5 7 1 0
BITMAP
80
80
80
90
80
80
F8
ENDCHAR
STARTCHAR ldot
ENCODING 320
SWIDTH 750 0
DWIDTH 6 0
BBX 4 7 2 0
BITMAP
C0
40
40
50
40
40
E0
ENDCHAR
STARTCHAR Lslash
ENCODING 321
SWIDTH 750 0
DWIDTH 6 0
BBX 6 7 0 0
BITMAP
40
40
60
40
C0
40
7C
ENDCHAR
STARTCHAR lslash
ENCODING 322
SWIDTH 750 0
DWIDTH 6 0
BBX 3 7 2 0
BITMAP
C0
40
60
40
C0
40
E0
ENDCHAR
STARTCHAR Nacute
ENCODING 323
SWIDTH 750 0
DWIDTH 6 0
BBX 5 7 1 0
BITMAP
10
A8
C8
E8
B8
98
88
ENDCHAR
STARTCHAR nacute
ENCODING 324
SWIDTH 750 0
DWIDTH 6 0
BBX 5 7 1 0
BITMAP
10
20
B0
C8
88
88
88
ENDCHAR
STARTCHAR uni0145
ENCODING 325
SWIDTH 750 0
DWIDTH 6 0
BBX 5 8 1 -1
BITMAP
88
C8
C8
A8
98
98
A8
60
ENDCHAR
STARTCHAR uni0146
ENCODING 326
SWIDTH 750 0
DWIDTH 6 0
BBX 5 6 1 -1
BITMAP
B0
C8
88
88
A8
60
ENDCHAR
STARTCHAR Ncaron
ENCODING 327
SWIDTH 750 0
DWIDTH 6 0
BBX 5 7 1 0
BITMAP
50
A8
C8
E8
B8
98
88
ENDCHAR
STARTCHAR ncaron
ENCODING 328
SWIDTH 750 0
DWIDTH 6 0
BBX 5 7 1 0
BITMAP
50
20
B0
C8
88
88
88
ENDCHAR
STARTCHAR napostrophe
ENCODING 329
SWIDTH 750 0
DWIDTH 6 0
BBX 6 7 0 0
BITMAP
40
80
58
64
44
44
44
ENDCHAR
STARTCHAR Eng
ENCODING 330
SWIDTH 750 0
DWIDTH 6 0
BBX 5 8 1 -1
BITMAP
88
C8
C8
A8
98
98
88
30
ENDCHAR
STARTCHAR eng
ENCODING 331
SWIDTH 750 0
DWIDTH 6 0
BBX 5 6 1 -1
BITMAP
B0
C8
88
88
88
30
ENDCHAR
STARTCHAR Omacron
ENCODING 332
SWIDTH 750 0
DWIDTH 6 0
BBX 5 7 1 0
BITMAP
F8
70
88
88
88
88
70
ENDCHAR
STARTCHAR omacron
ENCODING 333
SWIDTH 750 0
DWIDTH 6 0
BBX 5 7 1 0
BITMAP
70
00
70
88
88
88
70
ENDCHAR
STARTCHAR Obreve
ENCODING 334
SWIDTH 750 0
DWIDTH 6 0
BBX 5 7 1 0
BITMAP
D8
70
88
88
88
88
70
ENDCHAR
STARTCHAR obreve
ENCODING 335
SWIDTH 750 0
DWIDTH 6 0
BBX 5 7 1 0
BITMAP
50
20
70
88
88
88
70
ENDCHAR
STARTCHAR Ohungarumlaut
ENCODING 336
SWIDTH 750 0
DWIDTH 6 0
BBX 6 7 0 0
BITMAP
44
B8
44
44
44
44
38
ENDCHAR
STARTCHAR ohungarumlaut
ENCODING 337
SWIDTH 750 0
DWIDTH 6 0
BBX 5 7 1 0
BITMAP
48
90
70
88
88
88
70
ENDCHAR
STARTCHAR OE
ENCODING 338
SWIDTH 750 0
DWIDTH 6 0
BBX 5 7 1 0
BITMAP
58
A0
A0
B8
A0
A0
58
ENDCHAR
STARTCHAR oe
ENCODING 339
SWIDTH 750 0
DWIDTH 6 0
BBX 5 5 1 0
BITMAP
58
A8
B8
A0
58
ENDCHAR
STARTCHAR Racute
ENCODING 340
SWIDTH 750 0
DWIDTH 6 0
BBX 5 7 1 0
BITMAP
18
F0
88
88
F0
90
88
ENDCHAR
STARTCHAR racute
ENCODING 341
SWIDTH 750 0
DWIDTH 6 0
BBX 5 7 1 0
BITMAP
10
20
B0
48
40
40
E0
ENDCHAR
STARTCHAR uni0156
ENCODING 342
SWIDTH 750 0
DWIDTH 6 0
BBX 5 8 1 -1
BITMAP
F0
88
88
F0
90
88
A8
60
ENDCHAR
STARTCHAR uni0157
ENCODING 343
SWIDTH 750 0
DWIDTH 6 0
BBX 6 6 0 -1
BITMAP
58
24
20
20
70
C0
ENDCHAR
STARTCHAR Rcaron
ENCODING 344
SWIDTH 750 0
DWIDTH 6 0
BBX 5 7 1 0
BITMAP
70
F0
88
88
F0
90
88
ENDCHAR
STARTCHAR rcaron
ENCODING 345
SWIDTH 750 0
DWIDTH 6 0
BBX 5 7 1 0
BITMAP
50
20
B0
48
40
40
E0
ENDCHAR
STARTCHAR Sacute
ENCODING 346
SWIDTH 750 0
DWIDTH 6 0
BBX 5 7 1 0
BITMAP
18
70
88
60
18
88
70
ENDCHAR
STARTCHAR sacute
ENCODING 347
SWIDTH 750 0
DWIDTH 6 0
BBX 5 7 1 0
BITMAP
10
20
78
80
70
08
F0
ENDCHAR
STARTCHAR Scircumflex
ENCODING 348
SWIDTH 750 0
DWIDTH 6 0
BBX 5 7 1 0
BITMAP
70
70
88
60
18
88
70
ENDCHAR
STARTCHAR scircumflex
ENCODING 349
SWIDTH 750 0
DWIDTH 6 0
BBX 5 7 1 0
BITMAP
20
50
78
80
70
08
F0
ENDCHAR
STARTCHAR Scedilla
ENCODING 350
SWIDTH 750 0
DWIDTH 6 0
BBX 5 8 1 -1
BITMAP
70
88
80
70
08
88
70
E0
ENDCHAR
STARTCHAR scedilla
ENCODING 351
SWIDTH 750 0
DWIDTH 6 0
BBX 6 6 0 -1
BITMAP
3C
40
38
04
78
E0
ENDCHAR
STARTCHAR Scaron
ENCODING 352
SWIDTH 750 0
DWIDTH 6 0
BBX 5 7 1 0
BITMAP
70
70
88
60
18
88
70
ENDCHAR
STARTCHAR scaron
ENCODING 353
SWIDTH 750 0
DWIDTH 6 0
BBX 5 7 1 0
BITMAP
50
20
78
80
70
08
F0
ENDCHAR
STARTCHAR uni0162
ENCODING 354
SWIDTH 750 0
DWIDTH 6 0
BBX 5 8 1 -1
BITMAP
F8
20
20
20
20
20
20
C0
ENDCHAR
STARTCHAR uni0163
ENCODING 355
SWIDTH 750 0
DWIDTH 6 0
BBX 5 8 1 -1
BITMAP
40
40
E0
40
40
48
30
E0
ENDCHAR
STARTCHAR Tcaron
ENCODING 356
SWIDTH 750 0
DWIDTH 6 0
BBX 5 7 1 0
BITMAP
70
F8
20
20
20
20
20
ENDCHAR
STARTCHAR tcaron
ENCODING 357
SWIDTH 750 0
DWIDTH 6 0
BBX 5 7 1 0
BITMAP
48
48
E0
40
40
48
30
ENDCHAR
STARTCHAR Tbar
ENCODING 358
SWIDTH 750 0
DWIDTH 6 0
BBX 5 7 1 0
BITMAP
F8
20
20
70
20
20
20
ENDCHAR
STARTCHAR tbar
ENCODING 359
SWIDTH 750 0
DWIDTH 6 0
BBX 5 7 1 0
BITMAP
40
40
E0
40
E0
48
30
ENDCHAR
STARTCHAR Utilde
ENCODING 360
SWIDTH 750 0
DWIDTH 6 0
BBX 6 7 0 0
BITMAP
68
B4
44
44
44
44
38
ENDCHAR
STARTCHAR utilde
ENCODING 361
SWIDTH 750 0
DWIDTH 6 0
BBX 5 7 1 0
BITMAP
68
50
88
88
88
98
68
ENDCHAR
STARTCHAR Umacron
ENCODING 362
SWIDTH 750 0
DWIDTH 6 0
BBX 5 7 1 0
BITMAP
F8
00
88
88
88
88
70
ENDCHAR
STARTCHAR umacron
ENCODING 363
SWIDTH 750 0
DWIDTH 6 0
BBX 5 7 1 0
BITMAP
70
00
88
88
88
98
68
ENDCHAR
STARTCHAR Ubreve
ENCODING 364
SWIDTH 750 0
DWIDTH 6 0
BBX 5 7 1 0
BITMAP
50
A8
88
88
88
88
70
ENDCHAR
STARTCHAR ubreve
ENCODING 365
SWIDTH 750 0
DWIDTH 6 0
BBX 5 7 1 0
BITMAP
50
20
88
88
88
98
68
ENDCHAR
STARTCHAR Uring
ENCODING 366
SWIDTH 750 0
DWIDTH 6 0
BBX 5 7 1 0
BITMAP
A8
88
88
88
88
88
70
ENDCHAR
STARTCHAR uring
ENCODING 367
SWIDTH 750 0
DWIDTH 6 0
BBX 5 7 1 0
BITMAP
20
00
88
88
88
98
68
ENDCHAR
STARTCHAR Uhungarumlaut
ENCODING 368
SWIDTH 750 0
DWIDTH 6 0
BBX 6 7 0 0
BITMAP
44
88
44
44
44
44
38
ENDCHAR
STARTCHAR uhungarumlaut
ENCODING 369
SWIDTH 750 0
DWIDTH 6 0
BBX 5 7 1 0
BITMAP
28
50
88
88
88
98
68
ENDCHAR
STARTCHAR Uogonek
ENCODING 370
SWIDTH 750 0
DWIDTH 6 0
BBX 5 8 1 -1
BITMAP
88
88
88
88
88
88
70
18
ENDCHAR
STARTCHAR uogonek
ENCODING 371
SWIDTH 750 0
DWIDTH 6 0
BBX 5 6 1 -1
BITMAP
88
88
88
88
70
18
ENDCHAR
STARTCHAR Wcircumflex
ENCODING 372
SWIDTH 750 0
DWIDTH 6 0
BBX 5 7 1 0
BITMAP
A8
D8
88
A8
A8
D8
88
ENDCHAR
STARTCHAR wcircumflex
ENCODING 373
SWIDTH 750 0
DWIDTH 6 0
BBX 5 7 1 0
BITMAP
20
50
88
88
A8
A8
50
ENDCHAR
STARTCHAR Ycircumflex
ENCODING 374
SWIDTH 750 0
DWIDTH 6 0
BBX 5 7 1 0
BITMAP
70
88
50
70
20
20
20
ENDCHAR
STARTCHAR ycircumflex
ENCODING 375
SWIDTH 750 0
DWIDTH 6 0
BBX 5 8 1 -1
BITMAP
20
50
88
88
88
78
08
70
ENDCHAR
STARTCHAR Ydieresis
ENCODING 376
SWIDTH 750 0
DWIDTH 6 0
BBX 5 7 1 0
BITMAP
50
88
50
70
20
20
20
ENDCHAR
STARTCHAR Zacute
ENCODING 377
SWIDTH 750 0
DWIDTH 6 0
BBX 5 7 1 0
BITMAP
18
F8
10
20
40
80
F8
ENDCHAR
STARTCHAR zacute
ENCODING 378
SWIDTH 750 0
DWIDTH 6 0
BBX 4 7 1 0
BITMAP
10
20
F0
10
20
40
F0
ENDCHAR
STARTCHAR Zdotaccent
ENCODING 379
SWIDTH 750 0
DWIDTH 6 0
BBX 5 7 0 0
BITMAP
20
F8
10
20
40
80
F8
ENDCHAR
STARTCHAR zdotaccent
ENCODING 380
SWIDTH 750 0
DWIDTH 6 0
BBX 5 7 0 0
BITMAP
20
00
F8
10
20
40
F8
ENDCHAR
STARTCHAR Zcaron
ENCODING 381
SWIDTH 750 0
DWIDTH 6 0
BBX 5 7 1 0
BITMAP
70
F8
10
20
40
80
F8
ENDCHAR
STARTCHAR zcaron
ENCODING 382
SWIDTH 750 0
DWIDTH 6 0
BBX 5 7 1 0
BITMAP
50
20
F8
10
20
40
F8
ENDCHAR
STARTCHAR longs
ENCODING 383
SWIDTH 750 0
DWIDTH 6 0
BBX 4 7 2 0
BITMAP
60
90
80
80
80
80
80
ENDCHAR
STARTCHAR florin
ENCODING 402
SWIDTH 750 0
DWIDTH 6 0
BBX 5 8 1 -1
BITMAP
10
28
20
70
20
20
A0
40
ENDCHAR
STARTCHAR ohorn
ENCODING 417
SWIDTH 750 0
DWIDTH 6 0
BBX 5 5 1 0
BITMAP
78
90
88
88
70
ENDCHAR
STARTCHAR uni01B7
ENCODING 439
SWIDTH 750 0
DWIDTH 6 0
BBX 5 7 1 0
BITMAP
F8
88
10
30
08
88
70
ENDCHAR
STARTCHAR Aringacute
ENCODING 506
SWIDTH 750 0
DWIDTH 6 0
BBX 5 7 1 0
BITMAP
38
50
A8
88
F8
88
88
ENDCHAR
STARTCHAR aringacute
ENCODING 507
SWIDTH 750 0
DWIDTH 6 0
BBX 5 7 1 0
BITMAP
78
60
70
08
78
88
78
ENDCHAR
STARTCHAR AEacute
ENCODING 508
SWIDTH 750 0
DWIDTH 6 0
BBX 5 7 1 0
BITMAP
18
78
A0
F8
A0
A0
B8
ENDCHAR
STARTCHAR aeacute
ENCODING 509
SWIDTH 750 0
DWIDTH 6 0
BBX 5 7 1 0
BITMAP
10
20
D8
28
F8
A0
F8
ENDCHAR
STARTCHAR Oslashacute
ENCODING 510
SWIDTH 750 0
DWIDTH 6 0
BBX 6 7 0 0
BITMAP
1C
38
4C
54
64
44
B8
ENDCHAR
STARTCHAR oslashacute
ENCODING 511
SWIDTH 750 0
DWIDTH 6 0
BBX 5 7 1 0
BITMAP
10
20
78
98
A8
C8
F0
ENDCHAR
STARTCHAR uni0218
ENCODING 536
SWIDTH 750 0
DWIDTH 6 0
BBX 5 8 1 -1
BITMAP
70
88
80
70
08
88
70
20
ENDCHAR
STARTCHAR uni0219
ENCODING 537
SWIDTH 750 0
DWIDTH 6 0
BBX 5 6 1 -1
BITMAP
78
80
70
08
F0
20
ENDCHAR
STARTCHAR uni021A
ENCODING 538
SWIDTH 750 0
DWIDTH 6 0
BBX 5 8 1 -1
BITMAP
F8
20
20
20
20
20
20
40
ENDCHAR
STARTCHAR uni021B
ENCODING 539
SWIDTH 750 0
DWIDTH 6 0
BBX 5 8 1 -1
BITMAP
40
40
E0
40
40
48
30
40
ENDCHAR
STARTCHAR uni0251
ENCODING 593
SWIDTH 750 0
DWIDTH 6 0
BBX 5 5 1 0
BITMAP
68
90
90
90
68
ENDCHAR
STARTCHAR uni0278
ENCODING 632
SWIDTH 750 0
DWIDTH 6 0
BBX 5 7 1 0
BITMAP
70
70
A8
A8
A8
70
70
ENDCHAR
STARTCHAR circumflex
ENCODING 710
SWIDTH 750 0
DWIDTH 6 0
BBX 3 2 2 5
BITMAP
40
A0
ENDCHAR
STARTCHAR caron
ENCODING 711
SWIDTH 750 0
DWIDTH 6 0
BBX 3 2 1 5
BITMAP
A0
40
ENDCHAR
STARTCHAR uni02C9
ENCODING 713
SWIDTH 750 0
DWIDTH 6 0
BBX 5 1 1 6
BITMAP
F8
ENDCHAR
STARTCHAR breve
ENCODING 728
SWIDTH 750 0
DWIDTH 6 0
BBX 3 1 2 6
BITMAP
E0
ENDCHAR
STARTCHAR dotaccent
ENCODING 729
SWIDTH 750 0
DWIDTH 6 0
BBX 1 1 3 5
BITMAP
80
ENDCHAR
STARTCHAR ring
ENCODING 730
SWIDTH 750 0
DWIDTH 6 0
BBX 1 1 3 6
BITMAP
80
ENDCHAR
STARTCHAR ogonek
ENCODING 731
SWIDTH 750 0
DWIDTH 6 0
BBX 2 1 4 -1
BITMAP
C0
ENDCHAR
STARTCHAR tilde
ENCODING 732
SWIDTH 750 0
DWIDTH 6 0
BBX 5 2 1 5
BITMAP
68
B0
ENDCHAR
STARTCHAR hungarumlaut
ENCODING 733
SWIDTH 750 0
DWIDTH 6 0
BBX 5 2 1 5
BITMAP
48
90
ENDCHAR
STARTCHAR uni037E
ENCODING 894
SWIDTH 750 0
DWIDTH 6 0
BBX 2 6 2 -1
BITMAP
C0
C0
00
C0
40
80
ENDCHAR
STARTCHAR tonos
ENCODING 900
SWIDTH 750 0
DWIDTH 6 0
BBX 2 2 3 5
BITMAP
40
80
ENDCHAR
STARTCHAR dieresistonos
ENCODING 901
SWIDTH 750 0
DWIDTH 6 0
BBX 5 2 1 5
BITMAP
20
A8
ENDCHAR
STARTCHAR Alphatonos
ENCODING 902
SWIDTH 750 0
DWIDTH 6 0
BBX 5 7 1 0
BITMAP
C0
70
88
88
F8
88
88
ENDCHAR
STARTCHAR anoteleia
ENCODING 903
SWIDTH 750 0
DWIDTH 6 0
BBX 1 1 2 3
BITMAP
80
ENDCHAR
STARTCHAR Epsilontonos
ENCODING 904
SWIDTH 750 0
DWIDTH 6 0
BBX 5 7 1 0
BITMAP
C0
F8
80
F0
80
80
F8
ENDCHAR
STARTCHAR Etatonos
ENCODING 905
SWIDTH 750 0
DWIDTH 6 0
BBX 5 7 1 0
BITMAP
C0
C8
88
F8
88
88
88
ENDCHAR
STARTCHAR Iotatonos
ENCODING 906
SWIDTH 750 0
DWIDTH 6 0
BBX 4 7 1 0
BITMAP
C0
F0
20
20
20
20
70
ENDCHAR
STARTCHAR Omicrontonos
ENCODING 908
SWIDTH 750 0
DWIDTH 6 0
BBX 5 7 1 0
BITMAP
C0
70
88
88
88
88
70
ENDCHAR
STARTCHAR Upsilontonos
ENCODING 910
SWIDTH 750 0
DWIDTH 6 0
BBX 5 7 1 0
BITMAP
C0
88
50
70
20
20
20
ENDCHAR
STARTCHAR Omegatonos
ENCODING 911
SWIDTH 750 0
DWIDTH 6 0
BBX 5 7 1 0
BITMAP
C0
70
88
88
88
50
D8
ENDCHAR
STARTCHAR iotadieresistonos
ENCODING 912
SWIDTH 750 0
DWIDTH 6 0
BBX 5 7 1 0
BITMAP
A8
20
60
20
20
20
10
ENDCHAR
STARTCHAR Alpha
ENCODING 913
SWIDTH 750 0
DWIDTH 6 0
BBX 5 7 1 0
BITMAP
70
88
88
88
F8
88
88
ENDCHAR
STARTCHAR Beta
ENCODING 914
SWIDTH 750 0
DWIDTH 6 0
BBX 5 7 1 0
BITMAP
F0
88
88
F0
88
88
F0
ENDCHAR
STARTCHAR Gamma
ENCODING 915
SWIDTH 750 0
DWIDTH 6 0
BBX 5 7 1 0
BITMAP
F8
80
80
80
80
80
80
ENDCHAR
STARTCHAR uni0394
ENCODING 916
SWIDTH 750 0
DWIDTH 6 0
BBX 5 7 1 0
BITMAP
20
50
50
88
88
88
F8
ENDCHAR
STARTCHAR Epsilon
ENCODING 917
SWIDTH 750 0
DWIDTH 6 0
BBX 5 7 1 0
BITMAP
F8
80
80
F0
80
80
F8
ENDCHAR
STARTCHAR Zeta
ENCODING 918
SWIDTH 750 0
DWIDTH 6 0
BBX 5 7 1 0
BITMAP
F8
08
10
20
40
80
F8
ENDCHAR
STARTCHAR Eta
ENCODING 919
SWIDTH 750 0
DWIDTH 6 0
BBX 5 7 1 0
BITMAP
88
88
88
F8
88
88
88
ENDCHAR
STARTCHAR Theta
ENCODING 920
SWIDTH 750 0
DWIDTH 6 0
BBX 5 7 1 0
BITMAP
70
88
88
F8
88
88
70
ENDCHAR
STARTCHAR Iota
ENCODING 921
SWIDTH 750 0
DWIDTH 6 0
BBX 3 7 2 0
BITMAP
E0
40
40
40
40
40
E0
ENDCHAR
STARTCHAR Kappa
ENCODING 922
SWIDTH 750 0
DWIDTH 6 0
BBX 5 7 1 0
BITMAP
88
90
A0
C0
A0
90
88
ENDCHAR
STARTCHAR Lambda
ENCODING 923
SWIDTH 750 0
DWIDTH 6 0
BBX 5 7 1 0
BITMAP
20
50
50
88
88
88
88
ENDCHAR
STARTCHAR Mu
ENCODING 924
SWIDTH 750 0
DWIDTH 6 0
BBX 5 7 1 0
BITMAP
88
D8
D8
A8
A8
88
88
ENDCHAR
STARTCHAR Nu
ENCODING 925
SWIDTH 750 0
DWIDTH 6 0
BBX 5 7 1 0
BITMAP
88
C8
C8
A8
98
98
88
ENDCHAR
STARTCHAR Xi
ENCODING 926
SWIDTH 750 0
DWIDTH 6 0
BBX 5 7 1 0
BITMAP
F8
88
00
70
00
88
F8
ENDCHAR
STARTCHAR Omicron
ENCODING 927
SWIDTH 750 0
DWIDTH 6 0
BBX 5 7 1 0
BITMAP
70
88
88
88
88
88
70
ENDCHAR
STARTCHAR Pi
ENCODING 928
SWIDTH 750 0
DWIDTH 6 0
BBX 6 7 0 0
BITMAP
FC
48
48
48
48
48
48
ENDCHAR
STARTCHAR Rho
ENCODING 929
SWIDTH 750 0
DWIDTH 6 0
BBX 5 7 1 0
BITMAP
F0
88
88
F0
80
80
80
ENDCHAR
STARTCHAR Sigma
ENCODING 931
SWIDTH 750 0
DWIDTH 6 0
BBX 5 7 1 0
BITMAP
F8
80
40
20
40
80
F8
ENDCHAR
STARTCHAR Tau
ENCODING 932
SWIDTH 750 0
DWIDTH 6 0
BBX 5 7 1 0
BITMAP
F8
20
20
20
20
20
20
ENDCHAR
STARTCHAR Upsilon
ENCODING 933
SWIDTH 750 0
DWIDTH 6 0
BBX 5 7 1 0
BITMAP
88
88
50
70
20
20
20
ENDCHAR
STARTCHAR Phi
ENCODING 934
SWIDTH 750 0
DWIDTH 6 0
BBX 5 7 1 0
BITMAP
70
70
A8
A8
A8
70
70
ENDCHAR
STARTCHAR Chi
ENCODING 935
SWIDTH 750 0
DWIDTH 6 0
BBX 5 7 1 0
BITMAP
88
88
50
20
50
88
88
ENDCHAR
STARTCHAR Psi
ENCODING 936
SWIDTH 750 0
DWIDTH 6 0
BBX 5 7 1 0
BITMAP
A8
A8
A8
70
20
20
20
ENDCHAR
STARTCHAR uni03A9
ENCODING 937
SWIDTH 750 0
DWIDTH 6 0
BBX 5 7 1 0
BITMAP
70
88
88
88
88
50
D8
ENDCHAR
STARTCHAR Iotadieresis
ENCODING 938
SWIDTH 750 0
DWIDTH 6 0
BBX 3 7 2 0
BITMAP
A0
E0
40
40
40
40
E0
ENDCHAR
STARTCHAR Upsilondieresis
ENCODING 939
SWIDTH 750 0
DWIDTH 6 0
BBX 5 7 1 0
BITMAP
50
88
50
70
20
20
20
ENDCHAR
STARTCHAR alphatonos
ENCODING 940
SWIDTH 750 0
DWIDTH 6 0
BBX 5 7 1 0
BITMAP
10
20
68
90
90
90
68
ENDCHAR
STARTCHAR epsilontonos
ENCODING 941
SWIDTH 750 0
DWIDTH 6 0
BBX 5 7 1 0
BITMAP
10
20
78
80
70
80
78
ENDCHAR
STARTCHAR etatonos
ENCODING 942
SWIDTH 750 0
DWIDTH 6 0
BBX 5 8 1 -1
BITMAP
10
20
B0
C8
88
88
88
08
ENDCHAR
STARTCHAR iotatonos
ENCODING 943
SWIDTH 750 0
DWIDTH 6 0
BBX 3 7 2 0
BITMAP
20
40
C0
40
40
40
20
ENDCHAR
STARTCHAR upsilondieresistonos
ENCODING 944
SWIDTH 750 0
DWIDTH 6 0
BBX 5 7 1 0
BITMAP
A8
20
88
88
88
88
70
ENDCHAR
STARTCHAR alpha
ENCODING 945
SWIDTH 750 0
DWIDTH 6 0
BBX 5 5 1 0
BITMAP
68
90
90
90
68
ENDCHAR
STARTCHAR beta
ENCODING 946
SWIDTH 750 0
DWIDTH 6 0
BBX 6 6 0 0
BITMAP
38
44
58
44
44
D8
ENDCHAR
STARTCHAR gamma
ENCODING 947
SWIDTH 750 0
DWIDTH 6 0
BBX 5 6 1 -1
BITMAP
88
88
50
50
20
20
ENDCHAR
STARTCHAR delta
ENCODING 948
SWIDTH 750 0
DWIDTH 6 0
BBX 5 7 1 0
BITMAP
30
48
70
88
88
88
70
ENDCHAR
STARTCHAR epsilon
ENCODING 949
SWIDTH 750 0
DWIDTH 6 0
BBX 5 5 1 0
BITMAP
78
80
70
80
78
ENDCHAR
STARTCHAR zeta
ENCODING 950
SWIDTH 750 0
DWIDTH 6 0
BBX 5 8 1 -1
BITMAP
F8
20
40
80
80
78
08
10
ENDCHAR
STARTCHAR eta
ENCODING 951
SWIDTH 750 0
DWIDTH 6 0
BBX 5 6 1 -1
BITMAP
B0
C8
88
88
88
08
ENDCHAR
STARTCHAR theta
ENCODING 952
SWIDTH 750 0
DWIDTH 6 0
BBX 4 7 1 0
BITMAP
60
90
90
F0
90
90
60
ENDCHAR
STARTCHAR iota
ENCODING 953
SWIDTH 750 0
DWIDTH 6 0
BBX 3 5 2 0
BITMAP
C0
40
40
40
20
ENDCHAR
STARTCHAR kappa
ENCODING 954
SWIDTH 750 0
DWIDTH 6 0
BBX 5 5 1 0
BITMAP
90
A0
C0
A0
98
ENDCHAR
STARTCHAR lambda
ENCODING 955
SWIDTH 750 0
DWIDTH 6 0
BBX 5 7 1 0
BITMAP
40
20
20
30
50
48
88
ENDCHAR
STARTCHAR uni03BC
ENCODING 956
SWIDTH 750 0
DWIDTH 6 0
BBX 5 6 1 -1
BITMAP
88
88
88
88
F8
80
ENDCHAR
STARTCHAR nu
ENCODING 957
SWIDTH 750 0
DWIDTH 6 0
BBX 5 5 1 0
BITMAP
88
88
88
50
20
ENDCHAR
STARTCHAR xi
ENCODING 958
SWIDTH 750 0
DWIDTH 6 0
BBX 5 8 1 -1
BITMAP
F8
40
80
70
80
78
08
10
ENDCHAR
STARTCHAR omicron
ENCODING 959
SWIDTH 750 0
DWIDTH 6 0
BBX 5 5 1 0
BITMAP
70
88
88
88
70
ENDCHAR
STARTCHAR pi
ENCODING 960
SWIDTH 750 0
DWIDTH 6 0
BBX 6 5 0 0
BITMAP
FC
48
48
48
48
ENDCHAR
STARTCHAR rho
ENCODING 961
SWIDTH 750 0
DWIDTH 6 0
BBX 5 6 1 -1
BITMAP
70
88
88
F0
80
80
ENDCHAR
STARTCHAR sigma1
ENCODING 962
SWIDTH 750 0
DWIDTH 6 0
BBX 5 6 1 -1
BITMAP
70
88
80
78
08
10
ENDCHAR
STARTCHAR sigma
ENCODING 963
SWIDTH 750 0
DWIDTH 6 0
BBX 5 5 1 0
BITMAP
78
90
88
88
70
ENDCHAR
STARTCHAR tau
ENCODING 964
SWIDTH 750 0
DWIDTH 6 0
BBX 5 5 1 0
BITMAP
68
B0
20
20
20
ENDCHAR
STARTCHAR upsilon
ENCODING 965
SWIDTH 750 0
DWIDTH 6 0
BBX 5 5 1 0
BITMAP
88
88
88
88
70
ENDCHAR
STARTCHAR phi
ENCODING 966
SWIDTH 750 0
DWIDTH 6 0
BBX 5 6 1 -1
BITMAP
B0
A8
A8
70
20
20
ENDCHAR
STARTCHAR chi
ENCODING 967
SWIDTH 750 0
DWIDTH 6 0
BBX 5 5 1 0
BITMAP
88
50
20
50
88
ENDCHAR
STARTCHAR psi
ENCODING 968
SWIDTH 750 0
DWIDTH 6 0
BBX 5 6 1 -1
BITMAP
A8
A8
A8
70
20
20
ENDCHAR
STARTCHAR omega
ENCODING 969
SWIDTH 750 0
DWIDTH 6 0
BBX 5 5 1 0
BITMAP
88
A8
A8
A8
50
ENDCHAR
STARTCHAR iotadieresis
ENCODING 970
SWIDTH 750 0
DWIDTH 6 0
BBX 3 7 2 0
BITMAP
A0
00
C0
40
40
40
20
ENDCHAR
STARTCHAR upsilondieresis
ENCODING 971
SWIDTH 750 0
DWIDTH 6 0
BBX 5 7 1 0
BITMAP
50
00
88
88
88
88
70
ENDCHAR
STARTCHAR omicrontonos
ENCODING 972
SWIDTH 750 0
DWIDTH 6 0
BBX 5 7 1 0
BITMAP
10
20
70
88
88
88
70
ENDCHAR
STARTCHAR upsilontonos
ENCODING 973
SWIDTH 750 0
DWIDTH 6 0
BBX 5 7 1 0
BITMAP
10
20
88
88
88
88
70
ENDCHAR
STARTCHAR omegatonos
ENCODING 974
SWIDTH 750 0
DWIDTH 6 0
BBX 5 7 1 0
BITMAP
10
20
88
A8
A8
A8
50
ENDCHAR
STARTCHAR uni03D0
ENCODING 976
SWIDTH 750 0
DWIDTH 6 0
BBX 6 6 0 0
BITMAP
38
44
58
44
44
D8
ENDCHAR
STARTCHAR uni03F4
ENCODING 1012
SWIDTH 750 0
DWIDTH 6 0
BBX 5 7 1 0
BITMAP
70
88
88
F8
88
88
70
ENDCHAR
STARTCHAR uni0400
ENCODING 1024
SWIDTH 750 0
DWIDTH 6 0
BBX 5 7 1 0
BITMAP
E0
F8
80
F0
80
80
F8
ENDCHAR
STARTCHAR uni0401
ENCODING 1025
SWIDTH 750 0
DWIDTH 6 0
BBX 5 7 1 0
BITMAP
50
F8
80
F0
80
80
F8
ENDCHAR
STARTCHAR uni0402
ENCODING 1026
SWIDTH 750 0
DWIDTH 6 0
BBX 6 7 0 0
BITMAP
F0
40
58
64
44
44
58
ENDCHAR
STARTCHAR uni0403
ENCODING 1027
SWIDTH 750 0
DWIDTH 6 0
BBX 5 7 1 0
BITMAP
30
F8
80
80
80
80
80
ENDCHAR
STARTCHAR uni0404
ENCODING 1028
SWIDTH 750 0
DWIDTH 6 0
BBX 5 7 1 0
BITMAP
70
88
80
F0
80
88
70
ENDCHAR
STARTCHAR uni0405
ENCODING 1029
SWIDTH 750 0
DWIDTH 6 0
BBX 5 7 1 0
BITMAP
70
88
80
70
08
88
70
ENDCHAR
STARTCHAR uni0406
ENCODING 1030
SWIDTH 750 0
DWIDTH 6 0
BBX 3 7 2 0
BITMAP
E0
40
40
40
40
40
E0
ENDCHAR
STARTCHAR uni0407
ENCODING 1031
SWIDTH 750 0
DWIDTH 6 0
BBX 3 7 2 0
BITMAP
A0
E0
40
40
40
40
E0
ENDCHAR
STARTCHAR uni0408
ENCODING 1032
SWIDTH 750 0
DWIDTH 6 0
BBX 5 7 1 0
BITMAP
08
08
08
08
88
88
70
ENDCHAR
STARTCHAR uni0409
ENCODING 1033
SWIDTH 750 0
DWIDTH 6 0
BBX 6 7 0 0
BITMAP
70
50
50
58
54
54
98
ENDCHAR
STARTCHAR uni040A
ENCODING 1034
SWIDTH 750 0
DWIDTH 6 0
BBX 5 7 1 0
BITMAP
A0
A0
A0
F0
A8
A8
B0
ENDCHAR
STARTCHAR uni040B
ENCODING 1035
SWIDTH 750 0
DWIDTH 6 0
BBX 6 7 0 0
BITMAP
F0
40
58
64
44
44
44
ENDCHAR
STARTCHAR uni040C
ENCODING 1036
SWIDTH 750 0
DWIDTH 6 0
BBX 5 7 1 0
BITMAP
40
A8
88
90
E0
90
88
ENDCHAR
STARTCHAR uni040D
ENCODING 1037
SWIDTH 750 0
DWIDTH 6 0
BBX 5 7 1 0
BITMAP
40
A8
98
B8
E8
C8
88
ENDCHAR
STARTCHAR uni040E
ENCODING 1038
SWIDTH 750 0
DWIDTH 6 0
BBX 5 7 1 0
BITMAP
50
A8
88
88
78
08
F0
ENDCHAR
STARTCHAR uni040F
ENCODING 1039
SWIDTH 750 0
DWIDTH 6 0
BBX 5 8 1 -1
BITMAP
88
88
88
88
88
88
F8
20
ENDCHAR
STARTCHAR uni0410
ENCODING 1040
SWIDTH 750 0
DWIDTH 6 0
BBX 5 7 1 0
BITMAP
70
88
88
88
F8
88
88
ENDCHAR
STARTCHAR uni0411
ENCODING 1041
SWIDTH 750 0
DWIDTH 6 0
BBX 5 7 1 0
BITMAP
F8
80
80
F0
88
88
F0
ENDCHAR
STARTCHAR uni0412
ENCODING 1042
SWIDTH 750 0
DWIDTH 6 0
BBX 5 7 1 0
BITMAP
F0
88
88
F0
88
88
F0
ENDCHAR
STARTCHAR uni0413
ENCODING 1043
SWIDTH 750 0
DWIDTH 6 0
BBX 5 7 1 0
BITMAP
F8
80
80
80
80
80
80
ENDCHAR
STARTCHAR uni0414
ENCODING 1044
SWIDTH 750 0
DWIDTH 6 0
BBX 6 8 0 -1
BITMAP
18
28
28
48
48
48
FC
84
ENDCHAR
STARTCHAR uni0415
ENCODING 1045
SWIDTH 750 0
DWIDTH 6 0
BBX 5 7 1 0
BITMAP
F8
80
80
F0
80
80
F8
ENDCHAR
STARTCHAR uni0416
ENCODING 1046
SWIDTH 750 0
DWIDTH 6 0
BBX 5 7 1 0
BITMAP
A8
A8
A8
70
A8
A8
A8
ENDCHAR
STARTCHAR uni0417
ENCODING 1047
SWIDTH 750 0
DWIDTH 6 0
BBX 5 7 1 0
BITMAP
F0
88
08
30
08
88
70
ENDCHAR
STARTCHAR uni0418
ENCODING 1048
SWIDTH 750 0
DWIDTH 6 0
BBX 5 7 1 0
BITMAP
88
98
98
A8
C8
C8
88
ENDCHAR
STARTCHAR uni0419
ENCODING 1049
SWIDTH 750 0
DWIDTH 6 0
BBX 5 7 1 0
BITMAP
50
A8
98
B8
E8
C8
88
ENDCHAR
STARTCHAR uni041A
ENCODING 1050
SWIDTH 750 0
DWIDTH 6 0
BBX 5 7 1 0
BITMAP
88
90
A0
C0
A0
90
88
ENDCHAR
STARTCHAR uni041B
ENCODING 1051
SWIDTH 750 0
DWIDTH 6 0
BBX 5 7 1 0
BITMAP
78
48
48
48
48
48
88
ENDCHAR
STARTCHAR uni041C
ENCODING 1052
SWIDTH 750 0
DWIDTH 6 0
BBX 5 7 1 0
BITMAP
88
D8
D8
A8
A8
88
88
ENDCHAR
STARTCHAR uni041D
ENCODING 1053
SWIDTH 750 0
DWIDTH 6 0
BBX 5 7 1 0
BITMAP
88
88
88
F8
88
88
88
ENDCHAR
STARTCHAR uni041E
ENCODING 1054
SWIDTH 750 0
DWIDTH 6 0
BBX 5 7 1 0
BITMAP
70
88
88
88
88
88
70
ENDCHAR
STARTCHAR uni041F
ENCODING 1055
SWIDTH 750 0
DWIDTH 6 0
BBX 6 7 0 0
BITMAP
FC
48
48
48
48
48
48
ENDCHAR
STARTCHAR uni0420
ENCODING 1056
SWIDTH 750 0
DWIDTH 6 0
BBX 5 7 1 0
BITMAP
F0
88
88
F0
80
80
80
ENDCHAR
STARTCHAR uni0421
ENCODING 1057
SWIDTH 750 0
DWIDTH 6 0
BBX 5 7 1 0
BITMAP
70
88
80
80
80
88
70
ENDCHAR
STARTCHAR uni0422
ENCODING 1058
SWIDTH 750 0
DWIDTH 6 0
BBX 5 7 1 0
BITMAP
F8
20
20
20
20
20
20
ENDCHAR
STARTCHAR uni0423
ENCODING 1059
SWIDTH 750 0
DWIDTH 6 0
BBX 5 7 1 0
BITMAP
88
88
88
78
08
88
70
ENDCHAR
STARTCHAR uni0424
ENCODING 1060
SWIDTH 750 0
DWIDTH 6 0
BBX 5 7 1 0
BITMAP
20
70
A8
A8
A8
70
20
ENDCHAR
STARTCHAR uni0425
ENCODING 1061
SWIDTH 750 0
DWIDTH 6 0
BBX 5 7 1 0
BITMAP
88
88
50
20
50
88
88
ENDCHAR
STARTCHAR uni0426
ENCODING 1062
SWIDTH 750 0
DWIDTH 6 0
BBX 5 8 1 -1
BITMAP
90
90
90
90
90
90
F8
08
ENDCHAR
STARTCHAR uni0427
ENCODING 1063
SWIDTH 750 0
DWIDTH 6 0
BBX 5 7 1 0
BITMAP
88
88
88
78
08
08
08
ENDCHAR
STARTCHAR uni0428
ENCODING 1064
SWIDTH 750 0
DWIDTH 6 0
BBX 5 7 1 0
BITMAP
A8
A8
A8
A8
A8
A8
F8
ENDCHAR
STARTCHAR uni0429
ENCODING 1065
SWIDTH 750 0
DWIDTH 6 0
BBX 5 8 1 -1
BITMAP
A8
A8
A8
A8
A8
A8
F8
18
ENDCHAR
STARTCHAR uni042A
ENCODING 1066
SWIDTH 750 0
DWIDTH 6 0
BBX 6 7 0 0
BITMAP
E0
20
20
38
24
24
38
ENDCHAR
STARTCHAR uni042B
ENCODING 1067
SWIDTH 750 0
DWIDTH 6 0
BBX 5 7 1 0
BITMAP
88
88
88
C8
A8
A8
C8
ENDCHAR
STARTCHAR uni042C
ENCODING 1068
SWIDTH 750 0
DWIDTH 6 0
BBX 5 7 1 0
BITMAP
80
80
80
F0
88
88
F0
ENDCHAR
STARTCHAR uni042D
ENCODING 1069
SWIDTH 750 0
DWIDTH 6 0
BBX 5 7 1 0
BITMAP
70
88
08
78
08
88
70
ENDCHAR
STARTCHAR uni042E
ENCODING 1070
SWIDTH 750 0
DWIDTH 6 0
BBX 5 7 1 0
BITMAP
90
A8
A8
E8
A8
A8
90
ENDCHAR
STARTCHAR uni042F
ENCODING 1071
SWIDTH 750 0
DWIDTH 6 0
BBX 5 7 1 0
BITMAP
78
88
88
78
48
88
88
ENDCHAR
STARTCHAR uni0430
ENCODING 1072
SWIDTH 750 0
DWIDTH 6 0
BBX 5 5 1 0
BITMAP
70
08
78
88
78
ENDCHAR
STARTCHAR uni0431
ENCODING 1073
SWIDTH 750 0
DWIDTH 6 0
BBX 5 7 1 0
BITMAP
70
80
B0
C8
88
88
70
ENDCHAR
STARTCHAR uni0432
ENCODING 1074
SWIDTH 750 0
DWIDTH 6 0
BBX 5 5 1 0
BITMAP
F0
48
70
48
F0
ENDCHAR
STARTCHAR uni0433
ENCODING 1075
SWIDTH 750 0
DWIDTH 6 0
BBX 5 5 1 0
BITMAP
F8
48
40
40
E0
ENDCHAR
STARTCHAR uni0434
ENCODING 1076
SWIDTH 750 0
DWIDTH 6 0
BBX 6 6 0 -1
BITMAP
18
28
28
48
FC
84
ENDCHAR
STARTCHAR uni0435
ENCODING 1077
SWIDTH 750 0
DWIDTH 6 0
BBX 5 5 1 0
BITMAP
70
88
F8
80
70
ENDCHAR
STARTCHAR uni0436
ENCODING 1078
SWIDTH 750 0
DWIDTH 6 0
BBX 5 5 1 0
BITMAP
A8
A8
70
A8
A8
ENDCHAR
STARTCHAR uni0437
ENCODING 1079
SWIDTH 750 0
DWIDTH 6 0
BBX 5 5 1 0
BITMAP
F0
88
30
88
70
ENDCHAR
STARTCHAR uni0438
ENCODING 1080
SWIDTH 750 0
DWIDTH 6 0
BBX 5 5 1 0
BITMAP
88
98
A8
C8
88
ENDCHAR
STARTCHAR uni0439
ENCODING 1081
SWIDTH 750 0
DWIDTH 6 0
BBX 5 7 1 0
BITMAP
50
20
88
98
A8
C8
88
ENDCHAR
STARTCHAR uni043A
ENCODING 1082
SWIDTH 750 0
DWIDTH 6 0
BBX 5 5 1 0
BITMAP
C8
50
60
50
C8
ENDCHAR
STARTCHAR uni043B
ENCODING 1083
SWIDTH 750 0
DWIDTH 6 0
BBX 5 5 1 0
BITMAP
78
48
48
48
88
ENDCHAR
STARTCHAR uni043C
ENCODING 1084
SWIDTH 750 0
DWIDTH 6 0
BBX 5 5 1 0
BITMAP
88
D8
A8
A8
88
ENDCHAR
STARTCHAR uni043D
ENCODING 1085
SWIDTH 750 0
DWIDTH 6 0
BBX 5 5 1 0
BITMAP
88
88
F8
88
88
ENDCHAR
STARTCHAR uni043E
ENCODING 1086
SWIDTH 750 0
DWIDTH 6 0
BBX 5 5 1 0
BITMAP
70
88
88
88
70
ENDCHAR
STARTCHAR uni043F
ENCODING 1087
SWIDTH 750 0
DWIDTH 6 0
BBX 6 5 0 0
BITMAP
FC
48
48
48
48
ENDCHAR
STARTCHAR uni0440
ENCODING 1088
SWIDTH 750 0
DWIDTH 6 0
BBX 5 6 1 -1
BITMAP
B0
C8
88
C8
B0
80
ENDCHAR
STARTCHAR uni0441
ENCODING 1089
SWIDTH 750 0
DWIDTH 6 0
BBX 5 5 1 0
BITMAP
70
88
80
88
70
ENDCHAR
STARTCHAR uni0442
ENCODING 1090
SWIDTH 750 0
DWIDTH 6 0
BBX 5 5 1 0
BITMAP
F8
20
20
20
20
ENDCHAR
STARTCHAR uni0443
ENCODING 1091
SWIDTH 750 0
DWIDTH 6 0
BBX 5 6 1 -1
BITMAP
88
88
88
78
08
70
ENDCHAR
STARTCHAR uni0444
ENCODING 1092
SWIDTH 750 0
DWIDTH 6 0
BBX 5 7 1 -1
BITMAP
20
70
A8
A8
A8
70
20
ENDCHAR
STARTCHAR uni0445
ENCODING 1093
SWIDTH 750 0
DWIDTH 6 0
BBX 5 5 1 0
BITMAP
88
50
20
50
88
ENDCHAR
STARTCHAR uni0446
ENCODING 1094
SWIDTH 750 0
DWIDTH 6 0
BBX 5 6 1 -1
BITMAP
90
90
90
90
F8
08
ENDCHAR
STARTCHAR uni0447
ENCODING 1095
SWIDTH 750 0
DWIDTH 6 0
BBX 5 5 1 0
BITMAP
98
90
70
10
38
ENDCHAR
STARTCHAR uni0448
ENCODING 1096
SWIDTH 750 0
DWIDTH 6 0
BBX 5 5 1 0
BITMAP
A8
A8
A8
A8
F8
ENDCHAR
STARTCHAR uni0449
ENCODING 1097
SWIDTH 750 0
DWIDTH 6 0
BBX 5 6 1 -1
BITMAP
A8
A8
A8
A8
F8
18
ENDCHAR
STARTCHAR uni044A
ENCODING 1098
SWIDTH 750 0
DWIDTH 6 0
BBX 6 5 0 0
BITMAP
E0
38
24
24
38
ENDCHAR
STARTCHAR uni044B
ENCODING 1099
SWIDTH 750 0
DWIDTH 6 0
BBX 5 5 1 0
BITMAP
88
E8
A8
A8
C8
ENDCHAR
STARTCHAR uni044C
ENCODING 1100
SWIDTH 750 0
DWIDTH 6 0
BBX 5 5 1 0
BITMAP
80
F0
88
88
F0
ENDCHAR
STARTCHAR uni044D
ENCODING 1101
SWIDTH 750 0
DWIDTH 6 0
BBX 5 5 1 0
BITMAP
70
88
38
88
70
ENDCHAR
STARTCHAR uni044E
ENCODING 1102
SWIDTH 750 0
DWIDTH 6 0
BBX 5 5 1 0
BITMAP
B0
A8
E8
A8
B0
ENDCHAR
STARTCHAR uni044F
ENCODING 1103
SWIDTH 750 0
DWIDTH 6 0
BBX 5 5 1 0
BITMAP
78
90
70
50
98
ENDCHAR
STARTCHAR uni0450
ENCODING 1104
SWIDTH 750 0
DWIDTH 6 0
BBX 5 7 1 0
BITMAP
40
20
70
88
F8
80
70
ENDCHAR
STARTCHAR uni0451
ENCODING 1105
SWIDTH 750 0
DWIDTH 6 0
BBX 5 7 1 0
BITMAP
50
00
70
88
F8
80
70
ENDCHAR
STARTCHAR uni0452
ENCODING 1106
SWIDTH 750 0
DWIDTH 6 0
BBX 6 7 0 0
BITMAP
40
F0
58
64
44
44
58
ENDCHAR
STARTCHAR uni0453
ENCODING 1107
SWIDTH 750 0
DWIDTH 6 0
BBX 5 7 1 0
BITMAP
10
20
F8
48
40
40
E0
ENDCHAR
STARTCHAR uni0454
ENCODING 1108
SWIDTH 750 0
DWIDTH 6 0
BBX 5 5 1 0
BITMAP
70
88
E0
88
70
ENDCHAR
STARTCHAR uni0455
ENCODING 1109
SWIDTH 750 0
DWIDTH 6 0
BBX 5 5 1 0
BITMAP
78
80
70
08
F0
ENDCHAR
STARTCHAR uni0456
ENCODING 1110
SWIDTH 750 0
DWIDTH 6 0
BBX 3 7 2 0
BITMAP
40
00
C0
40
40
40
E0
ENDCHAR
STARTCHAR uni0457
ENCODING 1111
SWIDTH 750 0
DWIDTH 6 0
BBX 3 7 2 0
BITMAP
A0
00
C0
40
40
40
E0
ENDCHAR
STARTCHAR uni0458
ENCODING 1112
SWIDTH 750 0
DWIDTH 6 0
BBX 4 8 1 -1
BITMAP
10
00
30
10
10
10
90
60
ENDCHAR
STARTCHAR uni0459
ENCODING 1113
SWIDTH 750 0
DWIDTH 6 0
BBX 6 5 0 0
BITMAP
70
58
54
54
98
ENDCHAR
STARTCHAR uni045A
ENCODING 1114
SWIDTH 750 0
DWIDTH 6 0
BBX 5 5 1 0
BITMAP
A0
A0
F8
A8
B0
ENDCHAR
STARTCHAR uni045B
ENCODING 1115
SWIDTH 750 0
DWIDTH 6 0
BBX 6 7 0 0
BITMAP
40
F0
58
64
44
44
44
ENDCHAR
STARTCHAR uni045C
ENCODING 1116
SWIDTH 750 0
DWIDTH 6 0
BBX 5 7 1 0
BITMAP
10
20
C8
50
60
50
C8
ENDCHAR
STARTCHAR uni045D
ENCODING 1117
SWIDTH 750 0
DWIDTH 6 0
BBX 5 7 1 0
BITMAP
40
20
88
98
A8
C8
88
ENDCHAR
STARTCHAR uni045E
ENCODING 1118
SWIDTH 750 0
DWIDTH 6 0
BBX 5 8 1 -1
BITMAP
50
20
88
88
88
78
08
70
ENDCHAR
STARTCHAR uni045F
ENCODING 1119
SWIDTH 750 0
DWIDTH 6 0
BBX 5 6 1 -1
BITMAP
88
88
88
88
F8
20
ENDCHAR
STARTCHAR uni0490
ENCODING 1168
SWIDTH 750 0
DWIDTH 6 0
BBX 5 7 1 0
BITMAP
08
F8
80
80
80
80
80
ENDCHAR
STARTCHAR uni0491
ENCODING 1169
SWIDTH 750 0
DWIDTH 6 0
BBX 5 6 1 0
BITMAP
08
F8
40
40
40
E0
ENDCHAR
STARTCHAR uni05BE
ENCODING 1470
SWIDTH 750 0
DWIDTH 6 0
BBX 4 1 1 6
BITMAP
F0
ENDCHAR
STARTCHAR uni05D0
ENCODING 1488
SWIDTH 750 0
DWIDTH 6 0
BBX 5 7 1 0
BITMAP
88
88
48
A8
90
88
88
ENDCHAR
STARTCHAR uni05D1
ENCODING 1489
SWIDTH 750 0
DWIDTH 6 0
BBX 5 7 1 0
BITMAP
E0
10
10
10
10
10
F8
ENDCHAR
STARTCHAR uni05D2
ENCODING 1490
SWIDTH 750 0
DWIDTH 6 0
BBX 5 7 1 0
BITMAP
60
10
10
10
18
28
C8
ENDCHAR
STARTCHAR uni05D3
ENCODING 1491
SWIDTH 750 0
DWIDTH 6 0
BBX 5 7 1 0
BITMAP
F8
10
10
10
10
10
10
ENDCHAR
STARTCHAR uni05D4
ENCODING 1492
SWIDTH 750 0
DWIDTH 6 0
BBX 5 7 1 0
BITMAP
F0
08
08
08
88
88
88
ENDCHAR
STARTCHAR uni05D5
ENCODING 1493
SWIDTH 750 0
DWIDTH 6 0
BBX 2 7 2 0
BITMAP
80
40
40
40
40
40
40
ENDCHAR
STARTCHAR uni05D6
ENCODING 1494
SWIDTH 750 0
DWIDTH 6 0
BBX 3 7 2 0
BITMAP
E0
40
40
20
20
40
40
ENDCHAR
STARTCHAR uni05D7
ENCODING 1495
SWIDTH 750 0
DWIDTH 6 0
BBX 5 7 1 0
BITMAP
F0
88
88
88
88
88
88
ENDCHAR
STARTCHAR uni05D8
ENCODING 1496
SWIDTH 750 0
DWIDTH 6 0
BBX 5 7 1 0
BITMAP
B0
A8
A8
88
88
88
F0
ENDCHAR
STARTCHAR uni05D9
ENCODING 1497
SWIDTH 750 0
DWIDTH 6 0
BBX 3 4 2 3
BITMAP
C0
20
20
40
ENDCHAR
STARTCHAR uni05DA
ENCODING 1498
SWIDTH 750 0
DWIDTH 6 0
BBX 5 8 1 -1
BITMAP
F0
08
08
10
10
10
10
18
ENDCHAR
STARTCHAR uni05DB
ENCODING 1499
SWIDTH 750 0
DWIDTH 6 0
BBX 5 7 1 0
BITMAP
F0
08
08
08
08
08
F0
ENDCHAR
STARTCHAR uni05DC
ENCODING 1500
SWIDTH 750 0
DWIDTH 6 0
BBX 5 7 1 0
BITMAP
80
F0
08
08
10
20
40
ENDCHAR
STARTCHAR uni05DD
ENCODING 1501
SWIDTH 750 0
DWIDTH 6 0
BBX 5 7 1 0
BITMAP
F0
88
88
88
88
88
F8
ENDCHAR
STARTCHAR uni05DE
ENCODING 1502
SWIDTH 750 0
DWIDTH 6 0
BBX 5 7 1 0
BITMAP
90
A8
C8
48
88
88
B8
ENDCHAR
STARTCHAR uni05DF
ENCODING 1503
SWIDTH 750 0
DWIDTH 6 0
BBX 3 8 2 -1
BITMAP
C0
20
20
40
40
40
40
60
ENDCHAR
STARTCHAR uni05E0
ENCODING 1504
SWIDTH 750 0
DWIDTH 6 0
BBX 4 7 1 0
BITMAP
20
10
10
10
10
10
F0
ENDCHAR
STARTCHAR uni05E1
ENCODING 1505
SWIDTH 750 0
DWIDTH 6 0
BBX 5 7 1 0
BITMAP
F0
88
88
88
88
88
70
ENDCHAR
STARTCHAR uni05E2
ENCODING 1506
SWIDTH 750 0
DWIDTH 6 0
BBX 5 7 1 0
BITMAP
48
48
48
48
48
48
F0
ENDCHAR
STARTCHAR uni05E3
ENCODING 1507
SWIDTH 750 0
DWIDTH 6 0
BBX 5 8 1 -1
BITMAP
F0
88
88
C8
08
08
08
08
ENDCHAR
STARTCHAR uni05E4
ENCODING 1508
SWIDTH 750 0
DWIDTH 6 0
BBX 5 7 1 0
BITMAP
F0
88
88
C8
08
08
F8
ENDCHAR
STARTCHAR uni05E5
ENCODING 1509
SWIDTH 750 0
DWIDTH 6 0
BBX 5 8 1 -1
BITMAP
88
88
90
60
40
40
40
60
ENDCHAR
STARTCHAR uni05E6
ENCODING 1510
SWIDTH 750 0
DWIDTH 6 0
BBX 5 7 1 0
BITMAP
88
88
48
30
10
08
F8
ENDCHAR
STARTCHAR uni05E7
ENCODING 1511
SWIDTH 750 0
DWIDTH 6 0
BBX 5 8 1 -1
BITMAP
F0
08
08
88
90
A0
80
80
ENDCHAR
STARTCHAR uni05E8
ENCODING 1512
SWIDTH 750 0
DWIDTH 6 0
BBX 5 7 1 0
BITMAP
F0
08
08
08
08
08
08
ENDCHAR
STARTCHAR uni05E9
ENCODING 1513
SWIDTH 750 0
DWIDTH 6 0
BBX 5 7 1 0
BITMAP
A8
A8
A8
A8
E8
88
70
ENDCHAR
STARTCHAR uni05EA
ENCODING 1514
SWIDTH 750 0
DWIDTH 6 0
BBX 5 7 1 0
BITMAP
70
48
48
48
48
48
C8
ENDCHAR
STARTCHAR uni05F0
ENCODING 1520
SWIDTH 750 0
DWIDTH 6 0
BBX 5 7 1 0
BITMAP
90
48
48
48
48
48
48
ENDCHAR
STARTCHAR uni05F1
ENCODING 1521
SWIDTH 750 0
DWIDTH 6 0
BBX 5 7 1 0
BITMAP
D0
48
48
88
08
08
08
ENDCHAR
STARTCHAR uni05F2
ENCODING 1522
SWIDTH 750 0
DWIDTH 6 0
BBX 5 4 1 3
BITMAP
D8
48
48
90
ENDCHAR
STARTCHAR uni05F3
ENCODING 1523
SWIDTH 750 0
DWIDTH 6 0
BBX 2 3 2 4
BITMAP
40
40
80
ENDCHAR
STARTCHAR uni05F4
ENCODING 1524
SWIDTH 750 0
DWIDTH 6 0
BBX 5 3 1 4
BITMAP
48
48
90
ENDCHAR
STARTCHAR uni1D1B
ENCODING 7451
SWIDTH 750 0
DWIDTH 6 0
BBX 5 5 1 0
BITMAP
68
B0
20
20
20
ENDCHAR
STARTCHAR uni1D26
ENCODING 7462
SWIDTH 750 0
DWIDTH 6 0
BBX 5 7 1 0
BITMAP
F8
80
80
80
80
80
80
ENDCHAR
STARTCHAR uni1D28
ENCODING 7464
SWIDTH 750 0
DWIDTH 6 0
BBX 6 5 0 0
BITMAP
FC
48
48
48
48
ENDCHAR
STARTCHAR Wgrave
ENCODING 7808
SWIDTH 750 0
DWIDTH 6 0
BBX 5 7 1 0
BITMAP
60
88
88
A8
A8
D8
88
ENDCHAR
STARTCHAR wgrave
ENCODING 7809
SWIDTH 750 0
DWIDTH 6 0
BBX 5 7 1 0
BITMAP
40
20
88
88
A8
A8
50
ENDCHAR
STARTCHAR Wacute
ENCODING 7810
SWIDTH 750 0
DWIDTH 6 0
BBX 5 7 1 0
BITMAP
30
88
88
A8
A8
D8
88
ENDCHAR
STARTCHAR wacute
ENCODING 7811
SWIDTH 750 0
DWIDTH 6 0
BBX 5 7 1 0
BITMAP
10
20
88
88
A8
A8
50
ENDCHAR
STARTCHAR Wdieresis
ENCODING 7812
SWIDTH 750 0
DWIDTH 6 0
BBX 5 7 1 0
BITMAP
50
88
88
A8
A8
D8
88
ENDCHAR
STARTCHAR wdieresis
ENCODING 7813
SWIDTH 750 0
DWIDTH 6 0
BBX 5 7 1 0
BITMAP
50
00
88
88
A8
A8
50
ENDCHAR
STARTCHAR uni1E9F
ENCODING 7839
SWIDTH 750 0
DWIDTH 6 0
BBX 5 7 1 0
BITMAP
30
48
70
88
88
88
70
ENDCHAR
STARTCHAR Ygrave
ENCODING 7922
SWIDTH 750 0
DWIDTH 6 0
BBX 5 7 1 0
BITMAP
60
88
50
70
20
20
20
ENDCHAR
STARTCHAR ygrave
ENCODING 7923
SWIDTH 750 0
DWIDTH 6 0
BBX 5 8 1 -1
BITMAP
40
20
88
88
88
78
08
70
ENDCHAR
STARTCHAR uni2010
ENCODING 8208
SWIDTH 750 0
DWIDTH 6 0
BBX 3 1 2 3
BITMAP
E0
ENDCHAR
STARTCHAR figuredash
ENCODING 8210
SWIDTH 750 0
DWIDTH 6 0
BBX 4 1 1 3
BITMAP
F0
ENDCHAR
STARTCHAR endash
ENCODING 8211
SWIDTH 750 0
DWIDTH 6 0
BBX 4 1 1 3
BITMAP
F0
ENDCHAR
STARTCHAR emdash
ENCODING 8212
SWIDTH 750 0
DWIDTH 6 0
BBX 5 1 1 3
BITMAP
F8
ENDCHAR
STARTCHAR uni2015
ENCODING 8213
SWIDTH 750 0
DWIDTH 6 0
BBX 5 1 1 3
BITMAP
F8
ENDCHAR
STARTCHAR underscoredbl
ENCODING 8215
SWIDTH 750 0
DWIDTH 6 0
BBX 6 2 0 -1
BITMAP
FC
FC
ENDCHAR
STARTCHAR quoteleft
ENCODING 8216
SWIDTH 750 0
DWIDTH 6 0
BBX 2 4 2 3
BITMAP
40
80
C0
C0
ENDCHAR
STARTCHAR quoteright
ENCODING 8217
SWIDTH 750 0
DWIDTH 6 0
BBX 2 4 2 3
BITMAP
C0
C0
40
80
ENDCHAR
STARTCHAR quotesinglbase
ENCODING 8218
SWIDTH 750 0
DWIDTH 6 0
BBX 2 4 2 -1
BITMAP
C0
C0
40
80
ENDCHAR
STARTCHAR quotereversed
ENCODING 8219
SWIDTH 750 0
DWIDTH 6 0
BBX 2 4 2 3
BITMAP
C0
C0
80
40
ENDCHAR
STARTCHAR quotedblleft
ENCODING 8220
SWIDTH 750 0
DWIDTH 6 0
BBX 5 4 1 3
BITMAP
48
90
D8
D8
ENDCHAR
STARTCHAR quotedblright
ENCODING 8221
SWIDTH 750 0
DWIDTH 6 0
BBX 5 4 1 3
BITMAP
D8
D8
48
90
ENDCHAR
STARTCHAR quotedblbase
ENCODING 8222
SWIDTH 750 0
DWIDTH 6 0
BBX 5 4 1 -1
BITMAP
D8
D8
48
90
ENDCHAR
STARTCHAR uni201F
ENCODING 8223
SWIDTH 750 0
DWIDTH 6 0
BBX 5 4 1 3
BITMAP
D8
D8
90
48
ENDCHAR
STARTCHAR dagger
ENCODING 8224
SWIDTH 750 0
DWIDTH 6 0
BBX 5 7 1 0
BITMAP
20
20
F8
20
20
20
20
ENDCHAR
STARTCHAR daggerdbl
ENCODING 8225
SWIDTH 750 0
DWIDTH 6 0
BBX 5 7 1 0
BITMAP
20
20
F8
20
F8
20
20
ENDCHAR
STARTCHAR bullet
ENCODING 8226
SWIDTH 750 0
DWIDTH 6 0
BBX 2 2 2 2
BITMAP
C0
C0
ENDCHAR
STARTCHAR ellipsis
ENCODING 8230
SWIDTH 750 0
DWIDTH 6 0
BBX 5 1 1 0
BITMAP
A8
ENDCHAR
STARTCHAR uni2027
ENCODING 8231
SWIDTH 750 0
DWIDTH 6 0
BBX 2 2 2 2
BITMAP
C0
C0
ENDCHAR
STARTCHAR perthousand
ENCODING 8240
SWIDTH 750 0
DWIDTH 6 0
BBX 5 7 1 0
BITMAP
40
A8
50
20
70
A8
50
ENDCHAR
STARTCHAR minute
ENCODING 8242
SWIDTH 750 0
DWIDTH 6 0
BBX 2 2 2 5
BITMAP
40
80
ENDCHAR
STARTCHAR second
ENCODING 8243
SWIDTH 750 0
DWIDTH 6 0
BBX 5 2 1 5
BITMAP
48
90
ENDCHAR
STARTCHAR uni2035
ENCODING 8245
SWIDTH 750 0
DWIDTH 6 0
BBX 2 2 2 5
BITMAP
80
40
ENDCHAR
STARTCHAR guilsinglleft
ENCODING 8249
SWIDTH 750 0
DWIDTH 6 0
BBX 3 5 2 1
BITMAP
20
40
80
40
20
ENDCHAR
STARTCHAR guilsinglright
ENCODING 8250
SWIDTH 750 0
DWIDTH 6 0
BBX 3 5 2 1
BITMAP
80
40
20
40
80
ENDCHAR
STARTCHAR exclamdbl
ENCODING 8252
SWIDTH 750 0
DWIDTH 6 0
BBX 3 7 2 0
BITMAP
A0
A0
A0
A0
A0
00
A0
ENDCHAR
STARTCHAR uni203E
ENCODING 8254
SWIDTH 750 0
DWIDTH 6 0
BBX 5 1 1 6
BITMAP
F8
ENDCHAR
STARTCHAR uni203F
ENCODING 8255
SWIDTH 750 0
DWIDTH 6 0
BBX 5 2 1 0
BITMAP
88
70
ENDCHAR
STARTCHAR uni2040
ENCODING 8256
SWIDTH 750 0
DWIDTH 6 0
BBX 5 2 1 5
BITMAP
70
88
ENDCHAR
STARTCHAR fraction
ENCODING 8260
SWIDTH 750 0
DWIDTH 6 0
BBX 5 6 1 0
BITMAP
08
18
30
60
C0
80
ENDCHAR
STARTCHAR uni2054
ENCODING 8276
SWIDTH 750 0
DWIDTH 6 0
BBX 5 2 1 0
BITMAP
70
88
ENDCHAR
STARTCHAR uni2074
ENCODING 8308
SWIDTH 750 0
DWIDTH 6 0
BBX 4 4 1 3
BITMAP
60
A0
F0
20
ENDCHAR
STARTCHAR uni2075
ENCODING 8309
SWIDTH 750 0
DWIDTH 6 0
BBX 3 4 2 3
BITMAP
E0
C0
20
C0
ENDCHAR
STARTCHAR uni2076
ENCODING 8310
SWIDTH 750 0
DWIDTH 6 0
BBX 3 4 2 3
BITMAP
60
C0
A0
60
ENDCHAR
STARTCHAR uni2077
ENCODING 8311
SWIDTH 750 0
DWIDTH 6 0
BBX 3 4 2 3
BITMAP
E0
20
40
40
ENDCHAR
STARTCHAR uni2078
ENCODING 8312
SWIDTH 750 0
DWIDTH 6 0
BBX 3 4 2 3
BITMAP
E0
40
A0
E0
ENDCHAR
STARTCHAR uni2079
ENCODING 8313
SWIDTH 750 0
DWIDTH 6 0
BBX 3 4 2 3
BITMAP
C0
A0
60
C0
ENDCHAR
STARTCHAR uni207A
ENCODING 8314
SWIDTH 750 0
DWIDTH 6 0
BBX 3 3 2 4
BITMAP
40
E0
40
ENDCHAR
STARTCHAR uni207B
ENCODING 8315
SWIDTH 750 0
DWIDTH 6 0
BBX 3 1 2 5
BITMAP
E0
ENDCHAR
STARTCHAR uni207F
ENCODING 8319
SWIDTH 750 0
DWIDTH 6 0
BBX 4 4 2 3
BITMAP
A0
D0
90
90
ENDCHAR
STARTCHAR uni2081
ENCODING 8321
SWIDTH 750 0
DWIDTH 6 0
BBX 3 4 2 0
BITMAP
40
C0
40
E0
ENDCHAR
STARTCHAR uni2082
ENCODING 8322
SWIDTH 750 0
DWIDTH 6 0
BBX 3 4 2 0
BITMAP
C0
20
40
E0
ENDCHAR
STARTCHAR uni2083
ENCODING 8323
SWIDTH 750 0
DWIDTH 6 0
BBX 3 4 2 0
BITMAP
E0
60
20
E0
ENDCHAR
STARTCHAR uni2084
ENCODING 8324
SWIDTH 750 0
DWIDTH 6 0
BBX 4 4 1 0
BITMAP
60
A0
F0
20
ENDCHAR
STARTCHAR uni2085
ENCODING 8325
SWIDTH 750 0
DWIDTH 6 0
BBX 3 4 2 0
BITMAP
E0
C0
20
C0
ENDCHAR
STARTCHAR uni2086
ENCODING 8326
SWIDTH 750 0
DWIDTH 6 0
BBX 3 4 2 0
BITMAP
60
C0
A0
60
ENDCHAR
STARTCHAR uni2087
ENCODING 8327
SWIDTH 750 0
DWIDTH 6 0
BBX 3 4 2 0
BITMAP
E0
20
40
40
ENDCHAR
STARTCHAR uni2088
ENCODING 8328
SWIDTH 750 0
DWIDTH 6 0
BBX 3 4 2 0
BITMAP
E0
40
A0
E0
ENDCHAR
STARTCHAR uni2089
ENCODING 8329
SWIDTH 750 0
DWIDTH 6 0
BBX 3 4 2 0
BITMAP
C0
A0
60
C0
ENDCHAR
STARTCHAR uni208A
ENCODING 8330
SWIDTH 750 0
DWIDTH 6 0
BBX 3 3 2 1
BITMAP
40
E0
40
ENDCHAR
STARTCHAR uni208B
ENCODING 8331
SWIDTH 750 0
DWIDTH 6 0
BBX 3 1 2 2
BITMAP
E0
ENDCHAR
STARTCHAR franc
ENCODING 8355
SWIDTH 750 0
DWIDTH 6 0
BBX 6 7 0 0
BITMAP
7C
40
40
78
40
E0
40
ENDCHAR
STARTCHAR lira
ENCODING 8356
SWIDTH 750 0
DWIDTH 6 0
BBX 5 7 1 0
BITMAP
30
48
E0
40
E0
40
F8
ENDCHAR
STARTCHAR peseta
ENCODING 8359
SWIDTH 750 0
DWIDTH 6 0
BBX 5 8 1 -1
BITMAP
E0
90
90
E0
90
B8
90
18
ENDCHAR
STARTCHAR uni20AA
ENCODING 8362
SWIDTH 750 0
DWIDTH 6 0
BBX 5 7 1 0
BITMAP
E8
A8
A8
88
A8
A8
B8
ENDCHAR
STARTCHAR Euro
ENCODING 8364
SWIDTH 750 0
DWIDTH 6 0
BBX 5 7 1 0
BITMAP
30
48
E0
40
E0
48
30
ENDCHAR
STARTCHAR uni2105
ENCODING 8453
SWIDTH 750 0
DWIDTH 6 0
BBX 5 7 1 0
BITMAP
C0
88
D0
20
58
A8
30
ENDCHAR
STARTCHAR uni2113
ENCODING 8467
SWIDTH 750 0
DWIDTH 6 0
BBX 5 7 1 0
BITMAP
10
28
28
28
30
60
98
ENDCHAR
STARTCHAR uni2116
ENCODING 8470
SWIDTH 750 0
DWIDTH 6 0
BBX 5 7 1 0
BITMAP
90
D8
D8
B0
B8
B0
90
ENDCHAR
STARTCHAR trademark
ENCODING 8482
SWIDTH 750 0
DWIDTH 6 0
BBX 6 3 0 4
BITMAP
FC
5C
54
ENDCHAR
STARTCHAR Omega
ENCODING 8486
SWIDTH 750 0
DWIDTH 6 0
BBX 5 7 1 0
BITMAP
70
88
88
88
88
50
D8
ENDCHAR
STARTCHAR estimated
ENCODING 8494
SWIDTH 750 0
DWIDTH 6 0
BBX 5 5 1 0
BITMAP
70
88
F8
80
70
ENDCHAR
STARTCHAR uni2150
ENCODING 8528
SWIDTH 750 0
DWIDTH 6 0
BBX 5 7 1 0
BITMAP
80
90
A0
40
B8
08
10
ENDCHAR
STARTCHAR uni2151
ENCODING 8529
SWIDTH 750 0
DWIDTH 6 0
BBX 5 7 1 0
BITMAP
80
90
A0
50
A8
18
30
ENDCHAR
STARTCHAR onethird
ENCODING 8531
SWIDTH 750 0
DWIDTH 6 0
BBX 5 7 1 0
BITMAP
80
90
A0
70
98
08
30
ENDCHAR
STARTCHAR twothirds
ENCODING 8532
SWIDTH 750 0
DWIDTH 6 0
BBX 6 7 0 0
BITMAP
C0
48
90
F8
4C
04
18
ENDCHAR
STARTCHAR uni2155
ENCODING 8533
SWIDTH 750 0
DWIDTH 6 0
BBX 5 7 1 0
BITMAP
80
90
A0
58
90
08
18
ENDCHAR
STARTCHAR uni2156
ENCODING 8534
SWIDTH 750 0
DWIDTH 6 0
BBX 6 7 0 0
BITMAP
C0
48
90
EC
48
04
0C
ENDCHAR
STARTCHAR uni2157
ENCODING 8535
SWIDTH 750 0
DWIDTH 6 0
BBX 6 7 0 0
BITMAP
C0
68
D0
2C
48
04
0C
ENDCHAR
STARTCHAR uni2158
ENCODING 8536
SWIDTH 750 0
DWIDTH 6 0
BBX 6 7 0 0
BITMAP
A0
E8
30
2C
48
04
0C
ENDCHAR
STARTCHAR uni2159
ENCODING 8537
SWIDTH 750 0
DWIDTH 6 0
BBX 5 7 1 0
BITMAP
80
90
A0
58
B0
28
18
ENDCHAR
STARTCHAR uni215A
ENCODING 8538
SWIDTH 750 0
DWIDTH 6 0
BBX 6 7 0 0
BITMAP
C0
88
50
AC
58
14
0C
ENDCHAR
STARTCHAR oneeighth
ENCODING 8539
SWIDTH 750 0
DWIDTH 6 0
BBX 5 7 1 0
BITMAP
80
90
A0
78
90
28
38
ENDCHAR
STARTCHAR threeeighths
ENCODING 8540
SWIDTH 750 0
DWIDTH 6 0
BBX 6 7 0 0
BITMAP
C0
68
D0
3C
48
14
1C
ENDCHAR
STARTCHAR fiveeighths
ENCODING 8541
SWIDTH 750 0
DWIDTH 6 0
BBX 6 7 0 0
BITMAP
C0
88
50
BC
48
14
1C
ENDCHAR
STARTCHAR seveneighths
ENCODING 8542
SWIDTH 750 0
DWIDTH 6 0
BBX 6 7 0 0
BITMAP
E0
28
50
3C
48
14
1C
ENDCHAR
STARTCHAR arrowleft
ENCODING 8592
SWIDTH 750 0
DWIDTH 6 0
BBX 6 5 0 1
BITMAP
20
60
FC
60
20
ENDCHAR
STARTCHAR arrowup
ENCODING 8593
SWIDTH 750 0
DWIDTH 6 0
BBX 5 7 1 -1
BITMAP
20
70
F8
20
20
20
20
ENDCHAR
STARTCHAR arrowright
ENCODING 8594
SWIDTH 750 0
DWIDTH 6 0
BBX 6 5 0 1
BITMAP
10
18
FC
18
10
ENDCHAR
STARTCHAR arrowdown
ENCODING 8595
SWIDTH 750 0
DWIDTH 6 0
BBX 5 7 1 0
BITMAP
20
20
20
20
F8
70
20
ENDCHAR
STARTCHAR arrowboth
ENCODING 8596
SWIDTH 750 0
DWIDTH 6 0
BBX 6 3 0 2
BITMAP
48
FC
48
ENDCHAR
STARTCHAR arrowupdn
ENCODING 8597
SWIDTH 750 0
DWIDTH 6 0
BBX 5 7 1 0
BITMAP
20
70
F8
20
F8
70
20
ENDCHAR
STARTCHAR arrowupdnbse
ENCODING 8616
SWIDTH 750 0
DWIDTH 6 0
BBX 5 8 1 -1
BITMAP
20
70
F8
20
F8
70
20
F8
ENDCHAR
STARTCHAR partialdiff
ENCODING 8706
SWIDTH 750 0
DWIDTH 6 0
BBX 5 7 1 0
BITMAP
30
08
38
48
88
90
60
ENDCHAR
STARTCHAR emptyset
ENCODING 8709
SWIDTH 750 0
DWIDTH 6 0
BBX 5 7 1 -1
BITMAP
10
70
A8
A8
A8
70
40
ENDCHAR
STARTCHAR Delta
ENCODING 8710
SWIDTH 750 0
DWIDTH 6 0
BBX 5 6 1 0
BITMAP
20
50
88
88
88
F8
ENDCHAR
STARTCHAR element
ENCODING 8712
SWIDTH 750 0
DWIDTH 6 0
BBX 4 7 1 0
BITMAP
30
40
80
F0
80
40
30
ENDCHAR
STARTCHAR product
ENCODING 8719
SWIDTH 750 0
DWIDTH 6 0
BBX 6 7 0 0
BITMAP
FC
48
48
48
48
48
48
ENDCHAR
STARTCHAR summation
ENCODING 8721
SWIDTH 750 0
DWIDTH 6 0
BBX 5 7 1 0
BITMAP
F8
80
40
20
40
80
F8
ENDCHAR
STARTCHAR minus
ENCODING 8722
SWIDTH 750 0
DWIDTH 6 0
BBX 5 1 1 3
BITMAP
F8
ENDCHAR
STARTCHAR uni2215
ENCODING 8725
SWIDTH 750 0
DWIDTH 6 0
BBX 5 6 1 0
BITMAP
08
18
30
60
C0
80
ENDCHAR
STARTCHAR uni2219
ENCODING 8729
SWIDTH 750 0
DWIDTH 6 0
BBX 1 1 2 3
BITMAP
80
ENDCHAR
STARTCHAR radical
ENCODING 8730
SWIDTH 750 0
DWIDTH 6 0
BBX 6 8 0 -1
BITMAP
1C
10
10
10
90
50
30
10
ENDCHAR
STARTCHAR infinity
ENCODING 8734
SWIDTH 750 0
DWIDTH 6 0
BBX 6 5 0 0
BITMAP
68
94
94
94
68
ENDCHAR
STARTCHAR orthogonal
ENCODING 8735
SWIDTH 750 0
DWIDTH 6 0
BBX 5 4 1 3
BITMAP
80
80
80
F8
ENDCHAR
STARTCHAR intersection
ENCODING 8745
SWIDTH 750 0
DWIDTH 6 0
BBX 5 7 1 0
BITMAP
70
88
88
88
88
88
88
ENDCHAR
STARTCHAR integral
ENCODING 8747
SWIDTH 750 0
DWIDTH 6 0
BBX 5 8 1 -1
BITMAP
10
28
28
20
20
A0
A0
40
ENDCHAR
STARTCHAR approxequal
ENCODING 8776
SWIDTH 750 0
DWIDTH 6 0
BBX 5 6 1 0
BITMAP
40
A8
10
40
A8
10
ENDCHAR
STARTCHAR notequal
ENCODING 8800
SWIDTH 750 0
DWIDTH 6 0
BBX 5 7 1 0
BITMAP
08
10
F8
20
F8
40
80
ENDCHAR
STARTCHAR equivalence
ENCODING 8801
SWIDTH 750 0
DWIDTH 6 0
BBX 5 5 1 1
BITMAP
F8
00
F8
00
F8
ENDCHAR
STARTCHAR lessequal
ENCODING 8804
SWIDTH 750 0
DWIDTH 6 0
BBX 4 8 1 -1
BITMAP
10
20
40
80
40
20
10
F0
ENDCHAR
STARTCHAR greaterequal
ENCODING 8805
SWIDTH 750 0
DWIDTH 6 0
BBX 4 8 2 -1
BITMAP
80
40
20
10
20
40
80
F0
ENDCHAR
STARTCHAR uni2299
ENCODING 8857
SWIDTH 750 0
DWIDTH 6 0
BBX 5 7 1 0
BITMAP
70
88
88
A8
88
88
70
ENDCHAR
STARTCHAR uni2300
ENCODING 8960
SWIDTH 750 0
DWIDTH 6 0
BBX 5 7 1 0
BITMAP
70
88
98
A8
C8
88
70
ENDCHAR
STARTCHAR house
ENCODING 8962
SWIDTH 750 0
DWIDTH 6 0
BBX 5 6 1 0
BITMAP
20
50
88
88
88
F8
ENDCHAR
STARTCHAR revlogicalnot
ENCODING 8976
SWIDTH 750 0
DWIDTH 6 0
BBX 5 4 1 0
BITMAP
F8
80
80
80
ENDCHAR
STARTCHAR integraltp
ENCODING 8992
SWIDTH 750 0
DWIDTH 6 0
BBX 3 7 3 -1
BITMAP
40
A0
A0
80
80
80
80
ENDCHAR
STARTCHAR integralbt
ENCODING 8993
SWIDTH 750 0
DWIDTH 6 0
BBX 3 7 1 0
BITMAP
20
20
20
20
A0
A0
40
ENDCHAR
STARTCHAR SF100000
ENCODING 9472
SWIDTH 750 0
DWIDTH 6 0
BBX 6 1 0 3
BITMAP
FC
ENDCHAR
STARTCHAR SF110000
ENCODING 9474
SWIDTH 750 0
DWIDTH 6 0
BBX 1 8 3 -1
BITMAP
80
80
80
80
80
80
80
80
ENDCHAR
STARTCHAR SF010000
ENCODING 9484
SWIDTH 750 0
DWIDTH 6 0
BBX 3 5 3 -1
BITMAP
E0
80
80
80
80
ENDCHAR
STARTCHAR SF030000
ENCODING 9488
SWIDTH 750 0
DWIDTH 6 0
BBX 4 5 0 -1
BITMAP
F0
10
10
10
10
ENDCHAR
STARTCHAR SF020000
ENCODING 9492
SWIDTH 750 0
DWIDTH 6 0
BBX 3 4 3 3
BITMAP
80
80
80
E0
ENDCHAR
STARTCHAR SF040000
ENCODING 9496
SWIDTH 750 0
DWIDTH 6 0
BBX 4 4 0 3
BITMAP
10
10
10
F0
ENDCHAR
STARTCHAR SF080000
ENCODING 9500
SWIDTH 750 0
DWIDTH 6 0
BBX 3 8 3 -1
BITMAP
80
80
80
E0
80
80
80
80
ENDCHAR
STARTCHAR SF090000
ENCODING 9508
SWIDTH 750 0
DWIDTH 6 0
BBX 4 8 0 -1
BITMAP
10
10
10
F0
10
10
10
10
ENDCHAR
STARTCHAR SF060000
ENCODING 9516
SWIDTH 750 0
DWIDTH 6 0
BBX 6 5 0 -1
BITMAP
FC
10
10
10
10
ENDCHAR
STARTCHAR SF070000
ENCODING 9524
SWIDTH 750 0
DWIDTH 6 0
BBX 6 4 0 3
BITMAP
10
10
10
FC
ENDCHAR
STARTCHAR SF050000
ENCODING 9532
SWIDTH 750 0
DWIDTH 6 0
BBX 6 8 0 -1
BITMAP
10
10
10
FC
10
10
10
10
ENDCHAR
STARTCHAR SF430000
ENCODING 9552
SWIDTH 750 0
DWIDTH 6 0
BBX 6 3 0 2
BITMAP
FC
00
FC
ENDCHAR
STARTCHAR SF240000
ENCODING 9553
SWIDTH 750 0
DWIDTH 6 0
BBX 3 8 2 -1
BITMAP
A0
A0
A0
A0
A0
A0
A0
A0
ENDCHAR
STARTCHAR SF510000
ENCODING 9554
SWIDTH 750 0
DWIDTH 6 0
BBX 3 6 3 -1
BITMAP
E0
80
E0
80
80
80
ENDCHAR
STARTCHAR SF520000
ENCODING 9555
SWIDTH 750 0
DWIDTH 6 0
BBX 4 5 2 -1
BITMAP
F0
A0
A0
A0
A0
ENDCHAR
STARTCHAR SF390000
ENCODING 9556
SWIDTH 750 0
DWIDTH 6 0
BBX 4 6 2 -1
BITMAP
F0
80
B0
A0
A0
A0
ENDCHAR
STARTCHAR SF220000
ENCODING 9557
SWIDTH 750 0
DWIDTH 6 0
BBX 4 6 0 -1
BITMAP
F0
10
F0
10
10
10
ENDCHAR
STARTCHAR SF210000
ENCODING 9558
SWIDTH 750 0
DWIDTH 6 0
BBX 5 5 0 -1
BITMAP
F8
28
28
28
28
ENDCHAR
STARTCHAR SF250000
ENCODING 9559
SWIDTH 750 0
DWIDTH 6 0
BBX 5 6 0 -1
BITMAP
F8
08
E8
28
28
28
ENDCHAR
STARTCHAR SF500000
ENCODING 9560
SWIDTH 750 0
DWIDTH 6 0
BBX 3 5 3 2
BITMAP
80
80
E0
80
E0
ENDCHAR
STARTCHAR SF490000
ENCODING 9561
SWIDTH 750 0
DWIDTH 6 0
BBX 3 4 3 3
BITMAP
A0
A0
A0
E0
ENDCHAR
STARTCHAR SF380000
ENCODING 9562
SWIDTH 750 0
DWIDTH 6 0
BBX 4 5 2 2
BITMAP
A0
A0
B0
80
F0
ENDCHAR
STARTCHAR SF280000
ENCODING 9563
SWIDTH 750 0
DWIDTH 6 0
BBX 4 5 0 2
BITMAP
10
10
F0
10
F0
ENDCHAR
STARTCHAR SF270000
ENCODING 9564
SWIDTH 750 0
DWIDTH 6 0
BBX 5 4 0 3
BITMAP
28
28
28
F8
ENDCHAR
STARTCHAR SF260000
ENCODING 9565
SWIDTH 750 0
DWIDTH 6 0
BBX 5 5 0 2
BITMAP
28
28
E8
08
F8
ENDCHAR
STARTCHAR SF360000
ENCODING 9566
SWIDTH 750 0
DWIDTH 6 0
BBX 3 8 3 -1
BITMAP
80
80
E0
80
E0
80
80
80
ENDCHAR
STARTCHAR SF370000
ENCODING 9567
SWIDTH 750 0
DWIDTH 6 0
BBX 4 8 2 -1
BITMAP
A0
A0
A0
B0
A0
A0
A0
A0
ENDCHAR
STARTCHAR SF420000
ENCODING 9568
SWIDTH 750 0
DWIDTH 6 0
BBX 4 8 2 -1
BITMAP
A0
A0
B0
80
B0
A0
A0
A0
ENDCHAR
STARTCHAR SF190000
ENCODING 9569
SWIDTH 750 0
DWIDTH 6 0
BBX 4 8 0 -1
BITMAP
10
10
F0
10
F0
10
10
10
ENDCHAR
STARTCHAR SF200000
ENCODING 9570
SWIDTH 750 0
DWIDTH 6 0
BBX 5 8 0 -1
BITMAP
28
28
28
E8
28
28
28
28
ENDCHAR
STARTCHAR SF230000
ENCODING 9571
SWIDTH 750 0
DWIDTH 6 0
BBX 5 8 0 -1
BITMAP
28
28
E8
08
E8
28
28
28
ENDCHAR
STARTCHAR SF470000
ENCODING 9572
SWIDTH 750 0
DWIDTH 6 0
BBX 6 6 0 -1
BITMAP
FC
00
FC
10
10
10
ENDCHAR
STARTCHAR SF480000
ENCODING 9573
SWIDTH 750 0
DWIDTH 6 0
BBX 6 5 0 -1
BITMAP
FC
28
28
28
28
ENDCHAR
STARTCHAR SF410000
ENCODING 9574
SWIDTH 750 0
DWIDTH 6 0
BBX 6 6 0 -1
BITMAP
FC
00
EC
28
28
28
ENDCHAR
STARTCHAR SF450000
ENCODING 9575
SWIDTH 750 0
DWIDTH 6 0
BBX 6 5 0 2
BITMAP
10
10
FC
00
FC
ENDCHAR
STARTCHAR SF460000
ENCODING 9576
SWIDTH 750 0
DWIDTH 6 0
BBX 6 4 0 3
BITMAP
28
28
28
FC
ENDCHAR
STARTCHAR SF400000
ENCODING 9577
SWIDTH 750 0
DWIDTH 6 0
BBX 6 5 0 2
BITMAP
28
28
EC
00
FC
ENDCHAR
STARTCHAR SF540000
ENCODING 9578
SWIDTH 750 0
DWIDTH 6 0
BBX 6 8 0 -1
BITMAP
10
10
FC
10
FC
10
10
10
ENDCHAR
STARTCHAR SF530000
ENCODING 9579
SWIDTH 750 0
DWIDTH 6 0
BBX 6 8 0 -1
BITMAP
28
28
28
FC
28
28
28
28
ENDCHAR
STARTCHAR SF440000
ENCODING 9580
SWIDTH 750 0
DWIDTH 6 0
BBX 6 8 0 -1
BITMAP
28
28
EC
00
EC
28
28
28
ENDCHAR
STARTCHAR upblock
ENCODING 9600
SWIDTH 750 0
DWIDTH 6 0
BBX 6 4 0 3
BITMAP
FC
FC
FC
FC
ENDCHAR
STARTCHAR uni2581
ENCODING 9601
SWIDTH 750 0
DWIDTH 6 0
BBX 6 2 0 -1
BITMAP
FC
FC
ENDCHAR
STARTCHAR dnblock
ENCODING 9604
SWIDTH 750 0
DWIDTH 6 0
BBX 6 4 0 -1
BITMAP
FC
FC
FC
FC
ENDCHAR
STARTCHAR block
ENCODING 9608
SWIDTH 750 0
DWIDTH 6 0
BBX 6 8 0 -1
BITMAP
FC
FC
FC
FC
FC
FC
FC
FC
ENDCHAR
STARTCHAR lfblock
ENCODING 9612
SWIDTH 750 0
DWIDTH 6 0
BBX 3 8 0 -1
BITMAP
E0
E0
E0
E0
E0
E0
E0
E0
ENDCHAR
STARTCHAR rtblock
ENCODING 9616
SWIDTH 750 0
DWIDTH 6 0
BBX 3 8 3 -1
BITMAP
E0
E0
E0
E0
E0
E0
E0
E0
ENDCHAR
STARTCHAR ltshade
ENCODING 9617
SWIDTH 750 0
DWIDTH 6 0
BBX 6 7 0 0
BITMAP
A8
00
54
00
A8
00
54
ENDCHAR
STARTCHAR shade
ENCODING 9618
SWIDTH 750 0
DWIDTH 6 0
BBX 6 8 0 -1
BITMAP
A8
54
A8
54
A8
54
A8
54
ENDCHAR
STARTCHAR dkshade
ENCODING 9619
SWIDTH 750 0
DWIDTH 6 0
BBX 6 8 0 -1
BITMAP
54
FC
A8
FC
54
FC
A8
FC
ENDCHAR
STARTCHAR filledbox
ENCODING 9632
SWIDTH 750 0
DWIDTH 6 0
BBX 4 4 1 1
BITMAP
F0
F0
F0
F0
ENDCHAR
STARTCHAR H22073
ENCODING 9633
SWIDTH 750 0
DWIDTH 6 0
BBX 4 4 1 1
BITMAP
F0
90
90
F0
ENDCHAR
STARTCHAR H18543
ENCODING 9642
SWIDTH 750 0
DWIDTH 6 0
BBX 3 3 2 2
BITMAP
E0
E0
E0
ENDCHAR
STARTCHAR H18551
ENCODING 9643
SWIDTH 750 0
DWIDTH 6 0
BBX 3 3 2 2
BITMAP
E0
A0
E0
ENDCHAR
STARTCHAR filledrect
ENCODING 9644
SWIDTH 750 0
DWIDTH 6 0
BBX 5 3 1 -1
BITMAP
F8
F8
F8
ENDCHAR
STARTCHAR triagup
ENCODING 9650
SWIDTH 750 0
DWIDTH 6 0
BBX 5 6 1 0
BITMAP
20
20
70
70
F8
F8
ENDCHAR
STARTCHAR triagrt
ENCODING 9658
SWIDTH 750 0
DWIDTH 6 0
BBX 5 5 1 1
BITMAP
C0
F0
F8
F0
C0
ENDCHAR
STARTCHAR triagdn
ENCODING 9660
SWIDTH 750 0
DWIDTH 6 0
BBX 5 6 1 0
BITMAP
F8
F8
70
70
20
20
ENDCHAR
STARTCHAR triaglf
ENCODING 9668
SWIDTH 750 0
DWIDTH 6 0
BBX 5 5 1 1
BITMAP
18
78
F8
78
18
ENDCHAR
STARTCHAR lozenge
ENCODING 9674
SWIDTH 750 0
DWIDTH 6 0
BBX 5 6 1 0
BITMAP
20
50
88
88
50
20
ENDCHAR
STARTCHAR circle
ENCODING 9675
SWIDTH 750 0
DWIDTH 6 0
BBX 4 4 1 1
BITMAP
60
90
90
60
ENDCHAR
STARTCHAR H18533
ENCODING 9679
SWIDTH 750 0
DWIDTH 6 0
BBX 4 4 1 1
BITMAP
60
F0
F0
60
ENDCHAR
STARTCHAR invbullet
ENCODING 9688
SWIDTH 750 0
DWIDTH 6 0
BBX 6 8 0 -1
BITMAP
FC
FC
FC
CC
CC
FC
FC
FC
ENDCHAR
STARTCHAR invcircle
ENCODING 9689
SWIDTH 750 0
DWIDTH 6 0
BBX 6 8 0 -1
BITMAP
FC
FC
CC
B4
B4
CC
FC
FC
ENDCHAR
STARTCHAR openbullet
ENCODING 9702
SWIDTH 750 0
DWIDTH 6 0
BBX 3 3 2 2
BITMAP
40
A0
40
ENDCHAR
STARTCHAR smileface
ENCODING 9786
SWIDTH 750 0
DWIDTH 6 0
BBX 5 7 1 0
BITMAP
70
88
D8
88
A8
88
70
ENDCHAR
STARTCHAR invsmileface
ENCODING 9787
SWIDTH 750 0
DWIDTH 6 0
BBX 5 7 1 0
BITMAP
70
F8
A8
F8
D8
F8
70
ENDCHAR
STARTCHAR sun
ENCODING 9788
SWIDTH 750 0
DWIDTH 6 0
BBX 5 5 1 1
BITMAP
A8
70
D8
70
A8
ENDCHAR
STARTCHAR female
ENCODING 9792
SWIDTH 750 0
DWIDTH 6 0
BBX 5 8 1 -1
BITMAP
70
88
88
88
70
20
70
20
ENDCHAR
STARTCHAR male
ENCODING 9794
SWIDTH 750 0
DWIDTH 6 0
BBX 6 8 0 -1
BITMAP
1C
0C
14
70
88
88
88
70
ENDCHAR
STARTCHAR spade
ENCODING 9824
SWIDTH 750 0
DWIDTH 6 0
BBX 5 6 1 0
BITMAP
20
70
F8
D8
20
70
ENDCHAR
STARTCHAR club
ENCODING 9827
SWIDTH 750 0
DWIDTH 6 0
BBX 5 6 1 0
BITMAP
70
70
F8
D8
20
70
ENDCHAR
STARTCHAR heart
ENCODING 9829
SWIDTH 750 0
DWIDTH 6 0
BBX 5 6 1 0
BITMAP
50
F8
F8
F8
70
20
ENDCHAR
STARTCHAR diamond
ENCODING 9830
SWIDTH 750 0
DWIDTH 6 0
BBX 5 6 1 0
BITMAP
20
70
F8
F8
70
20
ENDCHAR
STARTCHAR musicalnote
ENCODING 9834
SWIDTH 750 0
DWIDTH 6 0
BBX 5 7 1 0
BITMAP
20
30
28
20
20
E0
C0
ENDCHAR
STARTCHAR musicalnotedbl
ENCODING 9835
SWIDTH 750 0
DWIDTH 6 0
BBX 6 8 0 -1
BITMAP
30
28
34
2C
24
E4
DC
18
ENDCHAR
STARTCHAR uni2713
ENCODING 10003
SWIDTH 750 0
DWIDTH 6 0
BBX 5 7 1 0
BITMAP
08
08
10
10
A0
A0
C0
ENDCHAR
STARTCHAR uni3044
ENCODING 12356
SWIDTH 750 0
DWIDTH 6 0
BBX 1 1 5 -1
BITMAP
00
ENDCHAR
STARTCHAR uni3046
ENCODING 12358
SWIDTH 750 0
DWIDTH 6 0
BBX 1 1 5 -1
BITMAP
00
ENDCHAR
STARTCHAR uni304B
ENCODING 12363
SWIDTH 750 0
DWIDTH 6 0
BBX 1 1 5 -1
BITMAP
00
ENDCHAR
STARTCHAR uni3057
ENCODING 12375
SWIDTH 750 0
DWIDTH 6 0
BBX 1 1 5 -1
BITMAP
00
ENDCHAR
STARTCHAR uni306E
ENCODING 12398
SWIDTH 750 0
DWIDTH 6 0
BBX 1 1 5 -1
BITMAP
00
ENDCHAR
STARTCHAR uni3093
ENCODING 12435
SWIDTH 750 0
DWIDTH 6 0
BBX 1 1 5 -1
BITMAP
00
ENDCHAR
STARTCHAR uniFB01
ENCODING 64257
SWIDTH 750 0
DWIDTH 6 0
BBX 5 7 1 0
BITMAP
30
48
40
E8
48
48
48
ENDCHAR
STARTCHAR uniFB02
ENCODING 64258
SWIDTH 750 0
DWIDTH 6 0
BBX 5 7 1 0
BITMAP
38
48
48
E8
48
48
48
ENDCHAR
STARTCHAR uniFFFD
ENCODING 65533
SWIDTH 750 0
DWIDTH 6 0
BBX 6 8 0 -1
BITMAP
C4
B8
B8
F4
EC
FC
EC
FC
ENDCHAR
STARTCHAR .notdef
ENCODING -1
SWIDTH 750 0
DWIDTH 6 0
BBX 6 8 0 -1
BITMAP
C4
B8
B8
F4
EC
FC
EC
FC
ENDCHAR
ENDFONT
