STARTFONT 2.1
FONT -FontForge-Bm437 ATI SmallW 6x8-Book-R-Normal--8-80-75-75-C-60-ISO10646-1
SIZE 8 75 75
FONTBOUNDINGBOX 6 8 0 -1
COMMENT "Generated by fontforge, http://fontforge.sourceforge.net"
COMMENT "Outline (vector) version by VileR, 2020"
STARTPROPERTIES 41
FOUNDRY "FontForge"
FAMILY_NAME "Bm437 ATI SmallW 6x8"
WEIGHT_NAME "Book"
SLANT "R"
SETWIDTH_NAME "Normal"
ADD_STYLE_NAME ""
PIXEL_SIZE 8
POINT_SIZE 80
RESOLUTION_X 75
RESOLUTION_Y 75
SPACING "C"
AVERAGE_WIDTH 60
CHARSET_REGISTRY "ISO10646"
CHARSET_ENCODING "1"
FONTNAME_REGISTRY ""
CHARSET_COLLECTIONS "ASCII ISOLatin1Encoding ISO10646-1"
FONT_NAME "Bm437_ATI_SmallW_6x8"
FACE_NAME "Bm437 ATI SmallW 6x8"
COPYRIGHT "Outline (vector) version by VileR, 2020"
FONT_VERSION "v2.2-2020-11"
FONT_ASCENT 7
FONT_DESCENT 1
UNDERLINE_POSITION 0
UNDERLINE_THICKNESS 1
X_HEIGHT 4
CAP_HEIGHT 6
DEFAULT_CHAR 1
RAW_ASCENT 875
RAW_DESCENT 125
NORM_SPACE 6
RELATIVE_WEIGHT 40
RELATIVE_SETWIDTH 50
SUPERSCRIPT_X 0
SUPERSCRIPT_Y 4
SUPERSCRIPT_SIZE 8
SUBSCRIPT_X 0
SUBSCRIPT_Y 4
SUBSCRIPT_SIZE 8
FIGURE_WIDTH 6
AVG_LOWERCASE_WIDTH 60
AVG_UPPERCASE_WIDTH 60
ENDPROPERTIES
CHARS 295
STARTCHAR uni0000
ENCODING 0
SWIDTH 750 0
DWIDTH 6 0
BBX 1 1 5 -1
BITMAP
00
ENDCHAR
STARTCHAR uni0001
ENCODING 1
SWIDTH 750 0
DWIDTH 6 0
BBX 6 8 0 -1
BITMAP
78
84
CC
84
FC
B4
84
78
ENDCHAR
STARTCHAR uni0002
ENCODING 2
SWIDTH 750 0
DWIDTH 6 0
BBX 6 8 0 -1
BITMAP
78
FC
B4
CC
84
CC
FC
78
ENDCHAR
STARTCHAR uni0003
ENCODING 3
SWIDTH 750 0
DWIDTH 6 0
BBX 5 7 0 0
BITMAP
50
F8
F8
F8
70
20
20
ENDCHAR
STARTCHAR uni0004
ENCODING 4
SWIDTH 750 0
DWIDTH 6 0
BBX 5 7 0 0
BITMAP
20
20
70
F8
70
20
20
ENDCHAR
STARTCHAR uni0005
ENCODING 5
SWIDTH 750 0
DWIDTH 6 0
BBX 5 8 0 -1
BITMAP
20
70
20
F8
F8
A8
20
70
ENDCHAR
STARTCHAR uni0006
ENCODING 6
SWIDTH 750 0
DWIDTH 6 0
BBX 5 8 0 -1
BITMAP
20
20
70
70
F8
70
20
70
ENDCHAR
STARTCHAR uni0007
ENCODING 7
SWIDTH 750 0
DWIDTH 6 0
BBX 4 4 1 1
BITMAP
60
F0
F0
60
ENDCHAR
STARTCHAR uni0008
ENCODING 8
SWIDTH 750 0
DWIDTH 6 0
BBX 6 8 0 -1
BITMAP
FC
FC
CC
84
84
CC
FC
FC
ENDCHAR
STARTCHAR uni0009
ENCODING 9
SWIDTH 750 0
DWIDTH 6 0
BBX 5 6 0 0
BITMAP
20
50
88
88
50
20
ENDCHAR
STARTCHAR uni000A
ENCODING 10
SWIDTH 750 0
DWIDTH 6 0
BBX 6 8 0 -1
BITMAP
FC
84
B4
B4
B4
B4
CC
FC
ENDCHAR
STARTCHAR uni000B
ENCODING 11
SWIDTH 750 0
DWIDTH 6 0
BBX 6 8 0 -1
BITMAP
1C
0C
14
74
90
90
90
60
ENDCHAR
STARTCHAR uni000C
ENCODING 12
SWIDTH 750 0
DWIDTH 6 0
BBX 4 8 1 -1
BITMAP
60
90
90
90
60
60
F0
60
ENDCHAR
STARTCHAR uni000D
ENCODING 13
SWIDTH 750 0
DWIDTH 6 0
BBX 6 8 0 -1
BITMAP
3C
24
3C
20
20
60
E0
C0
ENDCHAR
STARTCHAR uni000E
ENCODING 14
SWIDTH 750 0
DWIDTH 6 0
BBX 6 8 0 -1
BITMAP
3C
24
3C
24
24
44
98
80
ENDCHAR
STARTCHAR uni000F
ENCODING 15
SWIDTH 750 0
DWIDTH 6 0
BBX 6 8 0 -1
BITMAP
20
B4
78
CC
CC
30
B4
30
ENDCHAR
STARTCHAR uni0010
ENCODING 16
SWIDTH 750 0
DWIDTH 6 0
BBX 5 7 0 0
BITMAP
80
C0
E0
F8
E0
C0
80
ENDCHAR
STARTCHAR uni0011
ENCODING 17
SWIDTH 750 0
DWIDTH 6 0
BBX 5 7 0 0
BITMAP
08
18
38
F8
38
18
08
ENDCHAR
STARTCHAR uni0012
ENCODING 18
SWIDTH 750 0
DWIDTH 6 0
BBX 5 8 0 -1
BITMAP
20
70
F8
20
20
F8
70
20
ENDCHAR
STARTCHAR uni0013
ENCODING 19
SWIDTH 750 0
DWIDTH 6 0
BBX 3 7 1 0
BITMAP
A0
A0
A0
A0
A0
00
A0
ENDCHAR
STARTCHAR uni0014
ENCODING 20
SWIDTH 750 0
DWIDTH 6 0
BBX 6 7 0 0
BITMAP
7C
A8
A8
68
28
28
28
ENDCHAR
STARTCHAR uni0015
ENCODING 21
SWIDTH 750 0
DWIDTH 6 0
BBX 6 8 0 -1
BITMAP
38
4C
30
48
48
30
C8
70
ENDCHAR
STARTCHAR uni0016
ENCODING 22
SWIDTH 750 0
DWIDTH 6 0
BBX 4 3 1 0
BITMAP
F0
F0
F0
ENDCHAR
STARTCHAR uni0017
ENCODING 23
SWIDTH 750 0
DWIDTH 6 0
BBX 6 8 0 -1
BITMAP
20
70
F8
20
F8
70
20
FC
ENDCHAR
STARTCHAR uni0018
ENCODING 24
SWIDTH 750 0
DWIDTH 6 0
BBX 5 7 0 0
BITMAP
20
70
F8
A8
20
20
20
ENDCHAR
STARTCHAR uni0019
ENCODING 25
SWIDTH 750 0
DWIDTH 6 0
BBX 5 7 0 0
BITMAP
20
20
20
A8
F8
70
20
ENDCHAR
STARTCHAR uni001A
ENCODING 26
SWIDTH 750 0
DWIDTH 6 0
BBX 5 5 0 1
BITMAP
20
10
F8
10
20
ENDCHAR
STARTCHAR uni001B
ENCODING 27
SWIDTH 750 0
DWIDTH 6 0
BBX 5 5 0 1
BITMAP
20
40
F8
40
20
ENDCHAR
STARTCHAR uni001C
ENCODING 28
SWIDTH 750 0
DWIDTH 6 0
BBX 4 4 1 1
BITMAP
80
80
80
F0
ENDCHAR
STARTCHAR uni001D
ENCODING 29
SWIDTH 750 0
DWIDTH 6 0
BBX 6 5 0 1
BITMAP
48
84
FC
84
48
ENDCHAR
STARTCHAR uni001E
ENCODING 30
SWIDTH 750 0
DWIDTH 6 0
BBX 5 5 0 1
BITMAP
20
20
70
F8
F8
ENDCHAR
STARTCHAR uni001F
ENCODING 31
SWIDTH 750 0
DWIDTH 6 0
BBX 5 5 0 1
BITMAP
F8
F8
70
20
20
ENDCHAR
STARTCHAR space
ENCODING 32
SWIDTH 750 0
DWIDTH 6 0
BBX 1 1 5 -1
BITMAP
00
ENDCHAR
STARTCHAR exclam
ENCODING 33
SWIDTH 750 0
DWIDTH 6 0
BBX 3 7 1 0
BITMAP
40
E0
E0
40
40
00
40
ENDCHAR
STARTCHAR quotedbl
ENCODING 34
SWIDTH 750 0
DWIDTH 6 0
BBX 3 3 1 4
BITMAP
A0
A0
A0
ENDCHAR
STARTCHAR numbersign
ENCODING 35
SWIDTH 750 0
DWIDTH 6 0
BBX 5 7 0 0
BITMAP
50
50
F8
50
F8
50
50
ENDCHAR
STARTCHAR dollar
ENCODING 36
SWIDTH 750 0
DWIDTH 6 0
BBX 5 7 0 0
BITMAP
20
78
80
70
08
F0
60
ENDCHAR
STARTCHAR percent
ENCODING 37
SWIDTH 750 0
DWIDTH 6 0
BBX 5 6 0 0
BITMAP
C8
90
20
40
48
98
ENDCHAR
STARTCHAR ampersand
ENCODING 38
SWIDTH 750 0
DWIDTH 6 0
BBX 5 7 0 0
BITMAP
20
50
20
A8
90
90
68
ENDCHAR
STARTCHAR quotesingle
ENCODING 39
SWIDTH 750 0
DWIDTH 6 0
BBX 2 3 1 4
BITMAP
40
40
80
ENDCHAR
STARTCHAR parenleft
ENCODING 40
SWIDTH 750 0
DWIDTH 6 0
BBX 3 7 0 0
BITMAP
20
40
80
80
80
40
20
ENDCHAR
STARTCHAR parenright
ENCODING 41
SWIDTH 750 0
DWIDTH 6 0
BBX 3 7 1 0
BITMAP
80
40
20
20
20
40
80
ENDCHAR
STARTCHAR asterisk
ENCODING 42
SWIDTH 750 0
DWIDTH 6 0
BBX 5 5 0 1
BITMAP
50
20
F8
20
50
ENDCHAR
STARTCHAR plus
ENCODING 43
SWIDTH 750 0
DWIDTH 6 0
BBX 5 5 1 1
BITMAP
20
20
F8
20
20
ENDCHAR
STARTCHAR comma
ENCODING 44
SWIDTH 750 0
DWIDTH 6 0
BBX 2 3 1 -1
BITMAP
40
40
80
ENDCHAR
STARTCHAR hyphen
ENCODING 45
SWIDTH 750 0
DWIDTH 6 0
BBX 4 1 1 3
BITMAP
F0
ENDCHAR
STARTCHAR period
ENCODING 46
SWIDTH 750 0
DWIDTH 6 0
BBX 1 2 2 0
BITMAP
80
80
ENDCHAR
STARTCHAR slash
ENCODING 47
SWIDTH 750 0
DWIDTH 6 0
BBX 6 6 0 0
BITMAP
04
08
10
20
40
80
ENDCHAR
STARTCHAR zero
ENCODING 48
SWIDTH 750 0
DWIDTH 6 0
BBX 5 7 0 0
BITMAP
70
88
98
A8
C8
C8
70
ENDCHAR
STARTCHAR one
ENCODING 49
SWIDTH 750 0
DWIDTH 6 0
BBX 5 7 0 0
BITMAP
20
60
A0
20
20
20
F8
ENDCHAR
STARTCHAR two
ENCODING 50
SWIDTH 750 0
DWIDTH 6 0
BBX 5 7 0 0
BITMAP
70
88
08
30
60
88
F8
ENDCHAR
STARTCHAR three
ENCODING 51
SWIDTH 750 0
DWIDTH 6 0
BBX 5 7 0 0
BITMAP
70
88
08
30
08
88
70
ENDCHAR
STARTCHAR four
ENCODING 52
SWIDTH 750 0
DWIDTH 6 0
BBX 5 7 0 0
BITMAP
10
30
50
90
F8
10
38
ENDCHAR
STARTCHAR five
ENCODING 53
SWIDTH 750 0
DWIDTH 6 0
BBX 5 7 0 0
BITMAP
F8
80
80
F0
08
88
70
ENDCHAR
STARTCHAR six
ENCODING 54
SWIDTH 750 0
DWIDTH 6 0
BBX 5 7 0 0
BITMAP
30
40
80
F0
88
88
70
ENDCHAR
STARTCHAR seven
ENCODING 55
SWIDTH 750 0
DWIDTH 6 0
BBX 5 7 0 0
BITMAP
F8
88
10
20
40
40
40
ENDCHAR
STARTCHAR eight
ENCODING 56
SWIDTH 750 0
DWIDTH 6 0
BBX 5 7 0 0
BITMAP
70
88
88
70
88
88
70
ENDCHAR
STARTCHAR nine
ENCODING 57
SWIDTH 750 0
DWIDTH 6 0
BBX 5 7 0 0
BITMAP
70
88
88
78
08
08
70
ENDCHAR
STARTCHAR colon
ENCODING 58
SWIDTH 750 0
DWIDTH 6 0
BBX 1 6 2 0
BITMAP
80
80
00
00
80
80
ENDCHAR
STARTCHAR semicolon
ENCODING 59
SWIDTH 750 0
DWIDTH 6 0
BBX 2 7 1 -1
BITMAP
40
40
00
00
40
40
80
ENDCHAR
STARTCHAR less
ENCODING 60
SWIDTH 750 0
DWIDTH 6 0
BBX 4 7 0 0
BITMAP
10
20
40
80
40
20
10
ENDCHAR
STARTCHAR equal
ENCODING 61
SWIDTH 750 0
DWIDTH 6 0
BBX 5 4 0 1
BITMAP
F8
00
00
F8
ENDCHAR
STARTCHAR greater
ENCODING 62
SWIDTH 750 0
DWIDTH 6 0
BBX 4 7 1 0
BITMAP
80
40
20
10
20
40
80
ENDCHAR
STARTCHAR question
ENCODING 63
SWIDTH 750 0
DWIDTH 6 0
BBX 5 7 0 0
BITMAP
70
88
08
10
20
00
20
ENDCHAR
STARTCHAR at
ENCODING 64
SWIDTH 750 0
DWIDTH 6 0
BBX 5 7 0 0
BITMAP
70
88
B8
A8
B8
80
70
ENDCHAR
STARTCHAR A
ENCODING 65
SWIDTH 750 0
DWIDTH 6 0
BBX 5 7 0 0
BITMAP
20
50
88
88
F8
88
88
ENDCHAR
STARTCHAR B
ENCODING 66
SWIDTH 750 0
DWIDTH 6 0
BBX 5 7 0 0
BITMAP
F0
48
48
70
48
48
F0
ENDCHAR
STARTCHAR C
ENCODING 67
SWIDTH 750 0
DWIDTH 6 0
BBX 5 7 0 0
BITMAP
30
48
80
80
80
48
30
ENDCHAR
STARTCHAR D
ENCODING 68
SWIDTH 750 0
DWIDTH 6 0
BBX 5 7 0 0
BITMAP
F0
48
48
48
48
48
F0
ENDCHAR
STARTCHAR E
ENCODING 69
SWIDTH 750 0
DWIDTH 6 0
BBX 5 7 0 0
BITMAP
F8
48
40
70
40
48
F8
ENDCHAR
STARTCHAR F
ENCODING 70
SWIDTH 750 0
DWIDTH 6 0
BBX 5 7 0 0
BITMAP
F8
48
40
70
40
40
E0
ENDCHAR
STARTCHAR G
ENCODING 71
SWIDTH 750 0
DWIDTH 6 0
BBX 5 7 0 0
BITMAP
30
48
80
80
98
48
38
ENDCHAR
STARTCHAR H
ENCODING 72
SWIDTH 750 0
DWIDTH 6 0
BBX 5 7 0 0
BITMAP
88
88
88
F8
88
88
88
ENDCHAR
STARTCHAR I
ENCODING 73
SWIDTH 750 0
DWIDTH 6 0
BBX 3 7 1 0
BITMAP
E0
40
40
40
40
40
E0
ENDCHAR
STARTCHAR J
ENCODING 74
SWIDTH 750 0
DWIDTH 6 0
BBX 5 7 0 0
BITMAP
38
10
10
10
90
90
60
ENDCHAR
STARTCHAR K
ENCODING 75
SWIDTH 750 0
DWIDTH 6 0
BBX 6 7 0 0
BITMAP
C8
50
50
60
50
50
CC
ENDCHAR
STARTCHAR L
ENCODING 76
SWIDTH 750 0
DWIDTH 6 0
BBX 5 7 0 0
BITMAP
E0
40
40
40
40
48
F8
ENDCHAR
STARTCHAR M
ENCODING 77
SWIDTH 750 0
DWIDTH 6 0
BBX 5 7 0 0
BITMAP
88
D8
A8
A8
88
88
88
ENDCHAR
STARTCHAR N
ENCODING 78
SWIDTH 750 0
DWIDTH 6 0
BBX 5 7 0 0
BITMAP
88
C8
A8
98
88
88
88
ENDCHAR
STARTCHAR O
ENCODING 79
SWIDTH 750 0
DWIDTH 6 0
BBX 5 7 0 0
BITMAP
70
88
88
88
88
88
70
ENDCHAR
STARTCHAR P
ENCODING 80
SWIDTH 750 0
DWIDTH 6 0
BBX 5 7 0 0
BITMAP
F0
48
48
70
40
40
E0
ENDCHAR
STARTCHAR Q
ENCODING 81
SWIDTH 750 0
DWIDTH 6 0
BBX 6 8 0 -1
BITMAP
70
88
88
88
88
A8
70
0C
ENDCHAR
STARTCHAR R
ENCODING 82
SWIDTH 750 0
DWIDTH 6 0
BBX 5 7 0 0
BITMAP
F0
48
48
70
60
50
C8
ENDCHAR
STARTCHAR S
ENCODING 83
SWIDTH 750 0
DWIDTH 6 0
BBX 5 7 0 0
BITMAP
70
88
80
70
08
88
70
ENDCHAR
STARTCHAR T
ENCODING 84
SWIDTH 750 0
DWIDTH 6 0
BBX 5 7 0 0
BITMAP
F8
A8
20
20
20
20
70
ENDCHAR
STARTCHAR U
ENCODING 85
SWIDTH 750 0
DWIDTH 6 0
BBX 5 7 0 0
BITMAP
88
88
88
88
88
88
70
ENDCHAR
STARTCHAR V
ENCODING 86
SWIDTH 750 0
DWIDTH 6 0
BBX 5 7 0 0
BITMAP
88
88
88
88
88
50
20
ENDCHAR
STARTCHAR W
ENCODING 87
SWIDTH 750 0
DWIDTH 6 0
BBX 5 7 0 0
BITMAP
88
88
88
A8
A8
A8
50
ENDCHAR
STARTCHAR X
ENCODING 88
SWIDTH 750 0
DWIDTH 6 0
BBX 5 7 0 0
BITMAP
88
50
50
20
50
50
88
ENDCHAR
STARTCHAR Y
ENCODING 89
SWIDTH 750 0
DWIDTH 6 0
BBX 5 7 0 0
BITMAP
88
88
50
20
20
20
70
ENDCHAR
STARTCHAR Z
ENCODING 90
SWIDTH 750 0
DWIDTH 6 0
BBX 5 7 0 0
BITMAP
F8
88
10
20
40
88
F8
ENDCHAR
STARTCHAR bracketleft
ENCODING 91
SWIDTH 750 0
DWIDTH 6 0
BBX 3 7 0 0
BITMAP
E0
80
80
80
80
80
E0
ENDCHAR
STARTCHAR backslash
ENCODING 92
SWIDTH 750 0
DWIDTH 6 0
BBX 6 7 0 0
BITMAP
80
80
40
20
10
08
04
ENDCHAR
STARTCHAR bracketright
ENCODING 93
SWIDTH 750 0
DWIDTH 6 0
BBX 3 7 0 0
BITMAP
E0
20
20
20
20
20
E0
ENDCHAR
STARTCHAR asciicircum
ENCODING 94
SWIDTH 750 0
DWIDTH 6 0
BBX 5 4 0 3
BITMAP
20
50
88
88
ENDCHAR
STARTCHAR underscore
ENCODING 95
SWIDTH 750 0
DWIDTH 6 0
BBX 6 1 0 -1
BITMAP
FC
ENDCHAR
STARTCHAR grave
ENCODING 96
SWIDTH 750 0
DWIDTH 6 0
BBX 2 3 2 4
BITMAP
80
80
40
ENDCHAR
STARTCHAR a
ENCODING 97
SWIDTH 750 0
DWIDTH 6 0
BBX 6 5 0 0
BITMAP
70
08
78
88
7C
ENDCHAR
STARTCHAR b
ENCODING 98
SWIDTH 750 0
DWIDTH 6 0
BBX 5 7 0 0
BITMAP
C0
40
40
50
68
48
B0
ENDCHAR
STARTCHAR c
ENCODING 99
SWIDTH 750 0
DWIDTH 6 0
BBX 5 5 0 0
BITMAP
70
88
80
88
70
ENDCHAR
STARTCHAR d
ENCODING 100
SWIDTH 750 0
DWIDTH 6 0
BBX 6 7 0 0
BITMAP
18
08
08
68
98
98
6C
ENDCHAR
STARTCHAR e
ENCODING 101
SWIDTH 750 0
DWIDTH 6 0
BBX 5 5 0 0
BITMAP
70
88
F8
80
70
ENDCHAR
STARTCHAR f
ENCODING 102
SWIDTH 750 0
DWIDTH 6 0
BBX 5 7 0 0
BITMAP
30
48
40
E0
40
40
E0
ENDCHAR
STARTCHAR g
ENCODING 103
SWIDTH 750 0
DWIDTH 6 0
BBX 5 6 0 -1
BITMAP
68
88
88
78
08
F0
ENDCHAR
STARTCHAR h
ENCODING 104
SWIDTH 750 0
DWIDTH 6 0
BBX 5 7 0 0
BITMAP
C0
40
50
68
48
48
C8
ENDCHAR
STARTCHAR i
ENCODING 105
SWIDTH 750 0
DWIDTH 6 0
BBX 3 7 1 0
BITMAP
40
00
C0
40
40
40
E0
ENDCHAR
STARTCHAR j
ENCODING 106
SWIDTH 750 0
DWIDTH 6 0
BBX 5 8 0 -1
BITMAP
08
00
18
08
08
88
88
70
ENDCHAR
STARTCHAR k
ENCODING 107
SWIDTH 750 0
DWIDTH 6 0
BBX 5 7 0 0
BITMAP
C0
40
48
50
60
50
48
ENDCHAR
STARTCHAR l
ENCODING 108
SWIDTH 750 0
DWIDTH 6 0
BBX 3 7 1 0
BITMAP
C0
40
40
40
40
40
E0
ENDCHAR
STARTCHAR m
ENCODING 109
SWIDTH 750 0
DWIDTH 6 0
BBX 5 5 0 0
BITMAP
D0
A8
A8
A8
A8
ENDCHAR
STARTCHAR n
ENCODING 110
SWIDTH 750 0
DWIDTH 6 0
BBX 5 5 0 0
BITMAP
B0
C8
88
88
88
ENDCHAR
STARTCHAR o
ENCODING 111
SWIDTH 750 0
DWIDTH 6 0
BBX 5 5 0 0
BITMAP
70
88
88
88
70
ENDCHAR
STARTCHAR p
ENCODING 112
SWIDTH 750 0
DWIDTH 6 0
BBX 5 6 0 -1
BITMAP
F0
48
48
70
40
E0
ENDCHAR
STARTCHAR q
ENCODING 113
SWIDTH 750 0
DWIDTH 6 0
BBX 5 6 0 -1
BITMAP
68
90
90
70
10
38
ENDCHAR
STARTCHAR r
ENCODING 114
SWIDTH 750 0
DWIDTH 6 0
BBX 5 5 0 0
BITMAP
D8
68
40
40
E0
ENDCHAR
STARTCHAR s
ENCODING 115
SWIDTH 750 0
DWIDTH 6 0
BBX 5 5 0 0
BITMAP
78
80
70
08
F0
ENDCHAR
STARTCHAR t
ENCODING 116
SWIDTH 750 0
DWIDTH 6 0
BBX 5 7 0 0
BITMAP
40
40
F0
40
40
48
30
ENDCHAR
STARTCHAR u
ENCODING 117
SWIDTH 750 0
DWIDTH 6 0
BBX 5 5 0 0
BITMAP
88
88
88
98
68
ENDCHAR
STARTCHAR v
ENCODING 118
SWIDTH 750 0
DWIDTH 6 0
BBX 5 5 0 0
BITMAP
88
88
88
50
20
ENDCHAR
STARTCHAR w
ENCODING 119
SWIDTH 750 0
DWIDTH 6 0
BBX 5 5 0 0
BITMAP
88
A8
A8
A8
50
ENDCHAR
STARTCHAR x
ENCODING 120
SWIDTH 750 0
DWIDTH 6 0
BBX 5 5 0 0
BITMAP
88
50
20
50
88
ENDCHAR
STARTCHAR y
ENCODING 121
SWIDTH 750 0
DWIDTH 6 0
BBX 5 6 0 -1
BITMAP
88
88
88
78
08
F0
ENDCHAR
STARTCHAR z
ENCODING 122
SWIDTH 750 0
DWIDTH 6 0
BBX 5 5 0 0
BITMAP
F8
10
20
40
F8
ENDCHAR
STARTCHAR braceleft
ENCODING 123
SWIDTH 750 0
DWIDTH 6 0
BBX 5 7 0 0
BITMAP
18
20
20
C0
20
20
18
ENDCHAR
STARTCHAR bar
ENCODING 124
SWIDTH 750 0
DWIDTH 6 0
BBX 1 7 2 0
BITMAP
80
80
80
00
80
80
80
ENDCHAR
STARTCHAR braceright
ENCODING 125
SWIDTH 750 0
DWIDTH 6 0
BBX 5 7 0 0
BITMAP
C0
20
20
18
20
20
C0
ENDCHAR
STARTCHAR asciitilde
ENCODING 126
SWIDTH 750 0
DWIDTH 6 0
BBX 5 2 0 5
BITMAP
48
B0
ENDCHAR
STARTCHAR uni007F
ENCODING 127
SWIDTH 750 0
DWIDTH 6 0
BBX 5 6 0 0
BITMAP
20
50
88
88
88
F8
ENDCHAR
STARTCHAR uni00A0
ENCODING 160
SWIDTH 750 0
DWIDTH 6 0
BBX 1 1 5 -1
BITMAP
00
ENDCHAR
STARTCHAR exclamdown
ENCODING 161
SWIDTH 750 0
DWIDTH 6 0
BBX 1 6 1 0
BITMAP
80
00
80
80
80
80
ENDCHAR
STARTCHAR cent
ENCODING 162
SWIDTH 750 0
DWIDTH 6 0
BBX 5 8 0 -1
BITMAP
20
20
78
80
80
78
20
20
ENDCHAR
STARTCHAR sterling
ENCODING 163
SWIDTH 750 0
DWIDTH 6 0
BBX 5 7 0 0
BITMAP
30
48
40
E0
40
88
F0
ENDCHAR
STARTCHAR yen
ENCODING 165
SWIDTH 750 0
DWIDTH 6 0
BBX 5 7 0 0
BITMAP
88
50
F8
20
F8
20
20
ENDCHAR
STARTCHAR section
ENCODING 167
SWIDTH 750 0
DWIDTH 6 0
BBX 6 8 0 -1
BITMAP
38
4C
30
48
48
30
C8
70
ENDCHAR
STARTCHAR ordfeminine
ENCODING 170
SWIDTH 750 0
DWIDTH 6 0
BBX 5 6 0 1
BITMAP
70
90
90
78
00
F8
ENDCHAR
STARTCHAR guillemotleft
ENCODING 171
SWIDTH 750 0
DWIDTH 6 0
BBX 5 5 0 1
BITMAP
28
50
A0
50
28
ENDCHAR
STARTCHAR logicalnot
ENCODING 172
SWIDTH 750 0
DWIDTH 6 0
BBX 5 3 0 1
BITMAP
F8
08
08
ENDCHAR
STARTCHAR degree
ENCODING 176
SWIDTH 750 0
DWIDTH 6 0
BBX 4 4 1 3
BITMAP
60
90
90
60
ENDCHAR
STARTCHAR plusminus
ENCODING 177
SWIDTH 750 0
DWIDTH 6 0
BBX 5 7 0 0
BITMAP
20
20
F8
20
20
00
F8
ENDCHAR
STARTCHAR uni00B2
ENCODING 178
SWIDTH 750 0
DWIDTH 6 0
BBX 4 5 0 2
BITMAP
60
90
20
40
F0
ENDCHAR
STARTCHAR mu
ENCODING 181
SWIDTH 750 0
DWIDTH 6 0
BBX 6 7 0 -1
BITMAP
48
48
48
74
40
40
80
ENDCHAR
STARTCHAR paragraph
ENCODING 182
SWIDTH 750 0
DWIDTH 6 0
BBX 6 7 0 0
BITMAP
7C
A8
A8
68
28
28
28
ENDCHAR
STARTCHAR periodcentered
ENCODING 183
SWIDTH 750 0
DWIDTH 6 0
BBX 2 1 2 2
BITMAP
C0
ENDCHAR
STARTCHAR ordmasculine
ENCODING 186
SWIDTH 750 0
DWIDTH 6 0
BBX 4 6 0 1
BITMAP
60
90
90
60
00
F0
ENDCHAR
STARTCHAR guillemotright
ENCODING 187
SWIDTH 750 0
DWIDTH 6 0
BBX 5 5 0 1
BITMAP
A0
50
28
50
A0
ENDCHAR
STARTCHAR onequarter
ENCODING 188
SWIDTH 750 0
DWIDTH 6 0
BBX 6 8 0 -1
BITMAP
48
D0
58
D8
58
BC
88
08
ENDCHAR
STARTCHAR onehalf
ENCODING 189
SWIDTH 750 0
DWIDTH 6 0
BBX 6 8 0 -1
BITMAP
48
D0
60
D8
54
8C
98
7C
ENDCHAR
STARTCHAR questiondown
ENCODING 191
SWIDTH 750 0
DWIDTH 6 0
BBX 5 7 0 0
BITMAP
20
00
20
40
80
88
70
ENDCHAR
STARTCHAR Adieresis
ENCODING 196
SWIDTH 750 0
DWIDTH 6 0
BBX 5 7 0 0
BITMAP
88
20
50
88
F8
88
88
ENDCHAR
STARTCHAR Aring
ENCODING 197
SWIDTH 750 0
DWIDTH 6 0
BBX 5 7 0 0
BITMAP
20
20
00
70
88
F8
88
ENDCHAR
STARTCHAR AE
ENCODING 198
SWIDTH 750 0
DWIDTH 6 0
BBX 5 7 0 0
BITMAP
38
50
90
F8
90
90
98
ENDCHAR
STARTCHAR Ccedilla
ENCODING 199
SWIDTH 750 0
DWIDTH 6 0
BBX 5 8 0 -1
BITMAP
70
88
80
88
70
30
08
70
ENDCHAR
STARTCHAR Eacute
ENCODING 201
SWIDTH 750 0
DWIDTH 6 0
BBX 5 7 0 0
BITMAP
18
00
F8
40
70
40
F8
ENDCHAR
STARTCHAR Ntilde
ENCODING 209
SWIDTH 750 0
DWIDTH 6 0
BBX 5 7 0 0
BITMAP
68
98
00
C8
A8
98
88
ENDCHAR
STARTCHAR Odieresis
ENCODING 214
SWIDTH 750 0
DWIDTH 6 0
BBX 5 7 0 0
BITMAP
88
20
50
88
88
50
20
ENDCHAR
STARTCHAR Udieresis
ENCODING 220
SWIDTH 750 0
DWIDTH 6 0
BBX 5 7 0 0
BITMAP
88
00
88
88
88
88
70
ENDCHAR
STARTCHAR germandbls
ENCODING 223
SWIDTH 750 0
DWIDTH 6 0
BBX 5 7 0 -1
BITMAP
70
88
F0
88
F0
80
80
ENDCHAR
STARTCHAR agrave
ENCODING 224
SWIDTH 750 0
DWIDTH 6 0
BBX 5 7 0 0
BITMAP
60
00
60
10
70
90
78
ENDCHAR
STARTCHAR aacute
ENCODING 225
SWIDTH 750 0
DWIDTH 6 0
BBX 5 7 0 0
BITMAP
30
00
60
10
70
90
78
ENDCHAR
STARTCHAR acircumflex
ENCODING 226
SWIDTH 750 0
DWIDTH 6 0
BBX 5 7 0 0
BITMAP
70
88
60
10
70
90
78
ENDCHAR
STARTCHAR adieresis
ENCODING 228
SWIDTH 750 0
DWIDTH 6 0
BBX 5 7 0 0
BITMAP
88
00
60
10
70
90
78
ENDCHAR
STARTCHAR aring
ENCODING 229
SWIDTH 750 0
DWIDTH 6 0
BBX 5 7 0 0
BITMAP
20
00
60
10
70
90
78
ENDCHAR
STARTCHAR ae
ENCODING 230
SWIDTH 750 0
DWIDTH 6 0
BBX 5 5 0 0
BITMAP
C8
30
78
90
68
ENDCHAR
STARTCHAR ccedilla
ENCODING 231
SWIDTH 750 0
DWIDTH 6 0
BBX 5 6 0 -1
BITMAP
70
80
80
70
18
30
ENDCHAR
STARTCHAR egrave
ENCODING 232
SWIDTH 750 0
DWIDTH 6 0
BBX 5 7 0 0
BITMAP
60
00
70
88
F8
80
70
ENDCHAR
STARTCHAR eacute
ENCODING 233
SWIDTH 750 0
DWIDTH 6 0
BBX 5 7 0 0
BITMAP
30
00
70
88
F8
80
70
ENDCHAR
STARTCHAR ecircumflex
ENCODING 234
SWIDTH 750 0
DWIDTH 6 0
BBX 5 7 0 0
BITMAP
70
88
70
88
F8
80
70
ENDCHAR
STARTCHAR edieresis
ENCODING 235
SWIDTH 750 0
DWIDTH 6 0
BBX 5 7 0 0
BITMAP
88
00
70
88
F8
80
70
ENDCHAR
STARTCHAR igrave
ENCODING 236
SWIDTH 750 0
DWIDTH 6 0
BBX 3 7 1 0
BITMAP
C0
00
C0
40
40
40
E0
ENDCHAR
STARTCHAR iacute
ENCODING 237
SWIDTH 750 0
DWIDTH 6 0
BBX 3 7 1 0
BITMAP
60
00
C0
40
40
40
E0
ENDCHAR
STARTCHAR icircumflex
ENCODING 238
SWIDTH 750 0
DWIDTH 6 0
BBX 5 7 0 0
BITMAP
70
88
60
20
20
20
70
ENDCHAR
STARTCHAR idieresis
ENCODING 239
SWIDTH 750 0
DWIDTH 6 0
BBX 4 7 0 0
BITMAP
90
00
60
20
20
20
70
ENDCHAR
STARTCHAR ntilde
ENCODING 241
SWIDTH 750 0
DWIDTH 6 0
BBX 5 7 0 0
BITMAP
68
B0
00
F0
88
88
88
ENDCHAR
STARTCHAR ograve
ENCODING 242
SWIDTH 750 0
DWIDTH 6 0
BBX 5 7 0 0
BITMAP
40
20
00
70
88
88
70
ENDCHAR
STARTCHAR oacute
ENCODING 243
SWIDTH 750 0
DWIDTH 6 0
BBX 5 7 0 0
BITMAP
10
20
00
70
88
88
70
ENDCHAR
STARTCHAR ocircumflex
ENCODING 244
SWIDTH 750 0
DWIDTH 6 0
BBX 5 7 0 0
BITMAP
20
50
00
70
88
88
70
ENDCHAR
STARTCHAR odieresis
ENCODING 246
SWIDTH 750 0
DWIDTH 6 0
BBX 5 6 0 0
BITMAP
88
00
70
88
88
70
ENDCHAR
STARTCHAR divide
ENCODING 247
SWIDTH 750 0
DWIDTH 6 0
BBX 6 7 0 0
BITMAP
30
30
00
FC
00
30
30
ENDCHAR
STARTCHAR ugrave
ENCODING 249
SWIDTH 750 0
DWIDTH 6 0
BBX 5 7 0 0
BITMAP
40
20
00
88
88
88
70
ENDCHAR
STARTCHAR uacute
ENCODING 250
SWIDTH 750 0
DWIDTH 6 0
BBX 5 6 0 0
BITMAP
10
20
88
88
88
70
ENDCHAR
STARTCHAR ucircumflex
ENCODING 251
SWIDTH 750 0
DWIDTH 6 0
BBX 5 7 0 0
BITMAP
20
50
00
88
88
88
70
ENDCHAR
STARTCHAR udieresis
ENCODING 252
SWIDTH 750 0
DWIDTH 6 0
BBX 5 6 0 0
BITMAP
90
00
90
90
90
78
ENDCHAR
STARTCHAR ydieresis
ENCODING 255
SWIDTH 750 0
DWIDTH 6 0
BBX 5 7 0 -1
BITMAP
88
00
88
88
78
08
70
ENDCHAR
STARTCHAR florin
ENCODING 402
SWIDTH 750 0
DWIDTH 6 0
BBX 5 8 0 -1
BITMAP
30
28
20
70
20
20
A0
60
ENDCHAR
STARTCHAR Gamma
ENCODING 915
SWIDTH 750 0
DWIDTH 6 0
BBX 5 6 0 0
BITMAP
F8
88
80
80
80
80
ENDCHAR
STARTCHAR Theta
ENCODING 920
SWIDTH 750 0
DWIDTH 6 0
BBX 6 7 0 0
BITMAP
30
48
84
FC
84
48
30
ENDCHAR
STARTCHAR Sigma
ENCODING 931
SWIDTH 750 0
DWIDTH 6 0
BBX 5 7 0 0
BITMAP
F8
88
40
30
40
88
F8
ENDCHAR
STARTCHAR Phi
ENCODING 934
SWIDTH 750 0
DWIDTH 6 0
BBX 5 8 0 -1
BITMAP
F8
20
70
88
88
70
20
F8
ENDCHAR
STARTCHAR uni03A9
ENCODING 937
SWIDTH 750 0
DWIDTH 6 0
BBX 6 7 0 0
BITMAP
30
48
84
84
48
48
CC
ENDCHAR
STARTCHAR alpha
ENCODING 945
SWIDTH 750 0
DWIDTH 6 0
BBX 6 5 0 0
BITMAP
64
A8
90
A8
44
ENDCHAR
STARTCHAR delta
ENCODING 948
SWIDTH 750 0
DWIDTH 6 0
BBX 6 7 0 0
BITMAP
38
40
30
78
84
84
78
ENDCHAR
STARTCHAR epsilon
ENCODING 949
SWIDTH 750 0
DWIDTH 6 0
BBX 4 7 0 0
BITMAP
30
40
80
F0
80
40
30
ENDCHAR
STARTCHAR pi
ENCODING 960
SWIDTH 750 0
DWIDTH 6 0
BBX 6 6 0 0
BITMAP
7C
A8
28
28
28
28
ENDCHAR
STARTCHAR sigma
ENCODING 963
SWIDTH 750 0
DWIDTH 6 0
BBX 5 5 0 0
BITMAP
78
A0
A0
A0
40
ENDCHAR
STARTCHAR tau
ENCODING 964
SWIDTH 750 0
DWIDTH 6 0
BBX 6 6 0 0
BITMAP
64
98
10
10
10
10
ENDCHAR
STARTCHAR phi
ENCODING 966
SWIDTH 750 0
DWIDTH 6 0
BBX 6 8 0 -1
BITMAP
04
08
78
94
A4
78
40
80
ENDCHAR
STARTCHAR bullet
ENCODING 8226
SWIDTH 750 0
DWIDTH 6 0
BBX 4 4 1 1
BITMAP
60
F0
F0
60
ENDCHAR
STARTCHAR exclamdbl
ENCODING 8252
SWIDTH 750 0
DWIDTH 6 0
BBX 3 7 1 0
BITMAP
A0
A0
A0
A0
A0
00
A0
ENDCHAR
STARTCHAR uni207F
ENCODING 8319
SWIDTH 750 0
DWIDTH 6 0
BBX 4 5 0 2
BITMAP
E0
90
90
90
90
ENDCHAR
STARTCHAR peseta
ENCODING 8359
SWIDTH 750 0
DWIDTH 6 0
BBX 6 8 0 -1
BITMAP
F0
58
70
48
5C
48
4C
C8
ENDCHAR
STARTCHAR arrowleft
ENCODING 8592
SWIDTH 750 0
DWIDTH 6 0
BBX 5 5 0 1
BITMAP
20
40
F8
40
20
ENDCHAR
STARTCHAR arrowup
ENCODING 8593
SWIDTH 750 0
DWIDTH 6 0
BBX 5 7 0 0
BITMAP
20
70
F8
A8
20
20
20
ENDCHAR
STARTCHAR arrowright
ENCODING 8594
SWIDTH 750 0
DWIDTH 6 0
BBX 5 5 0 1
BITMAP
20
10
F8
10
20
ENDCHAR
STARTCHAR arrowdown
ENCODING 8595
SWIDTH 750 0
DWIDTH 6 0
BBX 5 7 0 0
BITMAP
20
20
20
A8
F8
70
20
ENDCHAR
STARTCHAR arrowboth
ENCODING 8596
SWIDTH 750 0
DWIDTH 6 0
BBX 6 5 0 1
BITMAP
48
84
FC
84
48
ENDCHAR
STARTCHAR arrowupdn
ENCODING 8597
SWIDTH 750 0
DWIDTH 6 0
BBX 5 8 0 -1
BITMAP
20
70
F8
20
20
F8
70
20
ENDCHAR
STARTCHAR arrowupdnbse
ENCODING 8616
SWIDTH 750 0
DWIDTH 6 0
BBX 6 8 0 -1
BITMAP
20
70
F8
20
F8
70
20
FC
ENDCHAR
STARTCHAR uni2219
ENCODING 8729
SWIDTH 750 0
DWIDTH 6 0
BBX 2 2 2 2
BITMAP
C0
C0
ENDCHAR
STARTCHAR radical
ENCODING 8730
SWIDTH 750 0
DWIDTH 6 0
BBX 6 8 0 -1
BITMAP
1C
10
10
10
10
D0
50
30
ENDCHAR
STARTCHAR infinity
ENCODING 8734
SWIDTH 750 0
DWIDTH 6 0
BBX 6 5 0 1
BITMAP
48
B4
94
AC
48
ENDCHAR
STARTCHAR orthogonal
ENCODING 8735
SWIDTH 750 0
DWIDTH 6 0
BBX 4 4 1 1
BITMAP
80
80
80
F0
ENDCHAR
STARTCHAR intersection
ENCODING 8745
SWIDTH 750 0
DWIDTH 6 0
BBX 5 7 0 0
BITMAP
70
88
88
88
88
88
88
ENDCHAR
STARTCHAR approxequal
ENCODING 8776
SWIDTH 750 0
DWIDTH 6 0
BBX 6 5 0 1
BITMAP
64
98
00
64
98
ENDCHAR
STARTCHAR equivalence
ENCODING 8801
SWIDTH 750 0
DWIDTH 6 0
BBX 5 5 1 1
BITMAP
F8
00
F8
00
F8
ENDCHAR
STARTCHAR lessequal
ENCODING 8804
SWIDTH 750 0
DWIDTH 6 0
BBX 5 7 0 0
BITMAP
20
40
80
40
20
00
F8
ENDCHAR
STARTCHAR greaterequal
ENCODING 8805
SWIDTH 750 0
DWIDTH 6 0
BBX 5 7 0 0
BITMAP
20
10
08
10
20
00
F8
ENDCHAR
STARTCHAR house
ENCODING 8962
SWIDTH 750 0
DWIDTH 6 0
BBX 5 6 0 0
BITMAP
20
50
88
88
88
F8
ENDCHAR
STARTCHAR revlogicalnot
ENCODING 8976
SWIDTH 750 0
DWIDTH 6 0
BBX 5 3 0 1
BITMAP
F8
80
80
ENDCHAR
STARTCHAR integraltp
ENCODING 8992
SWIDTH 750 0
DWIDTH 6 0
BBX 4 8 2 -1
BITMAP
60
90
90
80
80
80
80
80
ENDCHAR
STARTCHAR integralbt
ENCODING 8993
SWIDTH 750 0
DWIDTH 6 0
BBX 3 8 0 -1
BITMAP
20
20
20
20
20
A0
A0
60
ENDCHAR
STARTCHAR SF100000
ENCODING 9472
SWIDTH 750 0
DWIDTH 6 0
BBX 6 1 0 2
BITMAP
FC
ENDCHAR
STARTCHAR SF110000
ENCODING 9474
SWIDTH 750 0
DWIDTH 6 0
BBX 1 8 2 -1
BITMAP
80
80
80
80
80
80
80
80
ENDCHAR
STARTCHAR SF010000
ENCODING 9484
SWIDTH 750 0
DWIDTH 6 0
BBX 4 4 2 -1
BITMAP
F0
80
80
80
ENDCHAR
STARTCHAR SF030000
ENCODING 9488
SWIDTH 750 0
DWIDTH 6 0
BBX 3 4 0 -1
BITMAP
E0
20
20
20
ENDCHAR
STARTCHAR SF020000
ENCODING 9492
SWIDTH 750 0
DWIDTH 6 0
BBX 4 5 2 2
BITMAP
80
80
80
80
F0
ENDCHAR
STARTCHAR SF040000
ENCODING 9496
SWIDTH 750 0
DWIDTH 6 0
BBX 3 5 0 2
BITMAP
20
20
20
20
E0
ENDCHAR
STARTCHAR SF080000
ENCODING 9500
SWIDTH 750 0
DWIDTH 6 0
BBX 4 8 2 -1
BITMAP
80
80
80
80
F0
80
80
80
ENDCHAR
STARTCHAR SF090000
ENCODING 9508
SWIDTH 750 0
DWIDTH 6 0
BBX 3 8 0 -1
BITMAP
20
20
20
20
E0
20
20
20
ENDCHAR
STARTCHAR SF060000
ENCODING 9516
SWIDTH 750 0
DWIDTH 6 0
BBX 6 4 0 -1
BITMAP
FC
20
20
20
ENDCHAR
STARTCHAR SF070000
ENCODING 9524
SWIDTH 750 0
DWIDTH 6 0
BBX 6 5 0 2
BITMAP
20
20
20
20
FC
ENDCHAR
STARTCHAR SF050000
ENCODING 9532
SWIDTH 750 0
DWIDTH 6 0
BBX 6 8 0 -1
BITMAP
20
20
20
20
FC
20
20
20
ENDCHAR
STARTCHAR SF430000
ENCODING 9552
SWIDTH 750 0
DWIDTH 6 0
BBX 6 3 0 2
BITMAP
FC
00
FC
ENDCHAR
STARTCHAR SF240000
ENCODING 9553
SWIDTH 750 0
DWIDTH 6 0
BBX 3 8 2 -1
BITMAP
A0
A0
A0
A0
A0
A0
A0
A0
ENDCHAR
STARTCHAR SF510000
ENCODING 9554
SWIDTH 750 0
DWIDTH 6 0
BBX 4 6 2 -1
BITMAP
F0
80
F0
80
80
80
ENDCHAR
STARTCHAR SF520000
ENCODING 9555
SWIDTH 750 0
DWIDTH 6 0
BBX 4 4 2 -1
BITMAP
F0
A0
A0
A0
ENDCHAR
STARTCHAR SF390000
ENCODING 9556
SWIDTH 750 0
DWIDTH 6 0
BBX 4 6 2 -1
BITMAP
F0
80
B0
A0
A0
A0
ENDCHAR
STARTCHAR SF220000
ENCODING 9557
SWIDTH 750 0
DWIDTH 6 0
BBX 3 6 0 -1
BITMAP
E0
20
E0
20
20
20
ENDCHAR
STARTCHAR SF210000
ENCODING 9558
SWIDTH 750 0
DWIDTH 6 0
BBX 5 4 0 -1
BITMAP
F8
28
28
28
ENDCHAR
STARTCHAR SF250000
ENCODING 9559
SWIDTH 750 0
DWIDTH 6 0
BBX 5 6 0 -1
BITMAP
F8
08
E8
28
28
28
ENDCHAR
STARTCHAR SF500000
ENCODING 9560
SWIDTH 750 0
DWIDTH 6 0
BBX 4 5 2 2
BITMAP
80
80
F0
80
F0
ENDCHAR
STARTCHAR SF490000
ENCODING 9561
SWIDTH 750 0
DWIDTH 6 0
BBX 4 5 2 2
BITMAP
A0
A0
A0
A0
F0
ENDCHAR
STARTCHAR SF380000
ENCODING 9562
SWIDTH 750 0
DWIDTH 6 0
BBX 4 5 2 2
BITMAP
A0
A0
B0
80
F0
ENDCHAR
STARTCHAR SF280000
ENCODING 9563
SWIDTH 750 0
DWIDTH 6 0
BBX 3 5 0 2
BITMAP
20
20
E0
20
E0
ENDCHAR
STARTCHAR SF270000
ENCODING 9564
SWIDTH 750 0
DWIDTH 6 0
BBX 5 5 0 2
BITMAP
28
28
28
28
F8
ENDCHAR
STARTCHAR SF260000
ENCODING 9565
SWIDTH 750 0
DWIDTH 6 0
BBX 5 5 0 2
BITMAP
28
28
E8
08
F8
ENDCHAR
STARTCHAR SF360000
ENCODING 9566
SWIDTH 750 0
DWIDTH 6 0
BBX 4 8 2 -1
BITMAP
80
80
F0
80
F0
80
80
80
ENDCHAR
STARTCHAR SF370000
ENCODING 9567
SWIDTH 750 0
DWIDTH 6 0
BBX 4 8 2 -1
BITMAP
A0
A0
A0
A0
B0
A0
A0
A0
ENDCHAR
STARTCHAR SF420000
ENCODING 9568
SWIDTH 750 0
DWIDTH 6 0
BBX 4 8 2 -1
BITMAP
A0
A0
B0
80
B0
A0
A0
A0
ENDCHAR
STARTCHAR SF190000
ENCODING 9569
SWIDTH 750 0
DWIDTH 6 0
BBX 3 8 0 -1
BITMAP
20
20
E0
20
E0
20
20
20
ENDCHAR
STARTCHAR SF200000
ENCODING 9570
SWIDTH 750 0
DWIDTH 6 0
BBX 5 8 0 -1
BITMAP
28
28
28
28
E8
28
28
28
ENDCHAR
STARTCHAR SF230000
ENCODING 9571
SWIDTH 750 0
DWIDTH 6 0
BBX 5 8 0 -1
BITMAP
28
28
E8
08
E8
28
28
28
ENDCHAR
STARTCHAR SF470000
ENCODING 9572
SWIDTH 750 0
DWIDTH 6 0
BBX 6 6 0 -1
BITMAP
FC
00
FC
20
20
20
ENDCHAR
STARTCHAR SF480000
ENCODING 9573
SWIDTH 750 0
DWIDTH 6 0
BBX 6 4 0 -1
BITMAP
FC
28
28
28
ENDCHAR
STARTCHAR SF410000
ENCODING 9574
SWIDTH 750 0
DWIDTH 6 0
BBX 6 6 0 -1
BITMAP
FC
00
EC
28
28
28
ENDCHAR
STARTCHAR SF450000
ENCODING 9575
SWIDTH 750 0
DWIDTH 6 0
BBX 6 5 0 2
BITMAP
20
20
FC
00
FC
ENDCHAR
STARTCHAR SF460000
ENCODING 9576
SWIDTH 750 0
DWIDTH 6 0
BBX 6 5 0 2
BITMAP
28
28
28
28
FC
ENDCHAR
STARTCHAR SF400000
ENCODING 9577
SWIDTH 750 0
DWIDTH 6 0
BBX 6 5 0 2
BITMAP
28
28
EC
00
FC
ENDCHAR
STARTCHAR SF540000
ENCODING 9578
SWIDTH 750 0
DWIDTH 6 0
BBX 6 8 0 -1
BITMAP
20
20
FC
20
FC
20
20
20
ENDCHAR
STARTCHAR SF530000
ENCODING 9579
SWIDTH 750 0
DWIDTH 6 0
BBX 6 8 0 -1
BITMAP
28
28
28
28
FC
28
28
28
ENDCHAR
STARTCHAR SF440000
ENCODING 9580
SWIDTH 750 0
DWIDTH 6 0
BBX 6 8 0 -1
BITMAP
28
28
EC
00
EC
28
28
28
ENDCHAR
STARTCHAR upblock
ENCODING 9600
SWIDTH 750 0
DWIDTH 6 0
BBX 6 4 0 3
BITMAP
FC
FC
FC
FC
ENDCHAR
STARTCHAR dnblock
ENCODING 9604
SWIDTH 750 0
DWIDTH 6 0
BBX 6 4 0 -1
BITMAP
FC
FC
FC
FC
ENDCHAR
STARTCHAR block
ENCODING 9608
SWIDTH 750 0
DWIDTH 6 0
BBX 6 8 0 -1
BITMAP
FC
FC
FC
FC
FC
FC
FC
FC
ENDCHAR
STARTCHAR lfblock
ENCODING 9612
SWIDTH 750 0
DWIDTH 6 0
BBX 3 8 0 -1
BITMAP
E0
E0
E0
E0
E0
E0
E0
E0
ENDCHAR
STARTCHAR rtblock
ENCODING 9616
SWIDTH 750 0
DWIDTH 6 0
BBX 3 8 3 -1
BITMAP
E0
E0
E0
E0
E0
E0
E0
E0
ENDCHAR
STARTCHAR ltshade
ENCODING 9617
SWIDTH 750 0
DWIDTH 6 0
BBX 6 8 0 -1
BITMAP
44
90
44
90
44
90
44
90
ENDCHAR
STARTCHAR shade
ENCODING 9618
SWIDTH 750 0
DWIDTH 6 0
BBX 6 8 0 -1
BITMAP
54
A8
54
A8
54
A8
54
A8
ENDCHAR
STARTCHAR dkshade
ENCODING 9619
SWIDTH 750 0
DWIDTH 6 0
BBX 6 8 0 -1
BITMAP
D8
74
D8
EC
D8
74
D8
EC
ENDCHAR
STARTCHAR filledbox
ENCODING 9632
SWIDTH 750 0
DWIDTH 6 0
BBX 3 4 1 1
BITMAP
E0
E0
E0
E0
ENDCHAR
STARTCHAR filledrect
ENCODING 9644
SWIDTH 750 0
DWIDTH 6 0
BBX 4 3 1 0
BITMAP
F0
F0
F0
ENDCHAR
STARTCHAR triagup
ENCODING 9650
SWIDTH 750 0
DWIDTH 6 0
BBX 5 5 0 1
BITMAP
20
20
70
F8
F8
ENDCHAR
STARTCHAR triagrt
ENCODING 9658
SWIDTH 750 0
DWIDTH 6 0
BBX 5 7 0 0
BITMAP
80
C0
E0
F8
E0
C0
80
ENDCHAR
STARTCHAR triagdn
ENCODING 9660
SWIDTH 750 0
DWIDTH 6 0
BBX 5 5 0 1
BITMAP
F8
F8
70
20
20
ENDCHAR
STARTCHAR triaglf
ENCODING 9668
SWIDTH 750 0
DWIDTH 6 0
BBX 5 7 0 0
BITMAP
08
18
38
F8
38
18
08
ENDCHAR
STARTCHAR circle
ENCODING 9675
SWIDTH 750 0
DWIDTH 6 0
BBX 5 6 0 0
BITMAP
20
50
88
88
50
20
ENDCHAR
STARTCHAR invbullet
ENCODING 9688
SWIDTH 750 0
DWIDTH 6 0
BBX 6 8 0 -1
BITMAP
FC
FC
CC
84
84
CC
FC
FC
ENDCHAR
STARTCHAR invcircle
ENCODING 9689
SWIDTH 750 0
DWIDTH 6 0
BBX 6 8 0 -1
BITMAP
FC
84
B4
B4
B4
B4
CC
FC
ENDCHAR
STARTCHAR smileface
ENCODING 9786
SWIDTH 750 0
DWIDTH 6 0
BBX 6 8 0 -1
BITMAP
78
84
CC
84
FC
B4
84
78
ENDCHAR
STARTCHAR invsmileface
ENCODING 9787
SWIDTH 750 0
DWIDTH 6 0
BBX 6 8 0 -1
BITMAP
78
FC
B4
CC
84
CC
FC
78
ENDCHAR
STARTCHAR sun
ENCODING 9788
SWIDTH 750 0
DWIDTH 6 0
BBX 6 8 0 -1
BITMAP
20
B4
78
CC
CC
30
B4
30
ENDCHAR
STARTCHAR female
ENCODING 9792
SWIDTH 750 0
DWIDTH 6 0
BBX 4 8 1 -1
BITMAP
60
90
90
90
60
60
F0
60
ENDCHAR
STARTCHAR male
ENCODING 9794
SWIDTH 750 0
DWIDTH 6 0
BBX 6 8 0 -1
BITMAP
1C
0C
14
74
90
90
90
60
ENDCHAR
STARTCHAR spade
ENCODING 9824
SWIDTH 750 0
DWIDTH 6 0
BBX 5 8 0 -1
BITMAP
20
20
70
70
F8
70
20
70
ENDCHAR
STARTCHAR club
ENCODING 9827
SWIDTH 750 0
DWIDTH 6 0
BBX 5 8 0 -1
BITMAP
20
70
20
F8
F8
A8
20
70
ENDCHAR
STARTCHAR heart
ENCODING 9829
SWIDTH 750 0
DWIDTH 6 0
BBX 5 7 0 0
BITMAP
50
F8
F8
F8
70
20
20
ENDCHAR
STARTCHAR diamond
ENCODING 9830
SWIDTH 750 0
DWIDTH 6 0
BBX 5 7 0 0
BITMAP
20
20
70
F8
70
20
20
ENDCHAR
STARTCHAR musicalnote
ENCODING 9834
SWIDTH 750 0
DWIDTH 6 0
BBX 6 8 0 -1
BITMAP
3C
24
3C
20
20
60
E0
C0
ENDCHAR
STARTCHAR musicalnotedbl
ENCODING 9835
SWIDTH 750 0
DWIDTH 6 0
BBX 6 8 0 -1
BITMAP
3C
24
3C
24
24
44
98
80
ENDCHAR
STARTCHAR uni3044
ENCODING 12356
SWIDTH 750 0
DWIDTH 6 0
BBX 1 1 5 -1
BITMAP
00
ENDCHAR
STARTCHAR uni3046
ENCODING 12358
SWIDTH 750 0
DWIDTH 6 0
BBX 1 1 5 -1
BITMAP
00
ENDCHAR
STARTCHAR uni304B
ENCODING 12363
SWIDTH 750 0
DWIDTH 6 0
BBX 1 1 5 -1
BITMAP
00
ENDCHAR
STARTCHAR uni3057
ENCODING 12375
SWIDTH 750 0
DWIDTH 6 0
BBX 1 1 5 -1
BITMAP
00
ENDCHAR
STARTCHAR uni306E
ENCODING 12398
SWIDTH 750 0
DWIDTH 6 0
BBX 1 1 5 -1
BITMAP
00
ENDCHAR
STARTCHAR uni3093
ENCODING 12435
SWIDTH 750 0
DWIDTH 6 0
BBX 1 1 5 -1
BITMAP
00
ENDCHAR
STARTCHAR .notdef
ENCODING -1
SWIDTH 750 0
DWIDTH 6 0
BBX 5 6 1 0
BITMAP
F8
88
88
88
88
F8
ENDCHAR
ENDFONT
